<?xml version="1.0" encoding="utf-8"?>
<!-- Generator: Adobe Illustrator 24.0.1, SVG Export Plug-In . SVG Version: 6.00 Build 0)  -->
<svg version="1.1" xmlns="http://www.w3.org/2000/svg" xmlns:xlink="http://www.w3.org/1999/xlink" x="0px" y="0px"
	 viewBox="0 0 150 150" style="enable-background:new 0 0 150 150;" xml:space="preserve">
<style type="text/css">
	.st0{fill:#2B2D42;}
	.st1{fill:#FFFFFF;}
	.st2{clip-path:url(#SVGID_2_);}
	.st3{fill:none;stroke:#2B2D42;stroke-width:2;stroke-linecap:round;stroke-linejoin:round;stroke-miterlimit:10;}
</style>
<g id="OBJECTS">
	<rect x="0" class="st0" width="150" height="150"/>
	<g>
		<path class="st1" d="M123.26,53.65c-10.38-13.73-25.87-1.76-25.87-1.76s2.64-17.95-17.6-19.53
			c-20.23-1.58-24.28,15.66-24.28,15.66S23.42,37.98,22.96,62.77c-0.4,21.67,26.57,24.84,26.57,24.84l1.23,28.51
			c0,0,20.06-13.55,57.19-1.58l-1.06-29.03C120.8,81.98,133.64,67.38,123.26,53.65z"/>
		<g>
			<defs>
				<path id="SVGID_1_" d="M123.26,53.65c-10.38-13.73-25.87-1.76-25.87-1.76s2.64-17.95-17.6-19.53
					c-20.23-1.58-24.28,15.66-24.28,15.66S23.42,37.98,22.96,62.77c-0.4,21.67,26.57,24.84,26.57,24.84l1.23,28.51
					c0,0,20.06-13.55,57.19-1.58l-1.06-29.03C120.8,81.98,133.64,67.38,123.26,53.65z"/>
			</defs>
			<clipPath id="SVGID_2_">
				<use xlink:href="#SVGID_1_"  style="overflow:visible;"/>
			</clipPath>
			<g class="st2">
				<g>
					<path class="st0" d="M56.42,45.72c-0.06,0.12-0.18,0.47-0.24,0.74c-0.08,0.29-0.13,0.59-0.19,0.89
						c-0.09,0.61-0.16,1.24-0.18,1.88c-0.05,1.27,0,2.57,0.14,3.86c0.13,1.29,0.35,2.58,0.6,3.87c0.27,1.29,0.58,2.56,0.93,3.84
						l0,0.01c0.08,0.29-0.09,0.59-0.39,0.67c-0.28,0.08-0.57-0.08-0.66-0.36c-0.42-1.27-0.82-2.56-1.17-3.86
						c-0.33-1.31-0.64-2.62-0.85-3.97c-0.23-1.34-0.36-2.71-0.38-4.09c-0.02-0.69,0.02-1.39,0.09-2.1c0.04-0.35,0.09-0.71,0.16-1.07
						c0.08-0.38,0.14-0.68,0.33-1.17c0.21-0.51,0.79-0.76,1.31-0.55c0.51,0.21,0.76,0.79,0.55,1.31c-0.01,0.03-0.02,0.06-0.04,0.08
						L56.42,45.72z"/>
				</g>
				<g>
					<path class="st0" d="M99.61,49.36c-0.95,1.15-1.8,2.41-2.46,3.79c-0.64,1.39-1.18,2.84-1.55,4.35
						c-0.37,1.51-0.63,3.05-0.78,4.61c-0.14,1.55-0.19,3.15-0.1,4.69l0,0.02c0.02,0.26-0.18,0.48-0.44,0.5
						c-0.25,0.02-0.47-0.17-0.5-0.42c-0.19-1.64-0.22-3.24-0.17-4.87c0.06-1.62,0.24-3.24,0.54-4.85c0.3-1.61,0.78-3.19,1.4-4.74
						c0.63-1.54,1.49-2.99,2.5-4.36c0.33-0.44,0.96-0.54,1.4-0.21c0.44,0.33,0.54,0.96,0.21,1.4c-0.01,0.01-0.02,0.03-0.03,0.04
						L99.61,49.36z"/>
				</g>
				<g>
					<path class="st0" d="M56.12,85.04c-2.42-0.74-4.55-1.81-6.58-3.14c-2.02-1.34-3.84-2.98-5.35-4.87
						c-0.8-0.91-1.4-1.97-2.04-2.99c-0.53-1.09-1.11-2.15-1.45-3.31c-0.46-1.12-0.67-2.3-0.92-3.47c-0.16-0.58-0.16-1.18-0.23-1.77
						l-0.17-1.78c-0.02-0.26,0.17-0.5,0.44-0.52c0.26-0.02,0.49,0.16,0.52,0.42l0.01,0.06l0.22,1.7c0.09,0.56,0.11,1.14,0.28,1.69
						c0.29,1.1,0.52,2.22,1,3.26c0.36,1.08,0.95,2.06,1.48,3.05c0.64,0.93,1.23,1.9,2.01,2.72c1.47,1.71,3.22,3.17,5.15,4.35
						c1.91,1.16,4.05,2.12,6.13,2.67l0.07,0.02c0.53,0.14,0.85,0.69,0.71,1.22c-0.14,0.53-0.69,0.85-1.22,0.71
						C56.14,85.05,56.13,85.05,56.12,85.04z"/>
				</g>
				<g>
					<path class="st0" d="M75,80.05c0.74-0.89,1.44-2.11,1.98-3.3c0.57-1.2,0.99-2.47,1.35-3.76c0.7-2.59,0.98-5.3,0.99-8.01
						l-0.03-2.04l-0.19-2.03l-0.09-1.02l-0.17-1.01l-0.33-2.02c-0.27-1.34-0.62-2.66-0.93-4l-1.23-3.93l-0.01-0.04
						c-0.1-0.33,0.08-0.69,0.42-0.79c0.33-0.1,0.68,0.08,0.79,0.4l1.34,3.98c0.35,1.36,0.74,2.71,1.05,4.08l0.39,2.08l0.19,1.04
						l0.12,1.05l0.24,2.11l0.08,2.12c0.05,2.83-0.18,5.69-0.86,8.48c-0.36,1.39-0.78,2.77-1.37,4.09c-0.59,1.34-1.23,2.58-2.23,3.85
						c-0.34,0.43-0.97,0.5-1.4,0.16c-0.43-0.34-0.5-0.97-0.16-1.4c0,0,0.01-0.01,0.01-0.01L75,80.05z"/>
				</g>
				<g>
					<path class="st0" d="M95.38,82.16c1.66-0.75,3.34-1.77,4.88-2.87c1.55-1.12,3-2.38,4.31-3.77c1.33-1.38,2.49-2.92,3.47-4.57
						c1.03-1.63,1.7-3.44,2.32-5.26l0.01-0.03c0.07-0.22,0.31-0.33,0.53-0.26c0.21,0.07,0.33,0.29,0.27,0.51
						c-0.54,1.92-1.15,3.85-2.14,5.6c-0.94,1.77-2.07,3.45-3.39,4.96c-1.31,1.52-2.76,2.93-4.33,4.18
						c-1.59,1.26-3.22,2.37-5.09,3.34c-0.49,0.25-1.09,0.06-1.35-0.43c-0.25-0.49-0.06-1.09,0.43-1.35
						c0.01-0.01,0.03-0.01,0.04-0.02L95.38,82.16z"/>
				</g>
				<g>
					<path class="st0" d="M46.8,96.43c2.27-1.78,4.65-3.11,7.15-4.31c2.5-1.17,5.08-2.17,7.73-2.91c2.65-0.72,5.34-1.34,8.07-1.64
						c1.36-0.22,2.73-0.26,4.1-0.37c1.37-0.08,2.74-0.04,4.11-0.07c0.41-0.01,0.75,0.32,0.76,0.73c0.01,0.41-0.31,0.74-0.72,0.76
						l-0.06,0c-1.33,0.05-2.67,0.03-4,0.13c-1.33,0.13-2.66,0.19-3.98,0.42c-2.65,0.33-5.24,0.97-7.79,1.71
						c-2.55,0.76-5.02,1.76-7.4,2.93c-2.36,1.17-4.7,2.55-6.67,4.14l-0.05,0.04c-0.43,0.35-1.06,0.28-1.41-0.15
						s-0.28-1.06,0.15-1.41C46.79,96.43,46.8,96.43,46.8,96.43z"/>
				</g>
				<path class="st3" d="M109.26,86.85c0,0-40.9-15.2-61.16,2.25"/>
			</g>
		</g>
	</g>
</g>
<g id="BACKGROUND">
</g>
<g id="DESIGNED_BY_FREEPIK">
</g>
</svg>
