<?xml version="1.0" encoding="utf-8"?>
<!-- Generator: Adobe Illustrator 24.0.1, SVG Export Plug-In . SVG Version: 6.00 Build 0)  -->
<svg version="1.1" id="Layer_1" xmlns="http://www.w3.org/2000/svg" xmlns:xlink="http://www.w3.org/1999/xlink" x="0px" y="0px"
	 viewBox="0 0 415 365" style="enable-background:new 0 0 415 365;" xml:space="preserve">
<style type="text/css">
	.st0{display:none;opacity:0.8;fill:#FFFFFF;enable-background:new    ;}
	.st1{display:none;fill:none;stroke:#263238;stroke-width:1.1433;stroke-linecap:round;stroke-linejoin:round;}
	
		.st2{display:none;fill:none;stroke:#263238;stroke-width:1.1433;stroke-linecap:round;stroke-linejoin:round;stroke-miterlimit:3.9999;}
	.st3{display:none;fill:none;stroke:#263238;stroke-width:1.1433;stroke-linecap:round;stroke-linejoin:round;stroke-miterlimit:4;}
	.st4{fill:#EF233C;}
	.st5{fill:#FFFFFF;}
	.st6{clip-path:url(#SVGID_2_);}
	.st7{opacity:0.5;fill:#FFFFFF;enable-background:new    ;}
	.st8{fill:#2B2D42;}
	.st9{fill:none;stroke:#2B2D42;stroke-width:1.1433;stroke-linecap:round;stroke-linejoin:round;}
	.st10{fill:#2B2D42;stroke:#2B2D42;stroke-width:1.1433;stroke-linecap:round;stroke-linejoin:round;}
	.st11{fill:none;stroke:#FFFFFF;stroke-width:1.1433;stroke-linecap:round;stroke-linejoin:round;}
	.st12{clip-path:url(#SVGID_4_);}
	.st13{clip-path:url(#SVGID_6_);}
	.st14{clip-path:url(#SVGID_8_);}
	.st15{opacity:0.42;fill:#8D99AE;enable-background:new    ;}
	.st16{fill:#FFFFFF;stroke:#2B2D42;stroke-width:1.1433;stroke-linecap:round;stroke-linejoin:round;}
	.st17{clip-path:url(#SVGID_10_);}
	.st18{clip-path:url(#SVGID_12_);}
	.st19{clip-path:url(#SVGID_14_);}
	.st20{clip-path:url(#SVGID_16_);}
	.st21{clip-path:url(#SVGID_18_);}
	.st22{clip-path:url(#SVGID_20_);}
	.st23{clip-path:url(#SVGID_22_);}
	.st24{clip-path:url(#SVGID_24_);}
	.st25{opacity:0.65;fill:#8D99AE;enable-background:new    ;}
	.st26{clip-path:url(#SVGID_26_);}
	.st27{clip-path:url(#SVGID_28_);}
	.st28{clip-path:url(#SVGID_30_);}
</style>
<path class="st0" d="M400.9,120.1c-21.7-27.2-51.4-43.6-88.5-36.5c-36.7,7-61.8,41.3-95.4,56.2c-35.7,15.9-76.1,7.1-113.2,16.8
	c-26.2,6.8-47.2,27.2-56.8,56.3c-18.8,56.9-3.1,124.3,39.4,161.6c26.5,23.2,60.9,32.2,93.4,25.8c24.9-5,48.3-17.7,73.2-23.1
	c43.3-9.4,88.9,4.6,131.5-11c45.1-16.5,59.8-64.8,59.5-113.3C443.9,208.8,429.1,155.4,400.9,120.1z"/>
<rect x="54.6" y="150.4" class="st1" width="214.9" height="55.6"/>
<polygon class="st1" points="269.5,150.4 54.6,150.4 76.1,114.6 248.1,114.6 "/>
<line class="st1" x1="76.1" y1="114.6" x2="76.1" y2="75"/>
<line class="st1" x1="249.1" y1="114.6" x2="249.1" y2="75"/>
<path class="st1" d="M422.1,147.2l1.2-46.2c0.1-2.4,2-4.3,4.5-4.3l0,0c2.4,0,4.4,1.9,4.4,4.3l1.2,46.5"/>
<path class="st1" d="M423.3,101l-0.3,11.1h9.5l-0.3-11.1c-0.1-2.5-2.2-4.4-4.7-4.2C425.2,96.9,423.4,98.7,423.3,101L423.3,101z"/>
<circle class="st1" cx="427.6" cy="178.5" r="31.7"/>
<ellipse transform="matrix(0.2277 -0.9737 0.9737 0.2277 156.3573 554.34)" class="st2" cx="427.6" cy="178.6" rx="24.8" ry="24.8"/>
<circle class="st1" cx="427.7" cy="101.1" r="0.8"/>
<path class="st1" d="M361.3,141.1l1.1-40.6c0.1-2.1,1.8-3.8,3.9-3.8l0,0c2.1,0,3.9,1.7,3.9,3.8l1.1,40.9"/>
<path class="st1" d="M362.4,100.5l-0.3,9.7h8.3l-0.3-9.7c0-2.2-1.8-3.9-3.9-3.9S362.4,98.4,362.4,100.5L362.4,100.5z"/>
<ellipse transform="matrix(0.7071 -0.7071 0.7071 0.7071 -12.0662 308.3139)" class="st3" cx="366.1" cy="168.7" rx="27.8" ry="27.8"/>
<circle class="st1" cx="366.1" cy="168.7" r="21.8"/>
<circle class="st1" cx="366.3" cy="100.6" r="0.7"/>
<path class="st1" d="M308.3,136l1-36c0-1.9,1.6-3.4,3.5-3.4l0,0c1.9,0,3.4,1.5,3.5,3.4l1,36.2"/>
<path class="st1" d="M309.2,100l-0.2,8.6h7.4l-0.2-8.6c0-1.9-1.5-3.5-3.5-3.5C310.8,96.6,309.2,98.1,309.2,100L309.2,100z"/>
<circle class="st1" cx="312.5" cy="160.4" r="24.6"/>
<circle class="st1" cx="312.5" cy="160.4" r="19.3"/>
<path class="st1" d="M313.3,100.1c0-0.3-0.3-0.6-0.6-0.6s-0.6,0.3-0.6,0.6s0.3,0.6,0.6,0.6S313.3,100.5,313.3,100.1z"/>
<line class="st1" x1="53.2" y1="367.6" x2="416.2" y2="367.6"/>
<line class="st1" x1="53.2" y1="342.2" x2="416.2" y2="342.2"/>
<path class="st4" d="M366.8,45.3C345,18.1,315.4,1.7,278.3,8.8c-36.7,7-48.5,31.6-90.7,24.9c-60.7-12.3-93.7-19.8-130.7,6.7
	C26.6,67.6,23.6,79,14,108.1c-18.9,56.8-4.3,154.3,38.3,191.6c26.5,23.2,51.9,8.1,84.4,1.7c24.9-5,60.4-31.4,85.3-36.8
	c48.4,25.3,95.4,38.1,138,22.5c45.1-16.5,50.1-60.5,49.8-109C409.7,134,394.9,80.5,366.8,45.3z"/>
<path class="st5" d="M108.7,122.2c0,0-5.2,16.5-5.5,23.7s9.9,16.8,15.7,22.3s16,8,30.3,7.4s26.7-7.2,26.7-7.2s-0.3,43.8,0,54
	s1.1,117.7,1.1,117.7h97.6c0,0-2.5-100.9-1.7-112.7s6.1-46.3,6.1-46.3s36.6,17.1,44.9,17.1s28.1-22,27.3-27.8s-29.5-22.6-39.4-30.9
	S298,123.3,291.1,120s-38-10.2-44.9-11s-44.4,1.4-54.6,1.9s-27.3,17.9-31.4,20.9c-3.2,2.2-6.5,4.2-9.9,6.1c0,0,1.7-1.9-1.1-2.5
	c-1.4-0.3-2.7-0.5-4.1-0.6c0,0-1.4-16-2.5-17.6s-17.4-5.5-23.4-5S108.7,122.2,108.7,122.2z"/>
<g>
	<g>
		<defs>
			<path id="SVGID_1_" d="M108.7,122.2c0,0-5.2,16.5-5.5,23.7s9.9,16.8,15.7,22.3s16,8,30.3,7.4s26.7-7.2,26.7-7.2s-0.3,43.8,0,54
				s1.1,117.7,1.1,117.7h97.6c0,0-2.5-100.9-1.7-112.7s6.1-46.3,6.1-46.3s36.6,17.1,44.9,17.1s28.1-22,27.3-27.8
				s-29.5-22.6-39.4-30.9S298,123.3,291.1,120s-38-10.2-44.9-11s-44.4,1.4-54.6,1.9s-27.3,17.9-31.4,20.9c-3.2,2.2-6.5,4.2-9.9,6.1
				c0,0,1.7-1.9-1.1-2.5c-1.4-0.3-2.7-0.5-4.1-0.6c0,0-1.4-16-2.5-17.6s-17.4-5.5-23.4-5S108.7,122.2,108.7,122.2z"/>
		</defs>
		<clipPath id="SVGID_2_">
			<use xlink:href="#SVGID_1_"  style="overflow:visible;"/>
		</clipPath>
		<g class="st6">
			<path class="st4" d="M349.1,176.2c1.5-2.5,2.3-4.5,2.1-5.8c-0.8-5.8-29.5-22.6-39.4-30.9S298,123.3,291.1,120s-38-10.2-44.9-11
				c-3.7-0.2-7.3-0.3-11-0.1c8.1,8.4-14.2,23.5-9.4,23.9c4.8,0.4,26.3-2.9,38.6-8.2c0,0,14.8-0.4,27.1,7
				C302,137.8,329.1,160.1,349.1,176.2z"/>
			<path class="st4" d="M300.6,190.7c0,0-11.1-11.1-12.3-14s7-34.5,2.5-26.7c-2.7,4.6-4.3,9.6-4.9,14.9c0,0-5.4-20.5-5.8-15.6
				s-0.4,17.3-0.4,17.3s-19.3-22.2-16-12.3s7,21.4,7,21.4l-26.4,186.9l11.1-3.7L280,183.5L300.6,190.7z"/>
			<path class="st4" d="M176.1,178c0,0,0.4-44-0.8-41.9s-2.5,11.5-2.5,11.5s-6.2-14.4-7-9.4s1.2,15.6,1.2,15.6s-7.4,2.9-27.5,6.2
				s-16,0-4.1-5.8s21-18.9,21-25.1c0-6.2-4.1-23.5-16.8-25.9s-39.4,22.6-41.5,27.6c-2.1,4.9,15.6-2.1,15.6-2.1s2.5,11.5,3.3,15.2
				s-4.5,9.9-4.9,11.5s9.9-2.1,9-0.8s-10.7,9-8.6,12.7s18.9,10.3,34.1,12.4C156.4,180.8,166.4,180.2,176.1,178z"/>
			<path class="st7" d="M176.1,178c0,0,0.4-44-0.8-41.9s-2.5,11.5-2.5,11.5s-6.2-14.4-7-9.4s1.2,15.6,1.2,15.6s-7.4,2.9-27.5,6.2
				s-16,0-4.1-5.8s21-18.9,21-25.1c0-6.2-4.1-23.5-16.8-25.9s-39.4,22.6-41.5,27.6c-2.1,4.9,15.6-2.1,15.6-2.1s2.5,11.5,3.3,15.2
				s-4.5,9.9-4.9,11.5s9.9-2.1,9-0.8s-10.7,9-8.6,12.7s18.9,10.3,34.1,12.4C156.4,180.8,166.4,180.2,176.1,178z"/>
			<path class="st7" d="M300.6,190.7c0,0-11.1-11.1-12.3-14s7-34.5,2.5-26.7c-2.7,4.6-4.3,9.6-4.9,14.9c0,0-5.4-20.5-5.8-15.6
				s-0.4,17.3-0.4,17.3s-19.3-22.2-16-12.3s7,21.4,7,21.4l-26.4,186.9l11.1-3.7L280,183.5L300.6,190.7z"/>
			<path class="st8" d="M177,340.2h97.6c0,0-0.8-31.1-1.3-60.8l-96.8-6.5C176.8,305,177,340.2,177,340.2z"/>
			<path class="st7" d="M349.1,176.2c1.5-2.5,2.3-4.5,2.1-5.8c-0.8-5.8-29.5-22.6-39.4-30.9S298,123.3,291.1,120s-38-10.2-44.9-11
				c-3.7-0.2-7.3-0.3-11-0.1c8.1,8.4-14.2,23.5-9.4,23.9c4.8,0.4,26.3-2.9,38.6-8.2c0,0,14.8-0.4,27.1,7
				C302,137.8,329.1,160.1,349.1,176.2z"/>
		</g>
	</g>
</g>
<path class="st9" d="M108.7,122.2c0,0-5.2,16.5-5.5,23.7s9.9,16.8,15.7,22.3s16,8,30.3,7.4s26.7-7.2,26.7-7.2s-0.3,43.8,0,54
	s1.1,117.7,1.1,117.7h97.6c0,0-2.5-100.9-1.7-112.7s6.1-46.3,6.1-46.3s36.6,17.1,44.9,17.1s28.1-22,27.3-27.8s-29.5-22.6-39.4-30.9
	S298,123.3,291.1,120s-38-10.2-44.9-11s-44.4,1.4-54.6,1.9s-27.3,17.9-31.4,20.9c-3.2,2.2-6.5,4.2-9.9,6.1c0,0,1.7-1.9-1.1-2.5
	c-1.4-0.3-2.7-0.5-4.1-0.6c0,0-1.4-16-2.5-17.6s-17.4-5.5-23.4-5S108.7,122.2,108.7,122.2z"/>
<polyline class="st9" points="176.5,142.9 175.9,168.5 168.8,140.4 "/>
<path class="st9" d="M145.1,134.9c0,0-10.8,14.1-18.2,15.4"/>
<path class="st9" d="M150.3,137.9c0,0-3.6,7.2-7.4,8"/>
<polyline class="st9" points="283.7,163.8 279,181.2 276.3,163.5 "/>
<polyline class="st9" points="221.1,131.6 211.5,139.6 203.2,338.8 "/>
<path class="st8" d="M215.9,155.1c0,1-0.8,1.8-1.8,1.8s-1.8-0.8-1.8-1.8s0.8-1.8,1.8-1.8l0,0C215.1,153.3,215.9,154.1,215.9,155.1z"
	/>
<path class="st8" d="M235.7,155.1c0,1-0.8,1.8-1.8,1.8s-1.8-0.8-1.8-1.8s0.8-1.8,1.8-1.8S235.7,154.1,235.7,155.1z"/>
<path class="st8" d="M215.2,189.7c0,1-0.8,1.8-1.8,1.8s-1.8-0.8-1.8-1.8s0.8-1.8,1.8-1.8S215.2,188.7,215.2,189.7L215.2,189.7z"/>
<path class="st8" d="M235.1,189.7c0,1-0.8,1.8-1.8,1.8s-1.8-0.8-1.8-1.8s0.8-1.8,1.8-1.8S235.1,188.7,235.1,189.7L235.1,189.7z"/>
<path class="st8" d="M214.5,228.8c0,1-0.8,1.8-1.8,1.8s-1.8-0.8-1.8-1.8s0.8-1.8,1.8-1.8S214.5,227.9,214.5,228.8L214.5,228.8z"/>
<path class="st8" d="M234.4,228.8c0,1-0.8,1.8-1.8,1.8s-1.8-0.8-1.8-1.8s0.8-1.8,1.8-1.8S234.4,227.9,234.4,228.8L234.4,228.8z"/>
<path class="st10" d="M129.7,92.2c0,0-7.2,0-9.6,0.8s-11.6,17.6-14,23.7c-1.5,4-2.1,8.2-1.7,12.4l13.2-6.3l3.9,17.6
	c0,0,20.9-16.5,23.7-22s-3.6-20.9-3.6-20.9L129.7,92.2z"/>
<path class="st10" d="M221.7,103.2c0,0-13.2,3.6-14.6,10.2s9.9,17.1,12.1,19s22.6-2.2,31.7-4.4c9.1-2.2,21.2-8,20.9-12.7
	s-5.8-6.6-7.4-10.5s-2.8-6.1-7.7-6.6c-4.9-0.5-9.9-0.6-14.9-0.3C239.9,98.2,221.7,103.2,221.7,103.2z"/>
<path class="st10" d="M221.1,131.6c0,0-1.4-2.8-6.6-2.5s-9.4,6.1-9.4,6.1S215.4,137.4,221.1,131.6z"/>
<path class="st10" d="M221.1,131.6c0,0,2.2-4.1,6.6,0.3c4.4,4.4,7.2,11.8,7.2,11.8s-5.8,2.5-11.3-3.3S221.1,131.6,221.1,131.6z"/>
<path class="st11" d="M263.9,108.1c0,0,0.3,5.2-9.6,10.5c-7.1,3.6-14.4,6.6-22,9.1"/>
<path class="st11" d="M247.1,115.1c0,0,7.4-4.8,8.5-8s-2.2-5-2.2-5"/>
<path class="st11" d="M221.7,130.5c0,0-6.6-8-6.6-14s2.5-6.9,2.5-6.9"/>
<path class="st5" d="M222.1,39.5c-2.4-2.9-4.5-6-6.2-9.4c-2.4-5-5.6-13.2,0.6-18.2s30-8.2,41.5-6.8c11.5,1.4,21.2,13.2,30.3,29.7
	s12.1,29.1,10,34.7S288,81.2,278.3,81S263,70.4,257.4,65.1s-23-16.2-25.3-18.6c-2.7-2.4-5.6-4.7-8.5-6.8L222.1,39.5z"/>
<g>
	<g>
		<defs>
			<path id="SVGID_3_" d="M222.1,39.5c-2.4-2.9-4.5-6-6.2-9.4c-2.4-5-5.6-13.2,0.6-18.2s30-8.2,41.5-6.8
				c11.5,1.4,21.2,13.2,30.3,29.7s12.1,29.1,10,34.7S288,81.2,278.3,81S263,70.4,257.4,65.1s-23-16.2-25.3-18.6
				c-2.7-2.4-5.6-4.7-8.5-6.8L222.1,39.5z"/>
		</defs>
		<clipPath id="SVGID_4_">
			<use xlink:href="#SVGID_3_"  style="overflow:visible;"/>
		</clipPath>
		<g class="st12">
			<path class="st4" d="M265.2,7.4c4.5,5.5,15.1,19.3,16.1,29.7c1.2,13.1-23.8,6.6-23.8,6.6s16.4-9.9,11.5-8.6s-9-1.6-16.4-1.6
				s-16.8-9.9-16.8-6.6s0.8,4.1,2.9,7s-2.1,0,7.8,14c3,4.3,5.3,9.3,7.6,14.4c1.4,1.1,2.5,2,3.4,2.9c5.6,5.3,11.2,15.6,20.9,15.9
				s18-5.9,20-11.5s-0.9-18.3-10-34.7C281.1,21.9,273.7,11.9,265.2,7.4z"/>
			<path class="st7" d="M265.2,7.4c4.5,5.5,15.1,19.3,16.1,29.7c1.2,13.1-23.8,6.6-23.8,6.6s16.4-9.9,11.5-8.6s-9-1.6-16.4-1.6
				s-16.8-9.9-16.8-6.6s0.8,4.1,2.9,7s-2.1,0,7.8,14c3,4.3,5.3,9.3,7.6,14.4c1.4,1.1,2.5,2,3.4,2.9c5.6,5.3,11.2,15.6,20.9,15.9
				s18-5.9,20-11.5s-0.9-18.3-10-34.7C281.1,21.9,273.7,11.9,265.2,7.4z"/>
		</g>
	</g>
</g>
<path class="st9" d="M222.1,39.5c-2.4-2.9-4.5-6-6.2-9.4c-2.4-5-5.6-13.2,0.6-18.2s30-8.2,41.5-6.8c11.5,1.4,21.2,13.2,30.3,29.7
	s12.1,29.1,10,34.7S288,81.2,278.3,81S263,70.4,257.4,65.1s-23-16.2-25.3-18.6c-2.7-2.4-5.6-4.7-8.5-6.8L222.1,39.5z"/>
<path class="st9" d="M230.9,29.2c0,0-2.9-1.6-7.8-7.8"/>
<path class="st9" d="M233.5,19.5c-0.1-0.9-0.2-1.8-0.1-2.6"/>
<path class="st9" d="M238.3,30.5c-1.6-2.5-3-5.2-4-8.1"/>
<path class="st9" d="M262,43.5c0,0,8.1,1.6,15.3,0.3"/>
<path class="st9" d="M287,58.7c0.7,0,1.5,0,2.3,0"/>
<path class="st9" d="M273.4,56.8c3.3,0.8,6.7,1.4,10.1,1.7"/>
<path class="st9" d="M271.8,63c0,0,8.1,8.8,13.9,10.4"/>
<path class="st5" d="M265.6,67.7c0-0.9-4.4-11.2-12.1-18.5s-22.4-9.1-27.4-8.8s-7.4,2.7-7.4,2.7s-5.3,19.4-7.9,26.2
	c-2.1,5.8-2.2,12.2-0.2,18.1c1.8,5.2,4.3,10.2,7.3,14.9c4.4,7.1,4.4,26.5,4.4,26.5s22.1-10,24.7-13.5s1.2-15.9,2.4-21.8
	c0.2-1.2,0.6-2.4,1.1-3.5c1.4-1.6,2.6-3.4,3.4-5.3C253.9,84.5,265.6,68.6,265.6,67.7z"/>
<g>
	<g>
		<defs>
			<path id="SVGID_5_" d="M265.6,67.7c0-0.9-4.4-11.2-12.1-18.5s-22.4-9.1-27.4-8.8s-7.4,2.7-7.4,2.7s-5.3,19.4-7.9,26.2
				c-2.1,5.8-2.2,12.2-0.2,18.1c1.8,5.2,4.3,10.2,7.3,14.9c4.4,7.1,4.4,26.5,4.4,26.5s22.1-10,24.7-13.5s1.2-15.9,2.4-21.8
				c0.2-1.2,0.6-2.4,1.1-3.5c1.4-1.6,2.6-3.4,3.4-5.3C253.9,84.5,265.6,68.6,265.6,67.7z"/>
		</defs>
		<clipPath id="SVGID_6_">
			<use xlink:href="#SVGID_5_"  style="overflow:visible;"/>
		</clipPath>
		<g class="st13">
			<path class="st4" d="M259,55.5l-6.5-0.4c-1.8,8.4-4.2,16.6-7,24.6c-4.1,11.1-9.9,17.7-15.6,19.7s-12.3-0.8-9.9,2.5
				c1.5,1.9,10.3,10.3,20.2,17.8c3.3-1.8,6-3.6,6.8-4.6c2.6-3.5,1.2-15.9,2.4-21.8c0.2-1.2,0.6-2.4,1.1-3.5c1.4-1.6,2.6-3.4,3.4-5.3
				c0,0,11.8-15.9,11.8-16.8C265.6,67.1,263.3,61.4,259,55.5z"/>
			<path class="st7" d="M259,55.5l-6.5-0.4c-1.8,8.4-4.2,16.6-7,24.6c-4.1,11.1-9.9,17.7-15.6,19.7s-12.3-0.8-9.9,2.5
				c1.5,1.9,10.3,10.3,20.2,17.8c3.3-1.8,6-3.6,6.8-4.6c2.6-3.5,1.2-15.9,2.4-21.8c0.2-1.2,0.6-2.4,1.1-3.5c1.4-1.6,2.6-3.4,3.4-5.3
				c0,0,11.8-15.9,11.8-16.8C265.6,67.1,263.3,61.4,259,55.5z"/>
		</g>
	</g>
</g>
<path class="st9" d="M265.6,67.7c0-0.9-4.4-11.2-12.1-18.5s-22.4-9.1-27.4-8.8s-7.4,2.7-7.4,2.7s-5.3,19.4-7.9,26.2
	c-2.1,5.8-2.2,12.2-0.2,18.1c1.8,5.2,4.3,10.2,7.3,14.9c4.4,7.1,4.4,26.5,4.4,26.5s22.1-10,24.7-13.5s1.2-15.9,2.4-21.8
	c0.2-1.2,0.6-2.4,1.1-3.5c1.4-1.6,2.6-3.4,3.4-5.3C253.9,84.5,265.6,68.6,265.6,67.7z"/>
<path class="st9" d="M228.2,60.9c0,0-0.9,3.5-3.8,4.7s-6.8,0.9-5.6,2.9s5.6,3.2,5.6,3.2"/>
<path class="st9" d="M220.3,79.2c0,0,5,2.1,7.9,0.6"/>
<path class="st9" d="M238.3,63.9c0,0-0.6,5,5.6,4.1"/>
<path class="st9" d="M218.5,59.2c0,0,2.9,4.7,7.1,1.8"/>
<path class="st9" d="M239.7,57.1c0,0,5.3-1.8,7.6,4.7"/>
<path class="st9" d="M228.2,54.8c0,0-3.5-5.3-8.5-1.5"/>
<path class="st9" d="M228.5,76.8c0,0,0.3,4.4,2.6,5.3"/>
<path class="st9" d="M255.3,82.4c0,0-8.2,10-13.8,11.8"/>
<path class="st10" d="M254.6,60.1c0,0-3.8,4.6-3.4,8.4s6.4,7.7,8.1,7.7s6.4-7,6.4-7S258.9,61.8,254.6,60.1z"/>
<path class="st10" d="M228.3,47c0,0-3.3,3.3-11.3,3.3c-4.5,0-9-0.3-13.5-1.1C203.5,49.2,221.4,44.8,228.3,47z"/>
<path class="st5" d="M172.4,99.6c2.2,8.2,10.7,13.1,18.9,10.9c7.2-1.9,12-8.8,11.4-16.3L172.4,99.6z"/>
<g>
	<g>
		<defs>
			<path id="SVGID_7_" d="M172.4,99.6c2.2,8.2,10.7,13.1,18.9,10.9c7.2-1.9,12-8.8,11.4-16.3L172.4,99.6z"/>
		</defs>
		<clipPath id="SVGID_8_">
			<use xlink:href="#SVGID_7_"  style="overflow:visible;"/>
		</clipPath>
		<g class="st14">
			<path class="st15" d="M172.4,99.6c2.2,8.2,10.7,13.1,18.9,10.9c7.2-1.9,12-8.8,11.4-16.3L172.4,99.6z"/>
		</g>
	</g>
</g>
<path class="st9" d="M172.4,99.6c2.2,8.2,10.7,13.1,18.9,10.9c7.2-1.9,12-8.8,11.4-16.3L172.4,99.6z"/>
<path class="st16" d="M153.6,59.7c1-1.9,1.5-3.9,1.6-6.1c0-3-1.1-8-2.8-7.4s-1.6,4.7-1.4,6.1c0.1,1.2,0,2.4-0.3,3.6
	c0,0-1.4,2.5-0.3,4.4S153.6,59.7,153.6,59.7z"/>
<path class="st9" d="M172.4,99.6l-29.9-64.1c-0.7-1.6-2.6-2.3-4.2-1.5l0,0l0,0c-1.6,0.7-2.3,2.6-1.5,4.2c0,0,0,0,0,0.1l1.3,2.6"/>
<path class="st16" d="M142.3,49.4c0,0,0,3.3,1.4,4.1s8.5,5,8.8,2.5s-5-5.8-6.6-6.6S143.7,48.9,142.3,49.4z"/>
<path class="st5" d="M143.7,53.6c0,0-4.4,8.8-4.4,12.7v14.6c0,0-17.1,17.9-17.9,22.6s-3,16,0,16s17.1-13.5,18.2-16.3
	s7.7-20.9,7.7-20.9c0.6-0.9,1.2-1.7,1.9-2.5c1.1-1.1,1.4-8.3,1.4-8.3s3-0.3,3-1.9v-9.9C153.6,57.4,143.7,53.6,143.7,53.6z"/>
<g>
	<g>
		<defs>
			<path id="SVGID_9_" d="M143.7,53.6c0,0-4.4,8.8-4.4,12.7v14.6c0,0-17.1,17.9-17.9,22.6s-3,16,0,16s17.1-13.5,18.2-16.3
				s7.7-20.9,7.7-20.9c0.6-0.9,1.2-1.7,1.9-2.5c1.1-1.1,1.4-8.3,1.4-8.3s3-0.3,3-1.9v-9.9C153.6,57.4,143.7,53.6,143.7,53.6z"/>
		</defs>
		<clipPath id="SVGID_10_">
			<use xlink:href="#SVGID_9_"  style="overflow:visible;"/>
		</clipPath>
		<g class="st17">
			<path class="st4" d="M139.6,103.2c1.1-2.8,7.7-20.9,7.7-20.9c0.6-0.9,1.2-1.7,1.9-2.5c1.1-1.1,1.4-8.3,1.4-8.3s3-0.3,3-1.9v-9.9
				c0-0.5-0.5-1-1.2-1.6l-2,9l-7.9,0.8c1.2,1.8,2.2,3.9,2.8,6c0.8,3.2-0.4,8.7-2.4,13.9c-1.9,4.9-20.7,27.7-22.8,30.3
				c0.2,0.9,0.6,1.5,1.3,1.5C124.4,119.4,138.5,105.9,139.6,103.2z"/>
			<path class="st7" d="M139.6,103.2c1.1-2.8,7.7-20.9,7.7-20.9c0.6-0.9,1.2-1.7,1.9-2.5c1.1-1.1,1.4-8.3,1.4-8.3s3-0.3,3-1.9v-9.9
				c0-0.5-0.5-1-1.2-1.6l-2,9l-7.9,0.8c1.2,1.8,2.2,3.9,2.8,6c0.8,3.2-0.4,8.7-2.4,13.9c-1.9,4.9-20.7,27.7-22.8,30.3
				c0.2,0.9,0.6,1.5,1.3,1.5C124.4,119.4,138.5,105.9,139.6,103.2z"/>
		</g>
	</g>
</g>
<path class="st9" d="M143.7,53.6c0,0-4.4,8.8-4.4,12.7v14.6c0,0-17.1,17.9-17.9,22.6s-3,16,0,16s17.1-13.5,18.2-16.3
	s7.7-20.9,7.7-20.9c0.6-0.9,1.2-1.7,1.9-2.5c1.1-1.1,1.4-8.3,1.4-8.3s3-0.3,3-1.9v-9.9C153.6,57.4,143.7,53.6,143.7,53.6z"/>
<polyline class="st9" points="150.6,71.5 149.8,69.3 147,69.6 "/>
<line class="st9" x1="143.2" y1="64.6" x2="152.5" y2="64.9"/>
<line class="st9" x1="143.7" y1="59.4" x2="152.8" y2="61.6"/>
<path class="st5" d="M331.4,171.5c0,0-24,4.1-21.5,9.4l0.8,3.9c0,0-17.4,22-16.5,22.9s32,19.3,33.1,19.3s20.7-35,24.8-41.9
	s4.7-13.2-0.5-16.5s-11-6.3-11-6.3"/>
<g>
	<g>
		<defs>
			<path id="SVGID_11_" d="M331.4,171.5c0,0-24,4.1-21.5,9.4l0.8,3.9c0,0-17.4,22-16.5,22.9s32,19.3,33.1,19.3s20.7-35,24.8-41.9
				s4.7-13.2-0.5-16.5s-11-6.3-11-6.3"/>
		</defs>
		<clipPath id="SVGID_12_">
			<use xlink:href="#SVGID_11_"  style="overflow:visible;"/>
		</clipPath>
		<g class="st18">
			<path class="st4" d="M351.5,168.5c-5.2-3.3-11-6.3-11-6.3l-3.4,3.4c3.4,2.9,9.2,8.3,9.5,11.1c0.4,4.1-5.8,12.3-6.6,14
				s-8.2-11.5-15.2-11.5s0.3,2.6,4,6.6s4.2,10.6,1.3,14.7c-2.7,3.9-31.8,1.9-26.5,12.9c9.5,5.7,22.9,13.5,23.6,13.5
				c1.1,0,20.7-35,24.8-41.9S356.7,171.8,351.5,168.5z"/>
			<path class="st7" d="M351.5,168.5c-5.2-3.3-11-6.3-11-6.3l-3.4,3.4c3.4,2.9,9.2,8.3,9.5,11.1c0.4,4.1-5.8,12.3-6.6,14
				s-8.2-11.5-15.2-11.5s0.3,2.6,4,6.6s4.2,10.6,1.3,14.7c-2.7,3.9-31.8,1.9-26.5,12.9c9.5,5.7,22.9,13.5,23.6,13.5
				c1.1,0,20.7-35,24.8-41.9S356.7,171.8,351.5,168.5z"/>
		</g>
	</g>
</g>
<path class="st9" d="M331.4,171.5c0,0-24,4.1-21.5,9.4l0.8,3.9c0,0-17.4,22-16.5,22.9s32,19.3,33.1,19.3s20.7-35,24.8-41.9
	s4.7-13.2-0.5-16.5s-11-6.3-11-6.3"/>
<path class="st9" d="M314.3,183.1c0,0,8.5-3.3,14.6,2.8s7.2,8.5,7.2,8.5c-0.4-5-2.9-9.6-6.9-12.7"/>
<path class="st5" d="M282.6,220.9c0,0-2.8,3.6-5.5,5c-4.1,2.3-7.6,5.6-10.2,9.6c-3.3,5-7.4,9.4-5,11.3c1.4,1.1,3.2,1.8,5,1.9
	c0,0,1.6,3.9,3.9,4.1c1.1,0.2,2.2,0.2,3.3,0.3c0,0,1.9,1.9,3,1.9h2.8c0,0,1.1,1.4,3.6,0s5-9.6,5.8-12.4s0.8-8.5,0.8-8.5l3.9-5.5
	l-8.8-8.8L282.6,220.9z"/>
<g>
	<g>
		<defs>
			<path id="SVGID_13_" d="M282.6,220.9c0,0-2.8,3.6-5.5,5c-4.1,2.3-7.6,5.6-10.2,9.6c-3.3,5-7.4,9.4-5,11.3c1.4,1.1,3.2,1.8,5,1.9
				c0,0,1.6,3.9,3.9,4.1c1.1,0.2,2.2,0.2,3.3,0.3c0,0,1.9,1.9,3,1.9h2.8c0,0,1.1,1.4,3.6,0s5-9.6,5.8-12.4s0.8-8.5,0.8-8.5l3.9-5.5
				l-8.8-8.8L282.6,220.9z"/>
		</defs>
		<clipPath id="SVGID_14_">
			<use xlink:href="#SVGID_13_"  style="overflow:visible;"/>
		</clipPath>
		<g class="st19">
			<path class="st4" d="M282.6,220.9c-0.7,0.8-1.4,1.7-2.2,2.4l3.9,9.1c0,0-3,14.6-5.1,18.6c-0.9,1.6-2.7,2.3-4.5,2.7
				c0.7,0.7,1.5,1.1,2.4,1.4h2.8c0,0,1.1,1.4,3.6,0s5-9.6,5.8-12.4s0.8-8.5,0.8-8.5l3.9-5.5l-8.8-8.8L282.6,220.9z"/>
			<path class="st7" d="M282.6,220.9c-0.7,0.8-1.4,1.7-2.2,2.4l3.9,9.1c0,0-3,14.6-5.1,18.6c-0.9,1.6-2.7,2.3-4.5,2.7
				c0.7,0.7,1.5,1.1,2.4,1.4h2.8c0,0,1.1,1.4,3.6,0s5-9.6,5.8-12.4s0.8-8.5,0.8-8.5l3.9-5.5l-8.8-8.8L282.6,220.9z"/>
		</g>
	</g>
</g>
<path class="st9" d="M282.6,220.9c0,0-2.8,3.6-5.5,5c-4.1,2.3-7.6,5.6-10.2,9.6c-3.3,5-7.4,9.4-5,11.3c1.4,1.1,3.2,1.8,5,1.9
	c0,0,1.6,3.9,3.9,4.1c1.1,0.2,2.2,0.2,3.3,0.3c0,0,1.9,1.9,3,1.9h2.8c0,0,1.1,1.4,3.6,0s5-9.6,5.8-12.4s0.8-8.5,0.8-8.5l3.9-5.5
	l-8.8-8.8L282.6,220.9z"/>
<path class="st10" d="M293.3,204.3c0,0,32.5,17.1,34.4,18.2s2.8,4.4,2.2,8s3.3,17.1-0.8,17.1s-22-5.5-32.5-11.3
	s-15.7-14.3-15.7-15.4S293.3,204.3,293.3,204.3z"/>
<path class="st5" d="M263.9,70.9l8-8c4.3-4.3-3.2-12.5-5.9-15.6c-6.3-7.1-14.4-12.4-23.3-15.6c-5.4-1.9-17.2-5.6-20.2,1.7l-5.3,12.9
	c0,0,14.4-1.2,26.8,5.3C256.2,58.2,263.9,70.9,263.9,70.9z"/>
<g>
	<g>
		<defs>
			<path id="SVGID_15_" d="M263.9,70.9l8-8c4.3-4.3-3.2-12.5-5.9-15.6c-6.3-7.1-14.4-12.4-23.3-15.6c-5.4-1.9-17.2-5.6-20.2,1.7
				l-5.3,12.9c0,0,14.4-1.2,26.8,5.3C256.2,58.2,263.9,70.9,263.9,70.9z"/>
		</defs>
		<clipPath id="SVGID_16_">
			<use xlink:href="#SVGID_15_"  style="overflow:visible;"/>
		</clipPath>
		<g class="st20">
			<path class="st4" d="M242.6,31.9c-4.6-1.7-13.8-4.5-18.3-0.9c3.6-0.1,9.4,0.9,18,5.3c18.1,9,18.5,11.9,17.3,16.4
				c-0.5,1.9-2.9,4.3-5.4,6.5c3.7,3.5,7,7.4,9.8,11.7l8-8c4.3-4.3-3.2-12.5-5.9-15.6C259.6,40.3,251.5,35,242.6,31.9z"/>
			<path class="st7" d="M242.6,31.9c-4.6-1.7-13.8-4.5-18.3-0.9c3.6-0.1,9.4,0.9,18,5.3c18.1,9,18.5,11.9,17.3,16.4
				c-0.5,1.9-2.9,4.3-5.4,6.5c3.7,3.5,7,7.4,9.8,11.7l8-8c4.3-4.3-3.2-12.5-5.9-15.6C259.6,40.3,251.5,35,242.6,31.9z"/>
		</g>
	</g>
</g>
<path class="st9" d="M263.9,70.9l8-8c4.3-4.3-3.2-12.5-5.9-15.6c-6.3-7.1-14.4-12.4-23.3-15.6c-5.4-1.9-17.2-5.6-20.2,1.7l-5.3,12.9
	c0,0,14.4-1.2,26.8,5.3C256.2,58.2,263.9,70.9,263.9,70.9z"/>
<path class="st5" d="M255.3,75.4c0,0,9.1-7.4,11.8-2.9S263.6,83,258.9,83s-7.1-1.8-7.1-1.8"/>
<g>
	<g>
		<defs>
			<path id="SVGID_17_" d="M255.3,75.4c0,0,9.1-7.4,11.8-2.9S263.6,83,258.9,83s-7.1-1.8-7.1-1.8"/>
		</defs>
		<clipPath id="SVGID_18_">
			<use xlink:href="#SVGID_17_"  style="overflow:visible;"/>
		</clipPath>
		<g class="st21">
			<path class="st4" d="M255.3,75.4c0,0,9.1-7.4,11.8-2.9S263.6,83,258.9,83s-7.1-1.8-7.1-1.8"/>
			<path class="st7" d="M255.3,75.4c0,0,9.1-7.4,11.8-2.9S263.6,83,258.9,83s-7.1-1.8-7.1-1.8"/>
		</g>
	</g>
</g>
<path class="st9" d="M255.3,75.4c0,0,9.1-7.4,11.8-2.9S263.6,83,258.9,83s-7.1-1.8-7.1-1.8"/>
<path class="st5" d="M198.5,242.4h-97.4v106.4c0,6.4,21.9,11.6,48.9,11.6s48.9-5.2,48.9-11.6L198.5,242.4z"/>
<g>
	<g>
		<defs>
			<path id="SVGID_19_" d="M198.5,242.4h-97.4v106.4c0,6.4,21.9,11.6,48.9,11.6s48.9-5.2,48.9-11.6L198.5,242.4z"/>
		</defs>
		<clipPath id="SVGID_20_">
			<use xlink:href="#SVGID_19_"  style="overflow:visible;"/>
		</clipPath>
		<g class="st22">
			<path class="st15" d="M198.5,242.4h-97.4v106.4c0,6.4,21.9,11.6,48.9,11.6s48.9-5.2,48.9-11.6L198.5,242.4z"/>
			<path class="st8" d="M124.3,242.4v116.2c7.4,1,14.9,1.6,22.5,1.7V242.4H124.3z"/>
			<path class="st8" d="M155.2,242.4v117.9c2.4,0,4.7-0.1,7-0.3V242.4H155.2z"/>
			<path class="st5" d="M165.7,242.4v117.4c2.4-0.2,4.8-0.4,7-0.7V242.4H165.7z"/>
		</g>
	</g>
</g>
<path class="st9" d="M198.5,242.4h-97.4v106.4c0,6.4,21.9,11.6,48.9,11.6s48.9-5.2,48.9-11.6L198.5,242.4z"/>
<path class="st5" d="M150.1,225.4c-12.6,0-25.4,0.8-37.7,3.7c-6.9,1.6-19.4,5.1-16.4,15c1.3,4.4,6.4,6.1,10.3,7.5
	c4.8,1.6,9.8,2.6,14.8,3.3c9.6,1.4,19.3,2.1,29,2.1c12.6,0,25.4-0.8,37.7-3.8c5-1.2,11.2-2.5,14.7-6.5c3.1-3.5,2.8-8.9-0.7-12
	c-0.1-0.1-0.2-0.2-0.3-0.3c-4.1-3.1-9.9-4.5-14.9-5.6c-7.9-1.7-16-2.7-24.1-3.1C158.4,225.5,154.2,225.4,150.1,225.4z"/>
<g>
	<g>
		<defs>
			<path id="SVGID_21_" d="M150.1,225.4c-12.6,0-25.4,0.8-37.7,3.7c-6.9,1.6-19.4,5.1-16.4,15c1.3,4.4,6.4,6.1,10.3,7.5
				c4.8,1.6,9.8,2.6,14.8,3.3c9.6,1.4,19.3,2.1,29,2.1c12.6,0,25.4-0.8,37.7-3.8c5-1.2,11.2-2.5,14.7-6.5c3.1-3.5,2.8-8.9-0.7-12
				c-0.1-0.1-0.2-0.2-0.3-0.3c-4.1-3.1-9.9-4.5-14.9-5.6c-7.9-1.7-16-2.7-24.1-3.1C158.4,225.5,154.2,225.4,150.1,225.4z"/>
		</defs>
		<clipPath id="SVGID_22_">
			<use xlink:href="#SVGID_21_"  style="overflow:visible;"/>
		</clipPath>
		<g class="st23">
			<path class="st15" d="M150.1,225.4c-12.6,0-25.4,0.8-37.7,3.7c-6.9,1.6-19.4,5.1-16.4,15c1.3,4.4,6.4,6.1,10.3,7.5
				c4.8,1.6,9.8,2.6,14.8,3.3c9.6,1.4,19.3,2.1,29,2.1c12.6,0,25.4-0.8,37.7-3.8c5-1.2,11.2-2.5,14.7-6.5c3.1-3.5,2.8-8.9-0.7-12
				c-0.1-0.1-0.2-0.2-0.3-0.3c-4.1-3.1-9.9-4.5-14.9-5.6c-7.9-1.7-16-2.7-24.1-3.1C158.4,225.5,154.2,225.4,150.1,225.4z"/>
		</g>
	</g>
</g>
<path class="st9" d="M150.1,225.4c-12.6,0-25.4,0.8-37.7,3.7c-6.9,1.6-19.4,5.1-16.4,15c1.3,4.4,6.4,6.1,10.3,7.5
	c4.8,1.6,9.8,2.6,14.8,3.3c9.6,1.4,19.3,2.1,29,2.1c12.6,0,25.4-0.8,37.7-3.8c5-1.2,11.2-2.5,14.7-6.5c3.1-3.5,2.8-8.9-0.7-12
	c-0.1-0.1-0.2-0.2-0.3-0.3c-4.1-3.1-9.9-4.5-14.9-5.6c-7.9-1.7-16-2.7-24.1-3.1C158.4,225.5,154.2,225.4,150.1,225.4z"/>
<ellipse class="st5" cx="150.1" cy="238.6" rx="48.9" ry="10.4"/>
<g>
	<g>
		<defs>
			<ellipse id="SVGID_23_" cx="150.1" cy="238.6" rx="48.9" ry="10.4"/>
		</defs>
		<clipPath id="SVGID_24_">
			<use xlink:href="#SVGID_23_"  style="overflow:visible;"/>
		</clipPath>
		<g class="st24">
			<ellipse class="st25" cx="150.1" cy="238.6" rx="48.9" ry="10.4"/>
		</g>
	</g>
</g>
<ellipse class="st9" cx="150.1" cy="238.6" rx="48.9" ry="10.4"/>
<path class="st8" d="M102.3,271.3c0,0-7.2-12.1-5-16s11.9-0.3,14.6,3.3c2.7,3.6,5.2,13.5,3.9,13.8s-3.6,0.5-4.1-1.4
	s-3.3-10.2-5-11.3s-5.5-3.3-5.5-0.8s4.1,11,3.6,12.4S104,273,102.3,271.3z"/>
<path class="st5" d="M291.3,265.6H213V351c0,5.1,17.6,9.3,39.3,9.3s39.3-4.2,39.3-9.3L291.3,265.6z"/>
<g>
	<g>
		<defs>
			<path id="SVGID_25_" d="M291.3,265.6H213V351c0,5.1,17.6,9.3,39.3,9.3s39.3-4.2,39.3-9.3L291.3,265.6z"/>
		</defs>
		<clipPath id="SVGID_26_">
			<use xlink:href="#SVGID_25_"  style="overflow:visible;"/>
		</clipPath>
		<g class="st26">
			<path class="st15" d="M291.3,265.6H213V351c0,5.1,17.6,9.3,39.3,9.3s39.3-4.2,39.3-9.3L291.3,265.6z"/>
		</g>
	</g>
</g>
<path class="st9" d="M291.3,265.6H213V351c0,5.1,17.6,9.3,39.3,9.3s39.3-4.2,39.3-9.3L291.3,265.6z"/>
<path class="st8" d="M231.7,265.6V359c6,0.8,12,1.3,18,1.4v-94.7h-18V265.6z"/>
<path class="st8" d="M256.5,265.6v94.7c1.9-0.1,3.8-0.1,5.6-0.2v-94.5L256.5,265.6L256.5,265.6z"/>
<path class="st5" d="M264.9,265.6v94.3c2-0.2,3.8-0.4,5.6-0.6v-93.7L264.9,265.6L264.9,265.6z"/>
<path class="st5" d="M252.3,251.9c-10.1,0-20.4,0.7-30.3,3c-5.5,1.3-15.6,4.1-13.2,12c1,3.5,5.1,4.9,8.3,6c3.9,1.3,7.8,2.2,11.9,2.7
	c7.7,1.2,15.5,1.7,23.3,1.7c10.1,0,20.4-0.7,30.3-3c4-1,9-2,11.8-5.3c2.5-2.8,2.3-7.1-0.5-9.6c-0.1-0.1-0.2-0.1-0.3-0.2
	c-3.3-2.5-8-3.6-11.9-4.5c-6.4-1.4-12.8-2.2-19.3-2.5C259,252,255.7,251.9,252.3,251.9z"/>
<g>
	<g>
		<defs>
			<path id="SVGID_27_" d="M252.3,251.9c-10.1,0-20.4,0.7-30.3,3c-5.5,1.3-15.6,4.1-13.2,12c1,3.5,5.1,4.9,8.3,6
				c3.9,1.3,7.8,2.2,11.9,2.7c7.7,1.2,15.5,1.7,23.3,1.7c10.1,0,20.4-0.7,30.3-3c4-1,9-2,11.8-5.3c2.5-2.8,2.3-7.1-0.5-9.6
				c-0.1-0.1-0.2-0.1-0.3-0.2c-3.3-2.5-8-3.6-11.9-4.5c-6.4-1.4-12.8-2.2-19.3-2.5C259,252,255.7,251.9,252.3,251.9z"/>
		</defs>
		<clipPath id="SVGID_28_">
			<use xlink:href="#SVGID_27_"  style="overflow:visible;"/>
		</clipPath>
		<g class="st27">
			<path class="st15" d="M252.3,251.9c-10.1,0-20.4,0.7-30.3,3c-5.5,1.3-15.6,4.1-13.2,12c1,3.5,5.1,4.9,8.3,6
				c3.9,1.3,7.8,2.2,11.9,2.7c7.7,1.2,15.5,1.7,23.3,1.7c10.1,0,20.4-0.7,30.3-3c4-1,9-2,11.8-5.3c2.5-2.8,2.3-7.1-0.5-9.6
				c-0.1-0.1-0.2-0.1-0.3-0.2c-3.3-2.5-8-3.6-11.9-4.5c-6.4-1.4-12.8-2.2-19.3-2.5C259,252,255.7,251.9,252.3,251.9z"/>
		</g>
	</g>
</g>
<path class="st9" d="M252.3,251.9c-10.1,0-20.4,0.7-30.3,3c-5.5,1.3-15.6,4.1-13.2,12c1,3.5,5.1,4.9,8.3,6c3.9,1.3,7.8,2.2,11.9,2.7
	c7.7,1.2,15.5,1.7,23.3,1.7c10.1,0,20.4-0.7,30.3-3c4-1,9-2,11.8-5.3c2.5-2.8,2.3-7.1-0.5-9.6c-0.1-0.1-0.2-0.1-0.3-0.2
	c-3.3-2.5-8-3.6-11.9-4.5c-6.4-1.4-12.8-2.2-19.3-2.5C259,252,255.7,251.9,252.3,251.9z"/>
<ellipse class="st5" cx="252.3" cy="262.6" rx="39.2" ry="8.4"/>
<g>
	<g>
		<defs>
			<ellipse id="SVGID_29_" cx="252.3" cy="262.6" rx="39.2" ry="8.4"/>
		</defs>
		<clipPath id="SVGID_30_">
			<use xlink:href="#SVGID_29_"  style="overflow:visible;"/>
		</clipPath>
		<g class="st28">
			<ellipse class="st25" cx="252.3" cy="262.6" rx="39.2" ry="8.4"/>
		</g>
	</g>
</g>
<ellipse class="st9" cx="252.3" cy="262.6" rx="39.2" ry="8.4"/>
<path class="st8" d="M214,288.8c0,0-5.8-9.7-4-12.8s9.5-0.2,11.7,2.6s4.2,10.9,3.1,11.1s-2.9,0.5-3.3-1.1s-2.7-8.2-4-9.1
	s-4.4-2.7-4.4-0.7s3.3,8.9,2.9,10S215.3,290.2,214,288.8z"/>
<path class="st9" d="M124.6,193.6c0,6.2,5.6,6.2,5.6,12.4s-5.6,6.2-5.6,12.4s5.6,6.2,5.6,12.4s-5.6,6.2-5.6,12.4"/>
<path class="st9" d="M130.2,181.2c0,3.9-2.2,5.3-3.9,7.4"/>
<path class="st9" d="M150.7,193.1c0,5-5.6,5-5.6,10s5.6,5,5.6,10s-5.6,5-5.6,10s5.6,5,5.6,10s-5.6,5-5.6,10"/>
<path class="st9" d="M171.2,181.2c0,6.2-5.6,6.2-5.6,12.4s5.6,6.2,5.6,12.4s-5.6,6.2-5.6,12.4s5.6,6.2,5.6,12.4s-5.6,6.2-5.6,12.4"
	/>
<path class="st9" d="M237.3,232.4c0.5,0.9,0.7,1.8,0.7,2.8c0,4.7-4.2,4.7-4.2,9.3s4.2,4.7,4.2,9.3c0,4.6-4.2,4.7-4.2,9.4"/>
<path class="st9" d="M253.4,225.4c0,3.8-4.2,3.8-4.2,7.5s4.2,3.8,4.2,7.5s-4.2,3.8-4.2,7.5s4.2,3.8,4.2,7.5c0,3.7-4.2,3.8-4.2,7.5"
	/>
<path class="st9" d="M266.9,239.7c-1.1,1.2-2.3,2.4-2.3,4.8c0,4.7,4.2,4.7,4.2,9.3c0,4.6-4.2,4.7-4.2,9.4"/>
</svg>
