<?xml version="1.0" encoding="utf-8"?>
<!-- Generator: Adobe Illustrator 24.0.1, SVG Export Plug-In . SVG Version: 6.00 Build 0)  -->
<svg version="1.1" id="Layer_1" xmlns="http://www.w3.org/2000/svg" xmlns:xlink="http://www.w3.org/1999/xlink" x="0px" y="0px"
	 viewBox="0 0 455 435" style="enable-background:new 0 0 455 435;" xml:space="preserve">
<style type="text/css">
	.st0{fill:#EF233C;}
	.st1{fill:none;stroke:#2B2D42;stroke-linecap:round;stroke-linejoin:round;}
	.st2{fill:#2B2D42;stroke:#2B2D42;stroke-linecap:round;stroke-linejoin:round;}
	.st3{fill:none;stroke:#2B2D42;stroke-width:2;stroke-linecap:round;stroke-linejoin:round;}
	.st4{fill:#FFFFFF;stroke:#2B2D42;stroke-linecap:round;stroke-linejoin:round;}
	.st5{fill:#8D99AE;stroke:#2B2D42;stroke-linecap:round;stroke-linejoin:round;}
	.st6{fill:#2B2D42;}
	.st7{clip-path:url(#SVGID_2_);}
	.st8{fill:none;stroke:#8D99AE;stroke-linecap:round;stroke-linejoin:round;}
	.st9{fill:#FFFFFF;}
	.st10{clip-path:url(#SVGID_4_);}
	.st11{opacity:0.1;fill:#2B2D42;enable-background:new    ;}
	.st12{clip-path:url(#SVGID_6_);}
	.st13{fill:#8D99AE;}
	.st14{clip-path:url(#SVGID_8_);}
	.st15{fill:#EF233C;stroke:#2B2D42;stroke-linecap:round;stroke-linejoin:round;}
	.st16{clip-path:url(#SVGID_10_);}
	.st17{clip-path:url(#SVGID_12_);}
	.st18{clip-path:url(#SVGID_14_);}
	.st19{clip-path:url(#SVGID_16_);}
	.st20{fill:none;stroke:#2B2D42;stroke-width:3;stroke-linecap:round;stroke-linejoin:round;}
	.st21{clip-path:url(#SVGID_18_);}
</style>
<path class="st0" d="M307,8.5c0,0-73.4-21.6-146,22.1S51.5,155.9,19.8,221.4S5.7,350.9,60.6,377.9s105.7,56.5,183.1,50.6
	s94,3.2,158.5-42.1s68-220.1,17.8-291.3S307,8.5,307,8.5z"/>
<line class="st1" x1="25.1" y1="364.8" x2="439.1" y2="364.8"/>
<line class="st1" x1="25.1" y1="374.3" x2="439.1" y2="374.3"/>
<path class="st1" d="M30.9,205.7h23.7c2.3,0,4.1,1.8,4.1,4.1v23.7c0,2.3-1.8,4.1-4.1,4.1H30.9c-2.3,0-4.1-1.8-4.1-4.1v-23.7
	C26.8,207.5,28.6,205.7,30.9,205.7z"/>
<path class="st1" d="M65.6,205.7h23.7c2.3,0,4.1,1.8,4.1,4.1v23.7c0,2.3-1.8,4.1-4.1,4.1H65.6c-2.3,0-4.1-1.8-4.1-4.1v-23.7
	C61.5,207.5,63.4,205.7,65.6,205.7z"/>
<path class="st1" d="M100.3,205.7H124c2.3,0,4.1,1.8,4.1,4.1v23.7c0,2.3-1.8,4.1-4.1,4.1h-23.7c-2.3,0-4.1-1.8-4.1-4.1v-23.7
	C96.2,207.5,98.1,205.7,100.3,205.7z"/>
<path class="st1" d="M135,205.7h23.7c2.3,0,4.1,1.8,4.1,4.1v23.7c0,2.3-1.8,4.1-4.1,4.1H135c-2.3,0-4.1-1.8-4.1-4.1v-23.7
	C130.9,207.5,132.8,205.7,135,205.7z"/>
<path class="st1" d="M169.8,205.7h23.7c2.3,0,4.1,1.8,4.1,4.1v23.7c0,2.3-1.8,4.1-4.1,4.1h-23.7c-2.3,0-4.1-1.8-4.1-4.1v-23.7
	C165.6,207.5,167.5,205.7,169.8,205.7z"/>
<path class="st1" d="M204.5,205.7h23.7c2.3,0,4.1,1.8,4.1,4.1v23.7c0,2.3-1.8,4.1-4.1,4.1h-23.7c-2.3,0-4.1-1.8-4.1-4.1v-23.7
	C200.3,207.5,202.2,205.7,204.5,205.7z"/>
<path class="st1" d="M239.2,205.7h23.7c2.3,0,4.1,1.8,4.1,4.1v23.7c0,2.3-1.8,4.1-4.1,4.1h-23.7c-2.3,0-4.1-1.8-4.1-4.1v-23.7
	C235,207.5,236.9,205.7,239.2,205.7z"/>
<path class="st1" d="M273.9,205.7h23.7c2.3,0,4.1,1.8,4.1,4.1v23.7c0,2.3-1.8,4.1-4.1,4.1h-23.7c-2.3,0-4.1-1.8-4.1-4.1v-23.7
	C269.7,207.5,271.6,205.7,273.9,205.7z"/>
<path class="st1" d="M308.6,205.7h23.7c2.3,0,4.1,1.8,4.1,4.1v23.7c0,2.3-1.8,4.1-4.1,4.1h-23.7c-2.3,0-4.1-1.8-4.1-4.1v-23.7
	C304.5,207.5,306.3,205.7,308.6,205.7z"/>
<path class="st1" d="M343.3,205.7H367c2.3,0,4.1,1.8,4.1,4.1v23.7c0,2.3-1.8,4.1-4.1,4.1h-23.7c-2.3,0-4.1-1.8-4.1-4.1v-23.7
	C339.2,207.5,341,205.7,343.3,205.7z"/>
<path class="st1" d="M378,205.7h23.7c2.3,0,4.1,1.8,4.1,4.1v23.7c0,2.3-1.8,4.1-4.1,4.1H378c-2.3,0-4.1-1.8-4.1-4.1v-23.7
	C373.9,207.5,375.7,205.7,378,205.7z"/>
<path class="st1" d="M412.7,205.7h23.7c2.3,0,4.1,1.8,4.1,4.1v23.7c0,2.3-1.8,4.1-4.1,4.1h-23.7c-2.3,0-4.1-1.8-4.1-4.1v-23.7
	C408.6,207.5,410.4,205.7,412.7,205.7z"/>
<path class="st1" d="M30.9,239.9h23.7c2.3,0,4.1,1.8,4.1,4.1v23.7c0,2.3-1.8,4.1-4.1,4.1H30.9c-2.3,0-4.1-1.8-4.1-4.1V244
	C26.8,241.7,28.6,239.9,30.9,239.9z"/>
<path class="st1" d="M65.6,239.9h23.7c2.3,0,4.1,1.8,4.1,4.1v23.7c0,2.3-1.8,4.1-4.1,4.1H65.6c-2.3,0-4.1-1.8-4.1-4.1V244
	C61.5,241.7,63.4,239.9,65.6,239.9z"/>
<path class="st1" d="M100.3,239.9H124c2.3,0,4.1,1.8,4.1,4.1v23.7c0,2.3-1.8,4.1-4.1,4.1h-23.7c-2.3,0-4.1-1.8-4.1-4.1V244
	C96.2,241.7,98.1,239.9,100.3,239.9z"/>
<path class="st1" d="M135,239.9h23.7c2.3,0,4.1,1.8,4.1,4.1v23.7c0,2.3-1.8,4.1-4.1,4.1H135c-2.3,0-4.1-1.8-4.1-4.1V244
	C130.9,241.7,132.8,239.9,135,239.9z"/>
<path class="st1" d="M169.8,239.9h23.7c2.3,0,4.1,1.8,4.1,4.1v23.7c0,2.3-1.8,4.1-4.1,4.1h-23.7c-2.3,0-4.1-1.8-4.1-4.1V244
	C165.6,241.7,167.5,239.9,169.8,239.9z"/>
<path class="st1" d="M204.5,239.9h23.7c2.3,0,4.1,1.8,4.1,4.1v23.7c0,2.3-1.8,4.1-4.1,4.1h-23.7c-2.3,0-4.1-1.8-4.1-4.1V244
	C200.3,241.7,202.2,239.9,204.5,239.9z"/>
<path class="st1" d="M239.2,239.9h23.7c2.3,0,4.1,1.8,4.1,4.1v23.7c0,2.3-1.8,4.1-4.1,4.1h-23.7c-2.3,0-4.1-1.8-4.1-4.1V244
	C235,241.7,236.9,239.9,239.2,239.9z"/>
<path class="st1" d="M273.9,239.9h23.7c2.3,0,4.1,1.8,4.1,4.1v23.7c0,2.3-1.8,4.1-4.1,4.1h-23.7c-2.3,0-4.1-1.8-4.1-4.1V244
	C269.7,241.7,271.6,239.9,273.9,239.9z"/>
<path class="st1" d="M308.6,239.9h23.7c2.3,0,4.1,1.8,4.1,4.1v23.7c0,2.3-1.8,4.1-4.1,4.1h-23.7c-2.3,0-4.1-1.8-4.1-4.1V244
	C304.5,241.7,306.3,239.9,308.6,239.9z"/>
<path class="st1" d="M343.3,239.9H367c2.3,0,4.1,1.8,4.1,4.1v23.7c0,2.3-1.8,4.1-4.1,4.1h-23.7c-2.3,0-4.1-1.8-4.1-4.1V244
	C339.2,241.7,341,239.9,343.3,239.9z"/>
<path class="st1" d="M378,239.9h23.7c2.3,0,4.1,1.8,4.1,4.1v23.7c0,2.3-1.8,4.1-4.1,4.1H378c-2.3,0-4.1-1.8-4.1-4.1V244
	C373.9,241.7,375.7,239.9,378,239.9z"/>
<path class="st1" d="M412.7,239.9h23.7c2.3,0,4.1,1.8,4.1,4.1v23.7c0,2.3-1.8,4.1-4.1,4.1h-23.7c-2.3,0-4.1-1.8-4.1-4.1V244
	C408.6,241.7,410.4,239.9,412.7,239.9z"/>
<path class="st1" d="M30.9,274.1h23.7c2.3,0,4.1,1.8,4.1,4.1V302c0,2.3-1.8,4.1-4.1,4.1H30.9c-2.3,0-4.1-1.8-4.1-4.1v-23.7
	C26.8,275.9,28.6,274.1,30.9,274.1z"/>
<path class="st1" d="M65.6,274.1h23.7c2.3,0,4.1,1.8,4.1,4.1V302c0,2.3-1.8,4.1-4.1,4.1H65.6c-2.3,0-4.1-1.8-4.1-4.1v-23.7
	C61.5,275.9,63.4,274.1,65.6,274.1z"/>
<path class="st1" d="M100.3,274.1H124c2.3,0,4.1,1.8,4.1,4.1V302c0,2.3-1.8,4.1-4.1,4.1h-23.7c-2.3,0-4.1-1.8-4.1-4.1v-23.7
	C96.2,275.9,98.1,274.1,100.3,274.1z"/>
<path class="st1" d="M135,274.1h23.7c2.3,0,4.1,1.8,4.1,4.1V302c0,2.3-1.8,4.1-4.1,4.1H135c-2.3,0-4.1-1.8-4.1-4.1v-23.7
	C130.9,275.9,132.8,274.1,135,274.1z"/>
<path class="st1" d="M169.8,274.1h23.7c2.3,0,4.1,1.8,4.1,4.1V302c0,2.3-1.8,4.1-4.1,4.1h-23.7c-2.3,0-4.1-1.8-4.1-4.1v-23.7
	C165.6,275.9,167.5,274.1,169.8,274.1z"/>
<path class="st1" d="M204.5,274.1h23.7c2.3,0,4.1,1.8,4.1,4.1V302c0,2.3-1.8,4.1-4.1,4.1h-23.7c-2.3,0-4.1-1.8-4.1-4.1v-23.7
	C200.3,275.9,202.2,274.1,204.5,274.1z"/>
<path class="st1" d="M239.2,274.1h23.7c2.3,0,4.1,1.8,4.1,4.1V302c0,2.3-1.8,4.1-4.1,4.1h-23.7c-2.3,0-4.1-1.8-4.1-4.1v-23.7
	C235,275.9,236.9,274.1,239.2,274.1z"/>
<path class="st1" d="M273.9,274.1h23.7c2.3,0,4.1,1.8,4.1,4.1V302c0,2.3-1.8,4.1-4.1,4.1h-23.7c-2.3,0-4.1-1.8-4.1-4.1v-23.7
	C269.7,275.9,271.6,274.1,273.9,274.1z"/>
<path class="st1" d="M308.6,274.1h23.7c2.3,0,4.1,1.8,4.1,4.1V302c0,2.3-1.8,4.1-4.1,4.1h-23.7c-2.3,0-4.1-1.8-4.1-4.1v-23.7
	C304.5,275.9,306.3,274.1,308.6,274.1z"/>
<path class="st1" d="M343.3,274.1H367c2.3,0,4.1,1.8,4.1,4.1V302c0,2.3-1.8,4.1-4.1,4.1h-23.7c-2.3,0-4.1-1.8-4.1-4.1v-23.7
	C339.2,275.9,341,274.1,343.3,274.1z"/>
<path class="st1" d="M378,274.1h23.7c2.3,0,4.1,1.8,4.1,4.1V302c0,2.3-1.8,4.1-4.1,4.1H378c-2.3,0-4.1-1.8-4.1-4.1v-23.7
	C373.9,275.9,375.7,274.1,378,274.1z"/>
<path class="st1" d="M412.7,274.1h23.7c2.3,0,4.1,1.8,4.1,4.1V302c0,2.3-1.8,4.1-4.1,4.1h-23.7c-2.3,0-4.1-1.8-4.1-4.1v-23.7
	C408.6,275.9,410.4,274.1,412.7,274.1z"/>
<path class="st1" d="M30.9,308.3h23.7c2.3,0,4.1,1.8,4.1,4.1v23.7c0,2.3-1.8,4.1-4.1,4.1H30.9c-2.3,0-4.1-1.8-4.1-4.1v-23.7
	C26.8,310.1,28.6,308.3,30.9,308.3z"/>
<path class="st1" d="M65.6,308.3h23.7c2.3,0,4.1,1.8,4.1,4.1v23.7c0,2.3-1.8,4.1-4.1,4.1H65.6c-2.3,0-4.1-1.8-4.1-4.1v-23.7
	C61.5,310.1,63.4,308.3,65.6,308.3z"/>
<path class="st1" d="M100.3,308.3H124c2.3,0,4.1,1.8,4.1,4.1v23.7c0,2.3-1.8,4.1-4.1,4.1h-23.7c-2.3,0-4.1-1.8-4.1-4.1v-23.7
	C96.2,310.1,98.1,308.3,100.3,308.3z"/>
<path class="st1" d="M135,308.3h23.7c2.3,0,4.1,1.8,4.1,4.1v23.7c0,2.3-1.8,4.1-4.1,4.1H135c-2.3,0-4.1-1.8-4.1-4.1v-23.7
	C130.9,310.1,132.8,308.3,135,308.3z"/>
<path class="st1" d="M169.8,308.3h23.7c2.3,0,4.1,1.8,4.1,4.1v23.7c0,2.3-1.8,4.1-4.1,4.1h-23.7c-2.3,0-4.1-1.8-4.1-4.1v-23.7
	C165.6,310.1,167.5,308.3,169.8,308.3z"/>
<path class="st1" d="M204.5,308.3h23.7c2.3,0,4.1,1.8,4.1,4.1v23.7c0,2.3-1.8,4.1-4.1,4.1h-23.7c-2.3,0-4.1-1.8-4.1-4.1v-23.7
	C200.3,310.1,202.2,308.3,204.5,308.3z"/>
<path class="st1" d="M239.2,308.3h23.7c2.3,0,4.1,1.8,4.1,4.1v23.7c0,2.3-1.8,4.1-4.1,4.1h-23.7c-2.3,0-4.1-1.8-4.1-4.1v-23.7
	C235,310.1,236.9,308.3,239.2,308.3z"/>
<path class="st1" d="M273.9,308.3h23.7c2.3,0,4.1,1.8,4.1,4.1v23.7c0,2.3-1.8,4.1-4.1,4.1h-23.7c-2.3,0-4.1-1.8-4.1-4.1v-23.7
	C269.7,310.1,271.6,308.3,273.9,308.3z"/>
<path class="st1" d="M308.6,308.3h23.7c2.3,0,4.1,1.8,4.1,4.1v23.7c0,2.3-1.8,4.1-4.1,4.1h-23.7c-2.3,0-4.1-1.8-4.1-4.1v-23.7
	C304.5,310.1,306.3,308.3,308.6,308.3z"/>
<path class="st1" d="M343.3,308.3H367c2.3,0,4.1,1.8,4.1,4.1v23.7c0,2.3-1.8,4.1-4.1,4.1h-23.7c-2.3,0-4.1-1.8-4.1-4.1v-23.7
	C339.2,310.1,341,308.3,343.3,308.3z"/>
<path class="st1" d="M378,308.3h23.7c2.3,0,4.1,1.8,4.1,4.1v23.7c0,2.3-1.8,4.1-4.1,4.1H378c-2.3,0-4.1-1.8-4.1-4.1v-23.7
	C373.9,310.1,375.7,308.3,378,308.3z"/>
<path class="st1" d="M412.7,308.3h23.7c2.3,0,4.1,1.8,4.1,4.1v23.7c0,2.3-1.8,4.1-4.1,4.1h-23.7c-2.3,0-4.1-1.8-4.1-4.1v-23.7
	C408.6,310.1,410.4,308.3,412.7,308.3z"/>
<line class="st1" x1="98.5" y1="191" x2="98.5" y2="36.7"/>
<rect x="103.3" y="148.5" class="st2" width="5.5" height="32"/>
<rect x="88.3" y="148.5" class="st2" width="5.5" height="32"/>
<line class="st3" x1="25.1" y1="191" x2="439.1" y2="191"/>
<line class="st1" x1="345.2" y1="191" x2="345.2" y2="36.7"/>
<rect x="336.2" y="148.5" class="st2" width="5.5" height="32"/>
<rect x="349.5" y="148.5" class="st2" width="5.5" height="32"/>
<path class="st4" d="M104.1,321.6h12.3c2.3,0,4.1,1.8,4.1,4.1v38.6l0,0H100l0,0v-38.6C100,323.4,101.9,321.6,104.1,321.6z"/>
<path class="st4" d="M104.1,321.6h12.3c2.3,0,4.1,1.8,4.1,4.1v7.1l0,0H100l0,0v-7.1C100,323.4,101.9,321.6,104.1,321.6z"/>
<line class="st1" x1="104.3" y1="334.4" x2="104.3" y2="360.1"/>
<line class="st1" x1="110.8" y1="334.4" x2="110.8" y2="360.1"/>
<path class="st4" d="M335.4,309.3H433c1.7,0,3.1,1.4,3.1,3.1v49.2c0,1.7-1.4,3.1-3.1,3.1h-97.6c-1.7,0-3.1-1.4-3.1-3.1v-49.2
	C332.3,310.7,333.7,309.3,335.4,309.3z"/>
<rect x="410.7" y="312.8" class="st5" width="21.5" height="11.5"/>
<path class="st4" d="M415.6,335.1c0,1.5-1.2,2.8-2.8,2.8s-2.8-1.2-2.8-2.8s1.2-2.8,2.8-2.8l0,0C414.3,332.3,415.6,333.6,415.6,335.1
	z"/>
<circle class="st4" cx="421.5" cy="335.1" r="2.8"/>
<circle class="st4" cx="430.3" cy="335.1" r="2.8"/>
<path class="st4" d="M415.6,345.5c0,1.5-1.2,2.8-2.7,2.8s-2.8-1.2-2.8-2.7s1.2-2.8,2.7-2.8l0,0C414.3,342.8,415.5,344,415.6,345.5z"
	/>
<path class="st4" d="M424.3,345.5c0,1.5-1.2,2.8-2.7,2.8s-2.8-1.2-2.8-2.7s1.2-2.8,2.7-2.8l0,0C423.1,342.8,424.3,344,424.3,345.5z"
	/>
<path class="st4" d="M433,345.5c0,1.5-1.2,2.8-2.7,2.8s-2.8-1.2-2.8-2.7s1.2-2.8,2.7-2.8l0,0C431.8,342.8,433,344,433,345.5z"/>
<path class="st4" d="M415.6,356.1c0,1.5-1.2,2.8-2.8,2.8s-2.8-1.2-2.8-2.8s1.2-2.8,2.8-2.8l0,0C414.3,353.3,415.6,354.6,415.6,356.1
	z"/>
<path class="st4" d="M424.3,356.1c0,1.5-1.2,2.8-2.8,2.7c-1.5,0-2.7-1.2-2.7-2.8c0-1.5,1.2-2.8,2.8-2.8l0,0
	C423.1,353.3,424.3,354.6,424.3,356.1z"/>
<path class="st4" d="M433,356.1c0,1.5-1.2,2.8-2.8,2.7c-1.5,0-2.7-1.2-2.7-2.8c0-1.5,1.2-2.8,2.8-2.8l0,0
	C431.8,353.3,433,354.6,433,356.1z"/>
<path class="st5" d="M402.2,336.6c0,13.4-1,24.2-2.3,24.2s-2.2-10.8-2.2-24.2s1-24.2,2.2-24.2S402.2,323.2,402.2,336.6z"/>
<path class="st5" d="M388.9,314.4c-1.5-0.1-2.9-0.1-4.4-0.1c-25.8,0-46.7,10.3-46.7,23s20.9,23,46.7,23c1.5,0,3,0,4.4-0.1V314.4z"/>
<rect x="50.1" y="314.8" class="st2" width="24" height="7.5"/>
<polygon class="st4" points="41.5,320.3 83.1,320.3 92.1,354.5 32.6,354.5 "/>
<rect x="32.6" y="354.2" class="st2" width="59.4" height="10.5"/>
<path class="st5" d="M83.3,321.1l-0.2-0.8H41.5l-0.2,0.8c3,13.5,11.3,23.2,21,23.2S80.3,334.6,83.3,321.1z"/>
<rect x="48.6" y="345.3" class="st4" width="3.5" height="6.5"/>
<rect x="56.6" y="345.3" class="st4" width="3.5" height="6.5"/>
<rect x="64.6" y="345.3" class="st4" width="3.5" height="6.5"/>
<rect x="72.6" y="345.3" class="st4" width="3.5" height="6.5"/>
<path class="st6" d="M197.2,58.2c0,0-21.4,7.3-26.6,20.2s7.9,21.4,11.5,23.5s6.3,13,3.3,26.9s-12.1,19-18.4,18.4s-7.6-1.2-7.6-1.2
	s0.9,16.3,16.9,23.5s23,4.5,23,4.5s27.5,8.4,41.4,6s20.5-6.6,20.5-6.6s7.5,3.3,18.4-2.4s14.8-14.5,14.8-14.5s-15.7-0.3-12.1-16.6
	s4.5-47.7-13-66.7S218.4,44.3,197.2,58.2z"/>
<g>
	<g>
		<defs>
			<path id="SVGID_1_" d="M197.2,58.2c0,0-21.4,7.3-26.6,20.2s7.9,21.4,11.5,23.5s6.3,13,3.3,26.9s-12.1,19-18.4,18.4
				s-7.6-1.2-7.6-1.2s0.9,16.3,16.9,23.5s23,4.5,23,4.5s27.5,8.4,41.4,6s20.5-6.6,20.5-6.6s7.5,3.3,18.4-2.4s14.8-14.5,14.8-14.5
				s-15.7-0.3-12.1-16.6s4.5-47.7-13-66.7S218.4,44.3,197.2,58.2z"/>
		</defs>
		<clipPath id="SVGID_2_">
			<use xlink:href="#SVGID_1_"  style="overflow:visible;"/>
		</clipPath>
		<g class="st7">
			<path class="st8" d="M218.9,65.8c0,0,9,31.1,28,41.5s32,23,32,34.3s0.5,28.4,21.2,21.2"/>
			<path class="st8" d="M224.8,59c0,0,25.3,7.7,37.9,26.2s8.5,27.5,13.5,37.9s12.2,10.4,12.2,10.4"/>
			<path class="st8" d="M222.1,62.1c0,0,21.6,10.8,29.8,27.1"/>
			<path class="st8" d="M211.2,73c0,0-1.8-14.4,13.1-16.2"/>
			<path class="st8" d="M181.5,97.8c0,0-14.4-6.8-6.3-17.6s32.9-9.9,32.9-9.9"/>
			<path class="st8" d="M205.4,79.7c0,0-24.4,7.7-24.8,9.5s2.7,1.8,2.7,1.8"/>
			<path class="st8" d="M214.4,61.2c0,0-3.2-4.1-16.7-1.3"/>
			<path class="st8" d="M161.2,161.4c0,0,23.4,5,32.9-23.4"/>
			<path class="st8" d="M178.3,173.1c0,0,17.6,0,22.1-18.9"/>
			<path class="st8" d="M256.8,142.4c0,0-3.2,33.4,18,37"/>
		</g>
	</g>
</g>
<path class="st1" d="M197.2,58.2c0,0-21.4,7.3-26.6,20.2s7.9,21.4,11.5,23.5s6.3,13,3.3,26.9s-12.1,19-18.4,18.4s-7.6-1.2-7.6-1.2
	s0.9,16.3,16.9,23.5s23,4.5,23,4.5s27.5,8.4,41.4,6s20.5-6.6,20.5-6.6s7.5,3.3,18.4-2.4s14.8-14.5,14.8-14.5s-15.7-0.3-12.1-16.6
	s4.5-47.7-13-66.7S218.4,44.3,197.2,58.2z"/>
<path class="st9" d="M181.2,193.4c0,0-15.3-1.3-23,7.4s-44.4,67.1-52.7,79s-8.3,32.9,7,35.8s30-14.4,36.4-22.4
	c3.2-4.2,6.8-8.1,10.6-11.8c0,0-2.9-12.1,5.8-31.6s14.7-34.8,17.6-43.1S181.2,193.4,181.2,193.4z"/>
<g>
	<g>
		<defs>
			<path id="SVGID_3_" d="M181.2,193.4c0,0-15.3-1.3-23,7.4s-44.4,67.1-52.7,79s-8.3,32.9,7,35.8s30-14.4,36.4-22.4
				c3.2-4.2,6.8-8.1,10.6-11.8c0,0-2.9-12.1,5.8-31.6s14.7-34.8,17.6-43.1S181.2,193.4,181.2,193.4z"/>
		</defs>
		<clipPath id="SVGID_4_">
			<use xlink:href="#SVGID_3_"  style="overflow:visible;"/>
		</clipPath>
		<g class="st10">
			<path class="st11" d="M169.2,240.6l4.6-31c0,0-34.3,65.3-43.9,78.9c-5.8,8.2-15.4,18.9-18.5,26.7c0.4,0.1,0.8,0.2,1.1,0.3
				c15.4,2.9,30-14.4,36.4-22.4c3.2-4.2,6.8-8.1,10.6-11.8c0,0-2.9-12.1,5.8-31.6C166.6,246.5,168,243.5,169.2,240.6z"/>
		</g>
	</g>
</g>
<path class="st1" d="M181.2,193.4c0,0-15.3-1.3-23,7.4s-44.4,67.1-52.7,79s-8.3,32.9,7,35.8s30-14.4,36.4-22.4
	c3.2-4.2,6.8-8.1,10.6-11.8c0,0-2.9-12.1,5.8-31.6s14.7-34.8,17.6-43.1S181.2,193.4,181.2,193.4z"/>
<path class="st9" d="M203,158.9c0,0,1.9,9.9-0.6,19.5s-1.6,9.6-8,12.1c-4.2,1.6-8.6,2.6-13.1,2.9c0,0-11.8,31-20.8,45.7
	s-11.5,31-8,39.3c2.3,5.2,5.3,10.1,9,14.4c0,0,5.1,18.2,2.2,30s-9.9,28.8-12.8,54.3s-1.3,54.6-1.3,54.6h167.8c0,0-0.3-32.3-3.8-58.8
	s-7.7-28.7-13.4-44.7s-6.4-16.6-6.4-27.8s3.2-41.2,2.2-61.4s-5.8-35.8-14.1-41.6s-28.1-8-35.5-13.1s-2.9-37.7-2.9-37.7
	s-12.5,8-22.7,10.9C215.1,159.3,209,159.8,203,158.9z"/>
<g>
	<g>
		<defs>
			<path id="SVGID_5_" d="M203,158.9c0,0,1.9,9.9-0.6,19.5s-1.6,9.6-8,12.1c-4.2,1.6-8.6,2.6-13.1,2.9c0,0-11.8,31-20.8,45.7
				s-11.5,31-8,39.3c2.3,5.2,5.3,10.1,9,14.4c0,0,5.1,18.2,2.2,30s-9.9,28.8-12.8,54.3s-1.3,54.6-1.3,54.6h167.8
				c0,0-0.3-32.3-3.8-58.8s-7.7-28.7-13.4-44.7s-6.4-16.6-6.4-27.8s3.2-41.2,2.2-61.4s-5.8-35.8-14.1-41.6s-28.1-8-35.5-13.1
				s-2.9-37.7-2.9-37.7s-12.5,8-22.7,10.9C215.1,159.3,209,159.8,203,158.9z"/>
		</defs>
		<clipPath id="SVGID_6_">
			<use xlink:href="#SVGID_5_"  style="overflow:visible;"/>
		</clipPath>
		<g class="st12">
			<path class="st11" d="M233.2,187.1c10.8,6.2,26.2,9.1,41.4,7c-9.5-3.4-22.6-5.7-28.2-9.6c-7.4-5.1-2.9-37.7-2.9-37.7
				c-5.6,3.5-11.4,6.5-17.4,9.1l0.6,9.3C226.7,165.1,219.7,179.3,233.2,187.1z"/>
			<path class="st11" d="M277.8,249.7c0,0-3.2,23.9,2.6,28.4s9,2.6,9-12.3S279.1,246.5,277.8,249.7z"/>
		</g>
	</g>
</g>
<path class="st1" d="M203,158.9c0,0,1.9,9.9-0.6,19.5s-1.6,9.6-8,12.1c-4.2,1.6-8.6,2.6-13.1,2.9c0,0-11.8,31-20.8,45.7
	s-11.5,31-8,39.3c2.3,5.2,5.3,10.1,9,14.4c0,0,5.1,18.2,2.2,30s-9.9,28.8-12.8,54.3s-1.3,54.6-1.3,54.6h167.8c0,0-0.3-32.3-3.8-58.8
	s-7.7-28.7-13.4-44.7s-6.4-16.6-6.4-27.8s3.2-41.2,2.2-61.4s-5.8-35.8-14.1-41.6s-28.1-8-35.5-13.1s-2.9-37.7-2.9-37.7
	s-12.5,8-22.7,10.9C215.1,159.3,209,159.8,203,158.9z"/>
<path class="st2" d="M203.5,171.8c6,2.6,12.7,2.9,18.9,0.7c4.2-1.5,14.4-8.8,20.1-12.9c0.4-7.1,1.2-12.8,1.2-12.8s-12.5,8-22.7,10.9
	c-5.8,1.7-11.9,2.2-17.9,1.3C203.7,163.2,203.9,167.5,203.5,171.8z"/>
<path class="st2" d="M313.6,373.1c-1.4-10.7-2.9-17.4-4.6-22.7c-67,23.9-128.6,13-154.6,6.3c-1.5,6.8-2.7,13.7-3.5,20.6
	c-2.9,25.6-1.3,54.6-1.3,54.6h167.8C317.4,431.9,317.1,399.6,313.6,373.1z"/>
<path class="st8" d="M234.7,428.5c0,0,14.4-32.6,40-45.6"/>
<path class="st8" d="M229.6,423.9c2.6-10.1,7.7-19.4,14.9-27"/>
<path class="st8" d="M169,381.5c0,0,8.4,17.2,24.2,27"/>
<path class="st13" d="M293.8,300.5c0-5.4,0.7-15.1,1.4-26c-6.1,0.2-14.9-0.5-21.5-5.6c-11.2-8.6-16.9-25.3-15.4-43.1
	c1.1-12.3,5.5-26.4,8.1-34.2c-2.5-0.7-5.5-1.4-7.8-2.1c-1.4,5.1-3.3,13.4-6.7,23.2c-5.8,16.6-16,38.4-36.8,38.7s-37.1-6.1-32.9-24.3
	c3-13.2,6.9-28.1,8.8-35.3c-3.2,0.9-6.4,1.5-9.7,1.7c0,0-11.8,31-20.8,45.7s-11.5,31-8,39.3c2.3,5.2,5.3,10.1,9,14.4
	c0,0,5.1,18.2,2.2,30c-2.4,10.1-7.9,24-11.3,43.7c8.7,4.8,28.6,13,65,14.8c41.3,2,81-9.5,95.3-14.3c-3.3-21-7.3-24.1-12.5-38.8
	C294.4,312.3,293.8,311.7,293.8,300.5z"/>
<g>
	<g>
		<defs>
			<path id="SVGID_7_" d="M293.8,300.5c0-5.4,0.7-15.1,1.4-26c-6.1,0.2-14.9-0.5-21.5-5.6c-11.2-8.6-16.9-25.3-15.4-43.1
				c1.1-12.3,5.5-26.4,8.1-34.2c-2.5-0.7-5.5-1.4-7.8-2.1c-1.4,5.1-3.3,13.4-6.7,23.2c-5.8,16.6-16,38.4-36.8,38.7
				s-37.1-6.1-32.9-24.3c3-13.2,6.9-28.1,8.8-35.3c-3.2,0.9-6.4,1.5-9.7,1.7c0,0-11.8,31-20.8,45.7s-11.5,31-8,39.3
				c2.3,5.2,5.3,10.1,9,14.4c0,0,5.1,18.2,2.2,30c-2.4,10.1-7.9,24-11.3,43.7c8.7,4.8,28.6,13,65,14.8c41.3,2,81-9.5,95.3-14.3
				c-3.3-21-7.3-24.1-12.5-38.8C294.4,312.3,293.8,311.7,293.8,300.5z"/>
		</defs>
		<clipPath id="SVGID_8_">
			<use xlink:href="#SVGID_7_"  style="overflow:visible;"/>
		</clipPath>
		<g class="st14">
			<path class="st11" d="M254.7,379.9c19.7-2.4,39.1-6.7,58-12.9c-3.3-21-7.3-24.1-12.5-38.8c-5.8-16-6.4-16.6-6.4-27.8
				c0-5.4,0.7-15.1,1.4-26c-6.1,0.2-14.9-0.5-21.5-5.6c-8.8-6.8-14.3-18.6-15.4-32.1c-6.8,13.4-20.5,36.9-35.4,44.3
				c-21.3,10.7-34.7,4.7-52.7-2.7c-13-5.3-17-4.3-17.6,0.1c2.3,5.2,5.2,10,8.9,14.2c0,0,1,3.8,1.9,8.9c4.5,3.7,10.8,7.4,19.5,11.4
				c22,10,58.7,16,78,27.3s4,22.7-5.3,36.7C255,378,254.7,378.9,254.7,379.9z"/>
		</g>
	</g>
</g>
<path class="st1" d="M293.8,300.5c0-5.4,0.7-15.1,1.4-26c-6.1,0.2-14.9-0.5-21.5-5.6c-11.2-8.6-16.9-25.3-15.4-43.1
	c1.1-12.3,5.5-26.4,8.1-34.2c-2.5-0.7-5.5-1.4-7.8-2.1c-1.4,5.1-3.3,13.4-6.7,23.2c-5.8,16.6-16,38.4-36.8,38.7s-37.1-6.1-32.9-24.3
	c3-13.2,6.9-28.1,8.8-35.3c-3.2,0.9-6.4,1.5-9.7,1.7c0,0-11.8,31-20.8,45.7s-11.5,31-8,39.3c2.3,5.2,5.3,10.1,9,14.4
	c0,0,5.1,18.2,2.2,30c-2.4,10.1-7.9,24-11.3,43.7c8.7,4.8,28.6,13,65,14.8c41.3,2,81-9.5,95.3-14.3c-3.3-21-7.3-24.1-12.5-38.8
	C294.4,312.3,293.8,311.7,293.8,300.5z"/>
<path class="st1" d="M167.9,295.5c0,0,6.8,3.2,18,3.2"/>
<path class="st4" d="M120,182.2c0,0-0.6-4.6-1-11.9s-1-13.1,2.5-13.9s4.8,2.7,4.8,6.7s1.9,12.9,4,18.9s4.2,9.3,1,10.8
	S120.9,188,120,182.2z"/>
<path class="st15" d="M188.2,172.4c0,0-6.2,3.7-7,8.9s2.1,8.9,10.2,7.9s7.7-6,7.7-6L188.2,172.4z"/>
<path class="st4" d="M192.1,178.1c0,0-5.1,2.4-6.5,5.1s-3.6,4.8,1.4,3.1S194.1,177.9,192.1,178.1z"/>
<path class="st4" d="M182.7,182.1c-5.9,1.4-9.2-0.4-12.4,0.4c-0.7,0.2-1.4,0.3-2.1,0.4c-4.6-1.6-8.4-4.3-12.4-7.2
	c-1.6-1.1-3.2-2.3-4.9-3.4c-10.3-6.8-27-11.1-27.7-11.3c-0.6-0.1-1.2,0.2-1.3,0.8c-0.1,0.6,0.2,1.2,0.8,1.3c0.2,0,17.1,4.4,27,11
	c1.7,1.1,3.3,2.3,4.8,3.4c7.8,5.6,18.9,11.7,28.9,8.6c0.5-0.1,0.8-0.4,0.9-0.9C185.7,183.1,182.7,182.1,182.7,182.1z"/>
<path class="st1" d="M183.8,183.4c-3,1.1-6.2,1.3-9.4,0.7"/>
<path class="st1" d="M116.4,182.5c0,0-4.2,4.2-3.2,6.1"/>
<path class="st9" d="M144.2,201.4l-3.8-4.5c0,0,2.8-11.9,4.2-15.4c0.7-1.5,1.2-3,1.5-4.6c1-2,1.5-5.5,0.2-6.9
	c-1.2-1.2-2.7,0.3-3,0.6h-0.1c0.4-1.3-0.3-2.6-1.6-3c-0.2-0.1-0.5-0.1-0.8-0.1c-3.1-0.2-5.8,2.3-5.8,2.3s-0.6-2.3-2.3-2.3
	s-5.2,3.1-6.6,4.8c-0.1,0.1-0.2,0.3-0.3,0.4c-3.2,3.1-9.5,9.7-9.5,9.7s1.6-6.7,4.5-9.6s10.6-8.3,9.3-10.9s-5.1,0-5.1,0
	s-17.3,9.3-17.6,13.1s-4.8,20.1-3.2,21.7s23,14.7,23,14.7s-15.7,31.3-21.4,45.1c-5.7,13.8-11.5,28-12.1,40.5s7,21.7,20.1,21.7
	s18.9-9,20.8-26.2s11.2-69,11.8-78S148,205.9,144.2,201.4z"/>
<g>
	<g>
		<defs>
			<path id="SVGID_9_" d="M144.2,201.4l-3.8-4.5c0,0,2.8-11.9,4.2-15.4c0.7-1.5,1.2-3,1.5-4.6c1-2,1.5-5.5,0.2-6.9
				c-1.2-1.2-2.7,0.3-3,0.6h-0.1c0.4-1.3-0.3-2.6-1.6-3c-0.2-0.1-0.5-0.1-0.8-0.1c-3.1-0.2-5.8,2.3-5.8,2.3s-0.6-2.3-2.3-2.3
				s-5.2,3.1-6.6,4.8c-0.1,0.1-0.2,0.3-0.3,0.4c-3.2,3.1-9.5,9.7-9.5,9.7s1.6-6.7,4.5-9.6s10.6-8.3,9.3-10.9s-5.1,0-5.1,0
				s-17.3,9.3-17.6,13.1s-4.8,20.1-3.2,21.7s23,14.7,23,14.7s-15.7,31.3-21.4,45.1c-5.7,13.8-11.5,28-12.1,40.5s7,21.7,20.1,21.7
				s18.9-9,20.8-26.2s11.2-69,11.8-78S148,205.9,144.2,201.4z"/>
		</defs>
		<clipPath id="SVGID_10_">
			<use xlink:href="#SVGID_9_"  style="overflow:visible;"/>
		</clipPath>
		<g class="st16">
			<path class="st11" d="M134.6,292.5c1.9-17.3,11.2-69.1,11.8-78s1.6-8.6-2.2-13.1l-3.8-4.5c0,0,2.8-11.9,4.2-15.4
				c0.7-1.5,1.2-3,1.5-4.6c0.8-1.6,1.1-3.4,0.9-5.1l-0.3,0.4c0,0-11,23.9-10.3,28.4c0.5,3.6-23.1-2.2-32.1-3.8v0.1
				c1.6,1.6,23,14.7,23,14.7s11,2.6,9.1,12.9s-14.6,75.3-23.8,91c-0.6,1-1.3,2-2.1,3c1.1,0.2,2.3,0.2,3.4,0.3
				C126.9,318.7,132.7,309.7,134.6,292.5z"/>
		</g>
	</g>
</g>
<path class="st1" d="M144.2,201.4l-3.8-4.5c0,0,2.8-11.9,4.2-15.4c0.7-1.5,1.2-3,1.5-4.6c1-2,1.5-5.5,0.2-6.9
	c-1.2-1.2-2.7,0.3-3,0.6h-0.1c0.4-1.3-0.3-2.6-1.6-3c-0.2-0.1-0.5-0.1-0.8-0.1c-3.1-0.2-5.8,2.3-5.8,2.3s-0.6-2.3-2.3-2.3
	s-5.2,3.1-6.6,4.8c-0.1,0.1-0.2,0.3-0.3,0.4c-3.2,3.1-9.5,9.7-9.5,9.7s1.6-6.7,4.5-9.6s10.6-8.3,9.3-10.9s-5.1,0-5.1,0
	s-17.3,9.3-17.6,13.1s-4.8,20.1-3.2,21.7s23,14.7,23,14.7s-15.7,31.3-21.4,45.1c-5.7,13.8-11.5,28-12.1,40.5s7,21.7,20.1,21.7
	s18.9-9,20.8-26.2s11.2-69,11.8-78S148,205.9,144.2,201.4z"/>
<path class="st1" d="M135,169.8c0,0-7.3,10.4-8.8,13.3c-1,2.2-1.6,4.7-1.7,7.1"/>
<path class="st1" d="M133.3,193.2c0.3-2.9,1.1-5.8,2.3-8.5c1.9-4.2,7.6-14,7.6-14"/>
<path class="st9" d="M276.8,242.9c0,0,13.7,57.1,16.5,68.1s12.3,28.5,26.3,25.5s15.3-20.4,15-36.9s-10-53.2-16.8-70.2
	s-16-29.6-28.6-33.1s-19.8-2.5-19.8-2.5"/>
<g>
	<g>
		<defs>
			<path id="SVGID_11_" d="M276.8,242.9c0,0,13.7,57.1,16.5,68.1s12.3,28.5,26.3,25.5s15.3-20.4,15-36.9s-10-53.2-16.8-70.2
				s-16-29.6-28.6-33.1s-19.8-2.5-19.8-2.5"/>
		</defs>
		<clipPath id="SVGID_12_">
			<use xlink:href="#SVGID_11_"  style="overflow:visible;"/>
		</clipPath>
		<g class="st17">
			<path class="st11" d="M334.5,299.6c-0.3-16.5-10-53.2-16.8-70.2s-16-29.6-28.6-33.1c-3.4-1-6.9-1.7-10.4-2.2
				c5.3,2.3,23,12,33.3,44.7c12.3,38.8,20,67.9,7.1,81.4c-6.8,7.1-13,7.5-19.5,5.5c4.7,7.1,11.4,12.6,19.8,10.8
				C333.5,333.4,334.8,316.1,334.5,299.6z"/>
		</g>
	</g>
</g>
<path class="st1" d="M276.8,242.9c0,0,13.7,57.1,16.5,68.1s12.3,28.5,26.3,25.5s15.3-20.4,15-36.9s-10-53.2-16.8-70.2
	s-16-29.6-28.6-33.1s-19.8-2.5-19.8-2.5"/>
<path class="st4" d="M270.7,235.6l-92.2,1.5l12.1,31.9h0.1c2.7,8,16.8,14.1,33.8,14.1c16.4,0,30-5.7,33.4-13.3h0.2L270.7,235.6z"/>
<ellipse class="st4" cx="224.5" cy="235.6" rx="46.2" ry="14.1"/>
<ellipse class="st4" cx="224.5" cy="234.8" rx="43.2" ry="12.5"/>
<g>
	<g>
		<defs>
			<path id="SVGID_13_" d="M272.7,210.6h-93.6v25.9h3.3c2.9,6,20.6,10.6,42.1,10.6c20.3,0,37.3-4.1,41.5-9.6l1-1.1l4.3-2.1
				L272.7,210.6z"/>
		</defs>
		<clipPath id="SVGID_14_">
			<use xlink:href="#SVGID_13_"  style="overflow:visible;"/>
		</clipPath>
		<g class="st18">
			<path class="st15" d="M182,234.7c0,0-2-7.3-0.6-7.5s3.8,3.2,6.1,0.9s4.1-5.5,7.3-5.3s2.9,3.8,5,3.8s4.7-3.8,5.8,0.3
				s-2,10.2-4.1,12.5s-6.7,1.8-13.1,1.8S182,234.7,182,234.7z"/>
			<line class="st1" x1="188.4" y1="241.2" x2="186.4" y2="232.8"/>
			<line class="st1" x1="191.5" y1="241" x2="192" y2="227.2"/>
			<path class="st15" d="M216.6,227.5c0,0-2.7-3.9-0.5-6.5s3.1-0.5,7.3,0s3.6-3.4,8.5-1.9c4.8,1.5,6.3,5,7.7,5s4.6-1.9,7.5,1
				s2.2,4.6,3.6,4.6s3.6-1.9,4.1,1.5s-1,5.6-3.4,5.6s-6.8-4.1-11.4-3.6s-6.3,2.4-9.7,1.7s-3.6-2.4-5.1-2.9s-6,0.2-8-1
				s0.2-3.4,0.2-3.4L216.6,227.5z"/>
			<path class="st15" d="M229,228c0,0-2.7-3.9-0.5-6.5s3.1-0.5,7.3,0c4.1,0.5,3.6-3.4,8.5-1.9s6.3,5.1,7.7,5.1s4.6-1.9,7.5,1
				s2.2,4.6,3.6,4.6s3.6-1.9,4.1,1.5s-1,5.6-3.4,5.6s-6.8-4.1-11.4-3.6s-6.3,2.4-9.7,1.7s-3.6-2.4-5.1-2.9s-6,0.2-8-1
				s0.2-3.4,0.2-3.4H229V228z"/>
			<polyline class="st15" points="253.6,226.3 251.4,236.7 255.6,237.4 259.4,228.5 			"/>
			<line class="st1" x1="241.5" y1="222.9" x2="242" y2="228.5"/>
			<path class="st15" d="M227.5,235c0,0-2.7-3.9-0.5-6.5s3.1-0.5,7.3,0s3.6-3.4,8.5-1.9s6.3,5.1,7.7,5.1s4.6-1.9,7.5,1
				s2.2,4.6,3.6,4.6s3.6-1.9,4.1,1.5s-1,5.6-3.4,5.6s-6.8-4.1-11.4-3.6s-6.3,2.4-9.7,1.7s-3.6-2.4-5.1-2.9s-6,0.2-8-1
				s0.3-3.4,0.3-3.4h-0.9V235z"/>
			<ellipse class="st5" cx="229.2" cy="232.4" rx="8.6" ry="5.5"/>
			<path class="st9" d="M229,231.4c0,0-2.4-2.9-1.7-3.5s4-0.9,4.4,0.1S229,231.4,229,231.4z"/>
			<path class="st9" d="M228,231.8c0,0-5-0.5-5.5-1.2s1.3-2.5,2.8-2.2S228,231.8,228,231.8z"/>
			<path class="st9" d="M227.8,232.5c0,0-3.8,2.1-5,1.9s-2.3-2.3-0.9-2.7S227.8,232.5,227.8,232.5z"/>
			<path class="st9" d="M228.5,233.1c0,0,0.1,3.2-1,3.6s-4.2-0.4-3.9-1.4S228.5,233.1,228.5,233.1z"/>
			<path class="st9" d="M229.7,233.1c0,0,4,2,3.8,2.8s-3.1,1.8-4.1,1S229.7,233.1,229.7,233.1z"/>
			<path class="st9" d="M230.4,232.5c0,0,5-0.6,5.8,0s0.2,2.7-1.4,2.6S230.4,232.5,230.4,232.5z"/>
			<path class="st9" d="M230.2,231.8c0,0,2.4-2.8,3.7-2.8s3.3,1.6,2.3,2.4S230.2,231.8,230.2,231.8z"/>
			<ellipse class="st5" cx="254.3" cy="237.2" rx="8.6" ry="5.5"/>
			<path class="st9" d="M254.1,236.2c0,0-2.4-2.9-1.7-3.5s4-0.9,4.4,0.1S254.1,236.2,254.1,236.2z"/>
			<path class="st9" d="M253.1,236.6c0,0-5-0.5-5.5-1.2s1.3-2.5,2.8-2.2S253.1,236.6,253.1,236.6z"/>
			<path class="st9" d="M252.9,237.4c0,0-3.8,2.1-5,1.9s-2.3-2.3-0.9-2.8S252.9,237.4,252.9,237.4z"/>
			<path class="st9" d="M253.7,237.9c0,0,0.1,3.2-1,3.6s-4.2-0.4-3.9-1.4S253.7,237.9,253.7,237.9z"/>
			<path class="st9" d="M254.8,237.9c0,0,4,2,3.8,2.8s-3.1,1.8-4.1,1S254.8,237.9,254.8,237.9z"/>
			<path class="st9" d="M255.6,237.4c0,0,5-0.6,5.8,0s0.2,2.7-1.4,2.6S255.6,237.4,255.6,237.4z"/>
			<path class="st9" d="M255.4,236.6c0,0,2.4-2.8,3.7-2.8s3.3,1.6,2.3,2.4S255.4,236.6,255.4,236.6z"/>
			<path class="st15" d="M222.2,233.3c0,0,2.1-7.3,0.6-7.5s-4,3.2-6.4,0.9s-4.2-5.6-7.6-5.3s-3,3.8-5.2,3.8s-4.9-3.8-6.1,0.3
				s2.1,10.2,4.3,12.5s7,1.8,13.7,1.8S222.2,233.3,222.2,233.3z"/>
			<line class="st1" x1="215.5" y1="239.8" x2="217.6" y2="231.4"/>
			<line class="st1" x1="212.3" y1="239.6" x2="211.8" y2="225.8"/>
			<ellipse class="st5" cx="201.4" cy="237.9" rx="8.6" ry="5.5"/>
			<path class="st9" d="M201.2,237c0,0-2.4-2.9-1.7-3.5s4-0.9,4.4,0.1S201.2,237,201.2,237z"/>
			<path class="st9" d="M200.2,237.4c0,0-5-0.5-5.5-1.2s1.3-2.5,2.8-2.2S200.2,237.4,200.2,237.4z"/>
			<path class="st9" d="M200,238.1c0,0-3.8,2.1-5,1.9s-2.3-2.3-0.9-2.7S200,238.1,200,238.1z"/>
			<path class="st9" d="M200.7,238.7c0,0,0.1,3.2-1,3.6s-4.2-0.4-3.9-1.4S200.7,238.7,200.7,238.7z"/>
			<path class="st9" d="M201.9,238.7c0,0,4,2,3.8,2.8s-3.1,1.8-4.1,1S201.9,238.7,201.9,238.7z"/>
			<path class="st9" d="M202.6,238.1c0,0,5-0.6,5.8,0s0.2,2.7-1.4,2.6S202.6,238.1,202.6,238.1z"/>
			<path class="st9" d="M202.4,237.4c0,0,2.4-2.8,3.7-2.8s3.3,1.6,2.3,2.4S202.4,237.4,202.4,237.4z"/>
			<path class="st4" d="M204.4,237.8c0,0,4-6,13.9-7c0,0,4.8,1.5,2.9,1.7s-9.2-0.5-15,5.6S204.4,237.8,204.4,237.8z"/>
			<path class="st5" d="M227.7,240c0,2.8-3.9,5.1-8.6,5.1s-8.6-2.3-8.6-5.1s3.9-5.1,8.6-5.1S227.7,237.2,227.7,240z"/>
			<path class="st9" d="M218.9,239.1c0,0-2.4-2.6-1.7-3.3s4-0.8,4.4,0.1S218.9,239.1,218.9,239.1z"/>
			<path class="st9" d="M217.8,239.4c0,0-5-0.5-5.4-1.1s1.3-2.4,2.8-2S217.8,239.4,217.8,239.4z"/>
			<path class="st9" d="M217.6,240.1c0,0-3.8,2-5,1.7s-2.3-2.1-0.9-2.5S217.6,240.1,217.6,240.1z"/>
			<path class="st9" d="M218.4,240.6c0,0,0.1,3-1,3.4s-4.2-0.3-3.9-1.3S218.4,240.6,218.4,240.6z"/>
			<path class="st9" d="M219.5,240.6c0,0,4,1.9,3.8,2.6s-3.1,1.7-4.1,0.9S219.5,240.6,219.5,240.6z"/>
			<path class="st9" d="M220.3,240.1c0,0,5-0.6,5.8,0s0.2,2.5-1.4,2.5S220.3,240.1,220.3,240.1z"/>
			<path class="st9" d="M220.1,239.4c0,0,2.4-2.6,3.7-2.6s3.3,1.5,2.3,2.2S220.1,239.4,220.1,239.4z"/>
			<path class="st5" d="M246.3,240.2c0,2.8-3.9,5.1-8.6,5.1s-8.6-2.3-8.6-5.1s3.9-5.1,8.6-5.1S246.3,237.4,246.3,240.2z"/>
			<path class="st9" d="M237.5,239.3c0,0-2.4-2.6-1.7-3.3c0.7-0.6,4-0.8,4.4,0.1S237.5,239.3,237.5,239.3z"/>
			<path class="st9" d="M236.4,239.7c0,0-5-0.4-5.5-1.1s1.3-2.4,2.8-2C235.2,236.9,236.4,239.7,236.4,239.7z"/>
			<path class="st9" d="M236.2,240.3c0,0-3.8,2-5,1.7s-2.3-2.1-0.9-2.5S236.2,240.3,236.2,240.3z"/>
			<path class="st9" d="M237,240.9c0,0,0.1,3-1,3.4s-4.2-0.3-3.9-1.3S237,240.9,237,240.9z"/>
			<path class="st9" d="M238.2,240.9c0,0,4,1.9,3.8,2.6s-3.1,1.7-4.1,0.9S238.2,240.9,238.2,240.9z"/>
			<path class="st9" d="M238.9,240.3c0,0,5-0.6,5.8,0s0.2,2.5-1.4,2.5S238.9,240.3,238.9,240.3z"/>
			<path class="st9" d="M238.7,239.7c0,0,2.4-2.6,3.7-2.6s3.3,1.5,2.3,2.2S238.7,239.7,238.7,239.7z"/>
			<path class="st4" d="M227.4,232.5c0,0-2.5,6.7-12,9.9c0,0-5-0.3-3.2-1s9.1-1.6,13.4-8.8S227.4,232.5,227.4,232.5z"/>
			<path class="st4" d="M250.3,235.1c0,0-2.5,6.7-12,9.9c0,0-5-0.3-3.2-1s9.1-1.6,13.4-8.8S250.3,235.1,250.3,235.1z"/>
			<path class="st15" d="M189.8,243c0,0-5.6-2.9-1.2-3.9s6.5,4.4,7.5,1.7s2.3-4.2,5.4-3.4s0,3.3,3.2,4.1s0.3-5.1,6.1-2.2
				s4.1,6.6,7.3,6.8s2.6-5.8,6.8-5.1s2.2,1.7,4.8,2.2s3.1-2.2,5.8-0.5s4.4,3.4,5.8,2.4s1-2.2,3.6-2.7s2.9-1.5,4.8-3.9s4.8,1,7.7,1
				s3.1,0,4.6-2.9c0.8-1.7,2.5-2.8,4.4-2.9c0,0,2.4,2.4-0.7,5.3s-15.5,9.7-25.1,10.6s-23.2,2.2-35.1,0.5S189.8,243,189.8,243z"/>
			<path class="st4" d="M233.4,235.9c0,0,4-6,13.9-7c0,0,4.8,1.5,2.9,1.7s-9.2-0.5-15,5.6S233.4,235.9,233.4,235.9z"/>
		</g>
	</g>
</g>
<path class="st9" d="M211.5,76c0,0-22.9,10.2-26,18.3s-1.4,16.2-4.2,25.3s-8.8,13.7-4.2,26.7s20.4,18.6,26.7,21.4
	c6,2.7,12.8,2.9,19,0.7c6-2.1,23.9-15.8,23.9-15.8s1.8,2.5,9.5-0.4s12-16.9,9.9-23.2s-11.6-1.8-11.6-1.8S208.7,100.2,211.5,76z"/>
<g>
	<g>
		<defs>
			<path id="SVGID_15_" d="M211.5,76c0,0-22.9,10.2-26,18.3s-1.4,16.2-4.2,25.3s-8.8,13.7-4.2,26.7s20.4,18.6,26.7,21.4
				c6,2.7,12.8,2.9,19,0.7c6-2.1,23.9-15.8,23.9-15.8s1.8,2.5,9.5-0.4s12-16.9,9.9-23.2s-11.6-1.8-11.6-1.8S208.7,100.2,211.5,76z"
				/>
		</defs>
		<clipPath id="SVGID_16_">
			<use xlink:href="#SVGID_15_"  style="overflow:visible;"/>
		</clipPath>
		<g class="st19">
			<path class="st11" d="M254.4,127.3c-7.8-4.8-15.2-10.2-22.1-16.2c1.9,7.1,5.8,23.3,4.8,34.6c-1.3,14.9-14.9,20.7-26.5,22
				c-1.6,0.2-2.3,0.7-2.5,1.6c4.8,1.2,9.9,0.9,14.6-0.8c6-2.1,23.9-15.8,23.9-15.8s1.8,2.5,9.5-0.4s12-16.9,9.9-23.2
				S254.4,127.3,254.4,127.3z"/>
		</g>
	</g>
</g>
<path class="st1" d="M211.5,76c0,0-22.9,10.2-26,18.3s-1.4,16.2-4.2,25.3s-8.8,13.7-4.2,26.7s20.4,18.6,26.7,21.4
	c6,2.7,12.8,2.9,19,0.7c6-2.1,23.9-15.8,23.9-15.8s1.8,2.5,9.5-0.4s12-16.9,9.9-23.2s-11.6-1.8-11.6-1.8S208.7,100.2,211.5,76z"/>
<path class="st1" d="M202.3,114.3c-0.5,2.6-1.9,4.9-3.9,6.7c-3.2,2.5-5.6,4.2-2.5,7s5.6,1.8,5.6,1.8"/>
<path class="st1" d="M198.1,139.2c0,0,5.6,3.9,13.7-1.8"/>
<path class="st1" d="M211.1,134.7c0,0-0.7,1.8,2.5,4.9"/>
<path class="st1" d="M187.6,114.6c3-2,7-1.9,9.9,0.4"/>
<path class="st1" d="M212.2,115.7c0,0,4.2-3.9,10.6,0.7"/>
<path class="st20" d="M187.9,104.8c0,0,4.9-6.3,11.3-3.5"/>
<path class="st20" d="M208.7,101.6c0,0,6.7-3.9,12.7,3.2"/>
<path class="st9" d="M325.6,315.9c-5.4-9.1-14.6-15.3-25-17c-17.8-3-34.6-3.6-40.6-6.6s-9-9.6-12.4-14c-3.9-4.7-8.5-8.8-13.7-12.1
	c-4.1-2.5-6.3-0.5-5.5,2.2s3.9,4.4,6,7.7c1.4,2.3,2.4,4.8,3,7.4c0,0-5.2,0.8-15.9-6.6s-18.6-12.6-19.8-10.2
	c-0.7,1.4-0.9,2.9-0.6,4.4c0,0-5.2-3.3-6,0.3s5.8,11,5.8,11s1.9,2.8,4.9,6.6c4,5.5,9.7,9.4,16.3,11.2c9.1,2.7,16.7,5.2,21.7,7.4
	s35.1,24.4,54.6,30.5s28.5-2.2,32.1-9.1c2.2-4.3,3-9.2,2.5-14"/>
<g>
	<g>
		<defs>
			<path id="SVGID_17_" d="M325.6,315.9c-5.4-9.1-14.6-15.3-25-17c-17.8-3-34.6-3.6-40.6-6.6s-9-9.6-12.4-14
				c-3.9-4.7-8.5-8.8-13.7-12.1c-4.1-2.5-6.3-0.5-5.5,2.2s3.9,4.4,6,7.7c1.4,2.3,2.4,4.8,3,7.4c0,0-5.2,0.8-15.9-6.6
				s-18.6-12.6-19.8-10.2c-0.7,1.4-0.9,2.9-0.6,4.4c0,0-5.2-3.3-6,0.3s5.8,11,5.8,11s1.9,2.8,4.9,6.6c4,5.5,9.7,9.4,16.3,11.2
				c9.1,2.7,16.7,5.2,21.7,7.4s35.1,24.4,54.6,30.5s28.5-2.2,32.1-9.1c2.2-4.3,3-9.2,2.5-14"/>
		</defs>
		<clipPath id="SVGID_18_">
			<use xlink:href="#SVGID_17_"  style="overflow:visible;"/>
		</clipPath>
		<g class="st21">
			<path class="st11" d="M333,315.1l-7.4,0.8c-0.6-1-1.2-2.1-1.9-3c-1,2.7-2.5,5.1-4.5,7.2c-12.9,13.6-24.1,2.6-38.1-2.6
				s-42-19.4-56.2-18.7c-2.4,0.1-4.7,0-7.1-0.2c1.4,0.6,2.9,1.2,4.4,1.6c9.1,2.7,16.7,5.2,21.7,7.4s35.1,24.4,54.6,30.5
				s28.5-2.2,32.1-9.1C332.7,324.7,333.5,319.9,333,315.1z"/>
		</g>
	</g>
</g>
<path class="st1" d="M325.6,315.9c-5.4-9.1-14.6-15.3-25-17c-17.8-3-34.6-3.6-40.6-6.6s-9-9.6-12.4-14c-3.9-4.7-8.5-8.8-13.7-12.1
	c-4.1-2.5-6.3-0.5-5.5,2.2s3.9,4.4,6,7.7c1.4,2.3,2.4,4.8,3,7.4c0,0-5.2,0.8-15.9-6.6s-18.6-12.6-19.8-10.2
	c-0.7,1.4-0.9,2.9-0.6,4.4c0,0-5.2-3.3-6,0.3s5.8,11,5.8,11s1.9,2.8,4.9,6.6c4,5.5,9.7,9.4,16.3,11.2c9.1,2.7,16.7,5.2,21.7,7.4
	s35.1,24.4,54.6,30.5s28.5-2.2,32.1-9.1c2.2-4.3,3-9.2,2.5-14"/>
<path class="st1" d="M201.3,271.2c0,0,11.7,9.9,14.4,12.2c1.9,1.6,4.1,2.9,6.5,3.8"/>
<path class="st1" d="M197.7,276.3c0,0,11.2,13,18.6,16.2"/>
</svg>
