<?xml version="1.0" encoding="utf-8"?>
<!-- Generator: Adobe Illustrator 24.0.1, SVG Export Plug-In . SVG Version: 6.00 Build 0)  -->
<svg version="1.1" id="Layer_1" xmlns="http://www.w3.org/2000/svg" xmlns:xlink="http://www.w3.org/1999/xlink" x="0px" y="0px"
	 viewBox="0 0 460 430" style="enable-background:new 0 0 460 430;" xml:space="preserve">
<style type="text/css">
	.st0{fill:#EDF2F4;}
	.st1{fill:none;stroke:#2B2D42;stroke-linecap:round;stroke-linejoin:round;}
	.st2{fill:#2B2D42;}
	.st3{fill:#8D99AE;}
	.st4{clip-path:url(#SVGID_2_);}
	.st5{opacity:0.3;fill:#2B2D42;fill-opacity:0.7;enable-background:new    ;}
	.st6{fill:#FFFFFF;stroke:#2B2D42;stroke-linecap:round;stroke-linejoin:round;}
	.st7{fill:#EF233C;}
	.st8{clip-path:url(#SVGID_4_);}
	.st9{clip-path:url(#SVGID_6_);}
	.st10{fill:#FFFFFF;}
	.st11{clip-path:url(#SVGID_8_);}
	.st12{fill:#EDF2F4;stroke:#2B2D42;stroke-linecap:round;stroke-linejoin:round;}
	.st13{fill:#8D99AE;stroke:#2B2D42;stroke-linecap:round;stroke-linejoin:round;}
	.st14{clip-path:url(#SVGID_10_);}
	.st15{clip-path:url(#SVGID_12_);}
	.st16{opacity:0.2;}
	.st17{fill:none;stroke:#FFFFFF;stroke-linecap:round;stroke-linejoin:round;}
	.st18{clip-path:url(#SVGID_14_);}
	.st19{clip-path:url(#SVGID_16_);}
	.st20{clip-path:url(#SVGID_18_);}
	.st21{clip-path:url(#SVGID_20_);}
	.st22{clip-path:url(#SVGID_22_);}
	.st23{opacity:0.2;fill:none;stroke:#FFFFFF;stroke-linecap:round;stroke-linejoin:round;enable-background:new    ;}
	.st24{fill:#EF233C;stroke:#2B2D42;stroke-linecap:round;stroke-linejoin:round;}
	.st25{clip-path:url(#SVGID_24_);}
	.st26{clip-path:url(#SVGID_26_);}
	.st27{clip-path:url(#SVGID_28_);}
	.st28{clip-path:url(#SVGID_30_);}
</style>
<g>
	<path class="st0" d="M405.2,170.1c-18.2-20.1-48.6-22.4-72.4-35.6c-40.8-22.7-56.6-74.4-93.7-102.7C215.7,13.9,184,7,155.7,10.9
		c-40.2,5.6-78,32.5-89.4,72c-3.3,11.5-4.4,23.5-3.4,35.4c1.8,23.6,6.9,47.4,2.1,70.5c-5.3,25.5-21.8,47-31.8,71.1
		c-12.3,30-14,63.6-8.8,95.6c3.6,21.8,10.8,43.8,25.8,60.1c1.1,1.2,2.3,2.4,3.5,3.5h163.6c10.3-13.1,18-28.6,27.1-42.3
		c22.7-34.6,59.1-59.2,98.8-70.8c17.8-5.2,37.1-8.3,51.4-20.1c14.7-12.1,21.5-31.5,24.4-50.3C422.7,212.8,420.7,187.2,405.2,170.1z"
		/>
	<g id="freepik--Window--inject-2">
		<polyline class="st1" points="214.5,249.9 214.5,92.1 201.1,92.1 		"/>
		<line class="st1" x1="214.5" y1="275.7" x2="214.5" y2="269.9"/>
		<polyline class="st1" points="166.6,92.1 28.2,92.1 28.2,295.9 214.5,295.9 		"/>
		<line class="st1" x1="183.6" y1="92.1" x2="171.4" y2="92.1"/>
		<rect x="35.2" y="99.1" class="st1" width="172.3" height="189.8"/>
		<polyline class="st1" points="43.2,112.4 43.2,186.2 199.5,186.2 199.5,179.5 		"/>
		<polyline class="st1" points="199.5,163.7 199.5,106.4 43.2,106.4 		"/>
		<line class="st1" x1="199.5" y1="174.3" x2="199.5" y2="167.8"/>
		<line class="st1" x1="69.6" y1="194" x2="35.2" y2="194"/>
		<line class="st1" x1="81.8" y1="194" x2="76.9" y2="194"/>
		<line class="st1" x1="207.5" y1="194" x2="87.6" y2="194"/>
		<polyline class="st1" points="130,186.2 130,182.7 115.6,182.7 115.6,184.7 121.3,184.7 121.3,186.2 		"/>
		<path class="st1" d="M207.2,257.6c0,0-2.4,1.8-4.1,12.8c0,0-2.9-17.5-6.4-17.8s-2.8,11.4-2.8,11.4s-0.6-5.7-3.3-5.5s0,11.9,0,11.9
			s-3.3-9-6.4-8.9s2.1,16.4,2.1,16.4s-8-5.8-11.3-3s1.8,10,1.8,10s-11.5-2.5-13.3,4.3"/>
		<path class="st1" d="M163.5,282.6c0,0-5-3.3-8.9-1.8c0,0,2.5-3.8,0-6.1s-5.7,6.1-5.7,6.1s-0.4-14.2-5.4-13.5s0,13.5,0,13.5
			s-9-7.9-11.1-5.2s1.4,6.9,1.4,6.9s-5.4-1.7-9.3,2.3c0,0-6-6.1-12.7-7c0,0,4.4-12.9,2.3-15.5s-6.1,11.2-6.1,11.2s-1.7-9-7.3-9.7
			c0,0,4.7-2.5,3.3-6.4c-1.4-3.9-7.8,0.9-7.8,0.9s2.7-6.8-1.5-8.6s-5.9,5.7-5.9,5.7s-1.2-7.9-6.1-7.4s-3.3,9.5-3.3,9.5
			s-4.6-7.2-7.1-6.5c-5,1.5-3.5,12.8-3.5,12.8s-6.9-4.8-8.7-2.6c-1.9,2.4,7.2,8.5,7.2,8.5s-6.9,0.8-11.1,4.8"/>
		<path class="st1" d="M35.2,260.2c0,0,0.8-7.2,8-7.6s-2,15.8-2,15.8s6-4.9,8.1-3.4s-6.1,9.9-6.1,9.9s4-3.7,8.1-2.5
			s-2.4,12.8-2.4,12.8c6.2-1.2,12.6-0.5,18.3,2.1"/>
	</g>
	<path class="st2" d="M294.3,307.2c0,0,6.7,12.8,11.9,36.4c2.1,9.8,7.4,74.5,7.4,74.5h-49.4l-7.8-20.5v20.5h-41.7
		c0,0-5.9-53.3,11.8-110.8S294.3,307.2,294.3,307.2z"/>
	<path class="st3" d="M243.4,202.5c-8.4,2.4-32.1,26.9-32.1,26.9s-2.8-3-3.8-2.4s-3.9,6.1-3.9,6.1s-5.5-3-9.5-2.1s-14,19-14,19
		s-2.9,7,0,9.2c1.5,1.2,3.4,2,5.3,2.1c1.4,2.6,3,5.1,4.7,7.4c2.4,2.9,13.7,0,13.7,0l37.6-20.6c0,0,10.7-27.2,11.5-30.2
		S243.4,202.5,243.4,202.5z"/>
	<g>
		<g>
			<defs>
				<path id="SVGID_1_" d="M243.4,202.5c-8.4,2.4-32.1,26.9-32.1,26.9s-2.8-3-3.8-2.4s-3.9,6.1-3.9,6.1s-5.5-3-9.5-2.1s-14,19-14,19
					s-2.9,7,0,9.2c1.5,1.2,3.4,2,5.3,2.1c1.4,2.6,3,5.1,4.7,7.4c2.4,2.9,13.7,0,13.7,0l37.6-20.6c0,0,10.7-27.2,11.5-30.2
					S243.4,202.5,243.4,202.5z"/>
			</defs>
			<clipPath id="SVGID_2_">
				<use xlink:href="#SVGID_1_"  style="overflow:visible;"/>
			</clipPath>
			<g class="st4">
				<path class="st5" d="M237.1,250.5l-33.2,18.2c0,0-11.3,2.9-13.7,0c-1.8-2.3-3.4-4.8-4.7-7.4c-1.9-0.2-3.8-0.9-5.3-2.1
					c-0.9-0.7-1.3-1.9-1.3-3c11.6,7.3,20.9-7.2,21.1-4.2c0.2,3.2-2.5,14.4-2.5,14.4s9.5,0.6,14.7-11.1c5.2-11.7,22.1-35.4,22.1-35.4
					L237.1,250.5z"/>
			</g>
		</g>
	</g>
	<path class="st1" d="M243.4,202.5c-8.4,2.4-32.1,26.9-32.1,26.9s-2.8-3-3.8-2.4s-3.9,6.1-3.9,6.1s-5.5-3-9.5-2.1s-14,19-14,19
		s-2.9,7,0,9.2c1.5,1.2,3.4,2,5.3,2.1c1.4,2.6,3,5.1,4.7,7.4c2.4,2.9,13.7,0,13.7,0l37.6-20.6c0,0,10.7-27.2,11.5-30.2
		S243.4,202.5,243.4,202.5z"/>
	<path class="st6" d="M185.9,193.4c0.1,13.9,5,25.9,6.6,29.7c3.7,8.8,5.9,14.9,4.7,17.8s-9.5,19.5-17.2,7.3c-7.7-12.2-5-51.3-5-51.3
		L185.9,193.4z"/>
	<path class="st7" d="M149.7,180.3c0,0,2,7,3.7,8.3s16.9,7.7,16.9,7.7l-1.7,20c10.7,4,23.5-2.6,23.5-2.6c-2.2-6.5-3.8-13.1-4.8-19.9
		c0,0,6.9-10,6.3-13.4S149.7,180.3,149.7,180.3z"/>
	<g>
		<g>
			<defs>
				<path id="SVGID_3_" d="M149.7,180.3c0,0,2,7,3.7,8.3s16.9,7.7,16.9,7.7l-1.7,20c10.7,4,23.5-2.6,23.5-2.6
					c-2.2-6.5-3.8-13.1-4.8-19.9c0,0,6.9-10,6.3-13.4S149.7,180.3,149.7,180.3z"/>
			</defs>
			<clipPath id="SVGID_4_">
				<use xlink:href="#SVGID_3_"  style="overflow:visible;"/>
			</clipPath>
			<g class="st8">
				<path class="st5" d="M187.4,193.8c0,0,0.1,1.1,0.5,3c-3.7,2.6-10.3,4.4-17.9,5.1l0.4-4.8c6.1-0.8,12.1-2.3,17.9-4.6
					C187.7,193.3,187.4,193.8,187.4,193.8z"/>
				<path class="st5" d="M190.4,189c-1.9,0.3-3.8,0.4-5.7,0.4c0,0-5.8-2.1-8.5-3.2s-13.4,1.3-13.4,1.3c-1.4-0.7-2.7-1.5-4-2.4
					c-0.7-0.5-4-0.2-7.2,0.3c-0.7-1.7-1.3-3.4-1.8-5.1c0,0,43.4-3.4,43.9,0C194,182.2,192.2,185.9,190.4,189z"/>
			</g>
		</g>
	</g>
	<path class="st1" d="M149.7,180.3c0,0,2,7,3.7,8.3s16.9,7.7,16.9,7.7l-1.7,20c10.7,4,23.5-2.6,23.5-2.6c-2.2-6.5-3.8-13.1-4.8-19.9
		c0,0,6.9-10,6.3-13.4S149.7,180.3,149.7,180.3z"/>
	<path class="st2" d="M277.8,142c0,0,5.1-12.6,18-9.2s10.1,16.1,5.2,27.6s-3.8,19.6-1.7,24.1s-4.3,9.8-7.8,9.2c0,0,2.6-0.9,1.5-6.1
		S273.7,160.1,277.8,142z"/>
	<path class="st3" d="M239.9,203.7c0,0,8.3-3.2,11.7-3.2s10.6,1.6,10.6,1.6s3.5-1.5,13.5-3.3s14,3.5,14,3.5s24.9,3.1,28.9,9.4
		s-13.6,45.9-31,63.3l11.6,41.7c0,0-38.5,18-76.8,6.3l11.9-45.3c0,0-7.8-28.6-9.2-41.4s16.9-26.2,16.9-26.2"/>
	<g>
		<g>
			<defs>
				<path id="SVGID_5_" d="M239.9,203.7c0,0,8.3-3.2,11.7-3.2s10.6,1.6,10.6,1.6s3.5-1.5,13.5-3.3s14,3.5,14,3.5s24.9,3.1,28.9,9.4
					s-13.6,45.9-31,63.3l11.6,41.7c0,0-38.5,18-76.8,6.3l11.9-45.3c0,0-7.8-28.6-9.2-41.4s16.9-26.2,16.9-26.2"/>
			</defs>
			<clipPath id="SVGID_6_">
				<use xlink:href="#SVGID_5_"  style="overflow:visible;"/>
			</clipPath>
			<g class="st9">
				<path class="st5" d="M312,237.6c-3.8,8.3-8.3,16.3-13.4,23.8c-0.8-15.2,6.5-31.9,6.5-31.9L312,237.6z"/>
			</g>
		</g>
	</g>
	<path class="st1" d="M239.9,203.7c0,0,8.3-3.2,11.7-3.2s10.6,1.6,10.6,1.6s3.5-1.5,13.5-3.3s14,3.5,14,3.5s24.9,3.1,28.9,9.4
		s-13.6,45.9-31,63.3l11.6,41.7c0,0-38.5,18-76.8,6.3l11.9-45.3c0,0-7.8-28.6-9.2-41.4s16.9-26.2,16.9-26.2"/>
	<path class="st6" d="M285.8,201.8l-19.2,14.8c0,0-4.2-7.3-2.6-12.1c0.2-0.5,0.3-1.1,0.3-1.6c0.2-2.7-1-5.8-2.1-7.9
		c-0.4-0.9-0.9-1.7-1.4-2.5c0,0,26.1-20.8,22.4-15.6S285.8,201.8,285.8,201.8z"/>
	<path class="st10" d="M289.7,202.4c0.8,11.1-12.6,32.4-12.6,32.4s-30.3-1.1-41.7-5c0,0,9.5-17.9,26.7-27.7l-3.3-0.6
		c0,0-30,20.1-33.8,28.3c-3.8,8.2,6.8,48.6,6.8,48.6s-22.4,67.2-22.2,104.4c0,0,0,30.2,34.3,30.2c43.7,0,50.1-27.3,50.1-27.3
		s-5.3-73.8-10-95.1c0,0-4.1-35.9,2.3-47.5s8-31,6.5-40.2L289.7,202.4z"/>
	<g>
		<g>
			<defs>
				<path id="SVGID_7_" d="M289.7,202.4c0.8,11.1-12.6,32.4-12.6,32.4s-30.3-1.1-41.7-5c0,0,9.5-17.9,26.7-27.7l-3.3-0.6
					c0,0-30,20.1-33.8,28.3c-3.8,8.2,6.8,48.6,6.8,48.6s-22.4,67.2-22.2,104.4c0,0,0,30.2,34.3,30.2c43.7,0,50.1-27.3,50.1-27.3
					s-5.3-73.8-10-95.1c0,0-4.1-35.9,2.3-47.5s8-31,6.5-40.2L289.7,202.4z"/>
			</defs>
			<clipPath id="SVGID_8_">
				<use xlink:href="#SVGID_7_"  style="overflow:visible;"/>
			</clipPath>
			<g class="st11">
				<path class="st5" d="M276.2,285.7c0,0-33.7,27.8-54.2,26.5c5.2-19.4,10-33.9,10-33.9s-1.5-5.8-3.2-13.4
					c5.8,6.6,13.2,14.4,15.6,14.5c4.3,0.1,11-5.4,14.4-1.8S276.2,285.7,276.2,285.7z"/>
			</g>
		</g>
	</g>
	<path class="st1" d="M289.7,202.4c0.8,11.1-12.6,32.4-12.6,32.4s-30.3-1.1-41.7-5c0,0,9.5-17.9,26.7-27.7l-3.3-0.6
		c0,0-30,20.1-33.8,28.3c-3.8,8.2,6.8,48.6,6.8,48.6s-22.4,67.2-22.2,104.4c0,0,0,30.2,34.3,30.2c43.7,0,50.1-27.3,50.1-27.3
		s-5.3-73.8-10-95.1c0,0-4.1-35.9,2.3-47.5s8-31,6.5-40.2L289.7,202.4z"/>
	<path class="st1" d="M176.2,196.3c0,0,7.2,1.1,11.2-2.4"/>
	<path class="st1" d="M166.5,186.7l6.7-3c0,0,7.3,2.1,8.6,3"/>
	<path class="st1" d="M156.6,186.7c0,0,5.4-4.4,9.9-3.6"/>
	<path class="st12" d="M128.4,157.2c0,0-8.6-2.9-10.7-4.3s-3-4.4-4.9-3.9c-1.5,0.4-2.3,2-1.9,3.5c0.1,0.5,0.4,0.9,0.8,1.2
		c0,0-2,0.5-0.9,2.6s2.8-0.4,5.6,0.8s9.8,5.3,9.8,5.3L128.4,157.2z"/>
	<path class="st12" d="M167.4,144.9c0,0-8.6-2.9-10.7-4.3s-3-4.4-4.9-3.9c-1.5,0.5-2.3,2-1.9,3.5c0.1,0.5,0.4,0.9,0.7,1.2
		c0,0-2,0.5-0.9,2.6s2.8-0.4,5.6,0.8s9.8,5.3,9.8,5.3L167.4,144.9z"/>
	<path class="st13" d="M150.4,147.2c0,0,22.5-12.5,34.5-9.1s17,12,17,12c3.7,2.1,7.1,4.7,10,7.7c5,5.2,2.5,15.7,0,15.4l-2.5-0.3
		h-62.5c0,0-18.3-5.7-23.2-9.1s5-11.5,4.6-10.2s8.6,2.7,11.1,0S143.9,145,150.4,147.2z"/>
	<path class="st1" d="M150.4,147.2c0,0,9.3,1.1,13.1,6.5s3.8,12.4,1.7,13.3"/>
	<path class="st1" d="M201.9,150.1c0,0,6.8,8.6,4.9,13.7s-3,3.2-3,3.2"/>
	<path class="st0" d="M232.6,170.7v2.8l-22.9,2.9l-5.2,5.3c0,0-36.4,3.6-69.8,2.1l-6.5-4.5l-20.8-2.9v-3.1c0,0,41.5-5.4,76.8-5.3
		S232.6,170.7,232.6,170.7z"/>
	<g>
		<g>
			<defs>
				<path id="SVGID_9_" d="M232.6,170.7v2.8l-22.9,2.9l-5.2,5.3c0,0-36.4,3.6-69.8,2.1l-6.5-4.5l-20.8-2.9v-3.1
					c0,0,41.5-5.4,76.8-5.3S232.6,170.7,232.6,170.7z"/>
			</defs>
			<clipPath id="SVGID_10_">
				<use xlink:href="#SVGID_9_"  style="overflow:visible;"/>
			</clipPath>
			<g class="st14">
				<path class="st5" d="M204.5,179.9l5.3-3.5l-5.3,5.3c0,0-36.4,3.6-69.8,2.1c12.2-2.9,24.5-4.7,37-5.5
					C192.6,177,204.5,179.9,204.5,179.9z"/>
				<path class="st5" d="M232.6,173.5l-22.9,2.9c0,0-41.2-5.1-81.5,2.9l-20.8-2.9C107.4,176.4,177.5,165.9,232.6,173.5z"/>
			</g>
		</g>
	</g>
	<path class="st1" d="M232.6,170.7v2.8l-22.9,2.9l-5.2,5.3c0,0-36.4,3.6-69.8,2.1l-6.5-4.5l-20.8-2.9v-3.1c0,0,41.5-5.4,76.8-5.3
		S232.6,170.7,232.6,170.7z"/>
	<path class="st6" d="M352.8,272c0,0-20.9,26.6-39.4,46.7l-4.7,13.7l2.2,2.9c1.2-0.6,2.7-0.6,3.9,0c1.9,1.1-3.9,3.9-3.9,3.9
		s-9.2-3.6-10.5-6s-8.8-10.3-7-13.2s12.3-8.9,12.3-8.9s10.9-14.8,13.6-21.9s11.7-25.8,11.7-25.8L352.8,272z"/>
	<path class="st3" d="M318.7,211.8c8.4,4.9,36,45.9,37.6,51.8s-6.8,18.3-6.8,18.3l-7.5,7.3c0,0-18.2-12.4-19-13.5s2.5-6.3,2.5-6.3
		l-2.4-3.1l0.9-3.4l-17.7-15.4c0,0-3.3-22.4,3.6-30"/>
	<g>
		<g>
			<defs>
				<path id="SVGID_11_" d="M318.7,211.8c8.4,4.9,36,45.9,37.6,51.8s-6.8,18.3-6.8,18.3l-7.5,7.3c0,0-18.2-12.4-19-13.5
					s2.5-6.3,2.5-6.3l-2.4-3.1l0.9-3.4l-17.7-15.4c0,0-3.3-22.4,3.6-30"/>
			</defs>
			<clipPath id="SVGID_12_">
				<use xlink:href="#SVGID_11_"  style="overflow:visible;"/>
			</clipPath>
			<g class="st15">
				<path class="st5" d="M330.9,263.3c-2.8,1.1-5.5,6-5.5,6l-2.4-3.1l0.9-3.4l-17.7-15.4c-0.7-5.6-0.9-11.2-0.6-16.8
					c1.5,4,3.3,7.9,5.3,11.7c0,0,16.2,7.7,20.1,10.9c3.9,3.2-4.1,5-4,5.8S333.7,262.2,330.9,263.3z"/>
			</g>
		</g>
	</g>
	<path class="st1" d="M318.7,211.8c8.4,4.9,36,45.9,37.6,51.8s-6.8,18.3-6.8,18.3l-7.5,7.3c0,0-18.2-12.4-19-13.5s2.5-6.3,2.5-6.3
		l-2.4-3.1l0.9-3.4l-17.7-15.4c0,0-3.3-22.4,3.6-30"/>
	<path class="st1" d="M268,218.5l5.2,10c0,0,12.2-15.8,13.4-21.8"/>
	<path class="st1" d="M264,217c0,0-13.2,7-12.9,6.3s1.7-10.7,6.5-15.9"/>
	<path class="st2" d="M275.3,187.5c0,0-3.7,13.6-11,15.3c0.2-2.7-1-5.8-2.1-7.9L275.3,187.5z"/>
	<path class="st6" d="M284.3,179.3c2.3-4.4,3.5-9.2,3.5-14.1c0-21.4-23-30.5-37.5-16.4c-14.8,14.4,0.5,44.7,6.9,49.6
		c3.6,2.8,20.6-5.9,20.6-12.4"/>
	<path class="st1" d="M244.2,168.1c0,0,2.7-1.1,4.3,0"/>
	<path class="st1" d="M256.5,167.6c0,0,4.9-3.3,9-0.9"/>
	<path class="st2" d="M262,172.5c0.1,0.9-0.2,1.6-0.8,1.7s-1.1-0.6-1.2-1.4s0.2-1.6,0.8-1.7S261.9,171.6,262,172.5z"/>
	<path class="st2" d="M249.6,173.6c0.1,0.9-0.2,1.6-0.8,1.7s-1.1-0.6-1.2-1.4s0.2-1.6,0.8-1.7S249.4,172.7,249.6,173.6z"/>
	<path class="st6" d="M250.6,172.7c0.7,2.2,1.2,5.3-1.5,7.7s1.2,4,3.4,3.6"/>
	<path class="st6" d="M253.6,187.7c0,0,6.8,0.2,10.8-3.2c0,0-0.7,4.6-4.8,5.9s-4.2-2-4.2-2"/>
	<path class="st2" d="M259,152.3c0,0,1.6,12.3,15.1,18.3l1.6,3.7c0,0,1.8-8.2,5.3-6.1s1.2,14.9,1.2,14.9s6.4-1.7,9.9-14.9
		s-2.4-24.8-16.5-29.3s-37,3.7-39.7,20.3s10.4,19.2,10.4,19.2s-6.5-16.6,8.6-26.3c0,0,2.4,18.4,16.9,20.4
		C271.7,172.4,258.1,167.8,259,152.3z"/>
	<path class="st6" d="M277.8,170.6c0,0,2.7-7.5,5.7-6.4s4.3,6.3,1.4,10.1s-3.7,8.1-5.3,6"/>
	<g class="st16">
		<path class="st17" d="M260,143.4c0,0,4,17.7,17.8,19.6"/>
		<path class="st17" d="M265.5,142c0,0,9.5,11.1,18.5,15.2s6.2,9.9,6.2,9.9"/>
		<path class="st17" d="M254.6,145.4c0,0-19.5,9.7-16.7,21.4"/>
		<path class="st17" d="M287.8,141c0,0,7.1-9.4,12.2-3.4s0,17.6-3,26.4s0.2,19.6,0.2,19.6"/>
		<path class="st17" d="M292.3,144.4c0,0,5-0.2,4.8,5.8"/>
		<path class="st17" d="M283.4,139.6c0,0,2.5-5.3,4.4-5.5"/>
	</g>
	<g id="freepik--character-1--inject-2">
		<polygon class="st12" points="108.9,418.2 116.8,418.2 106,356.9 98.1,356.9 		"/>
		<polygon class="st0" points="38.5,418.2 30.6,418.2 26.8,396.3 19.8,356.9 27.7,356.9 34,392.3 		"/>
		<g>
			<g>
				<defs>
					<polygon id="SVGID_13_" points="38.5,418.2 30.6,418.2 26.8,396.3 19.8,356.9 27.7,356.9 34,392.3 					"/>
				</defs>
				<clipPath id="SVGID_14_">
					<use xlink:href="#SVGID_13_"  style="overflow:visible;"/>
				</clipPath>
				<g class="st18">
					<polygon class="st5" points="34,392.3 26.8,396.3 19.8,356.9 27.7,356.9 					"/>
				</g>
			</g>
		</g>
		<polygon class="st1" points="38.5,418.2 30.6,418.2 26.8,396.3 19.8,356.9 27.7,356.9 34,392.3 		"/>
		<polygon class="st0" points="110.6,362.2 16.3,362.2 7.1,309.8 101.3,309.8 		"/>
		<g>
			<g>
				<defs>
					<polygon id="SVGID_15_" points="110.6,362.2 16.3,362.2 7.1,309.8 101.3,309.8 					"/>
				</defs>
				<clipPath id="SVGID_16_">
					<use xlink:href="#SVGID_15_"  style="overflow:visible;"/>
				</clipPath>
				<g class="st19">
					<path class="st5" d="M110.6,362.2H30.9c-1.3-2.2-2-4.1-1.4-5c2.3-3,7.8-22.8,9.1-30.4c0.8-4.7,5.7-12.2,9.3-17.1h53.5
						L110.6,362.2z"/>
				</g>
			</g>
		</g>
		<polygon class="st1" points="110.6,362.2 16.3,362.2 7.1,309.8 101.3,309.8 		"/>
		<line class="st1" x1="12.1" y1="313.2" x2="20.1" y2="358.4"/>
		<path class="st6" d="M117.2,360.4c0,3.3,4.6,22.2,10.8,25.4s14-3,19.3-9.1c0,0-9.7-3.2-9.7-3.6s-5.3-18.4-5.3-18.4"/>
		<path class="st7" d="M131.7,368.6c-3.1,2.8-6.6,5.1-8.6,4.3c-2.8-1.2-4.2-10.9-4.8-17.1c-0.3-2.9-0.4-5-0.4-5l5.2-28.3
			c10.5,7.8,12.3,12.1,12.8,17.3s1.7,20.8,2.1,21.5C138.3,361.6,135.2,365.4,131.7,368.6z"/>
		<g>
			<g>
				<defs>
					<path id="SVGID_17_" d="M131.7,368.6c-3.1,2.8-6.6,5.1-8.6,4.3c-2.8-1.2-4.2-10.9-4.8-17.1c-0.3-2.9-0.4-5-0.4-5l5.2-28.3
						c10.5,7.8,12.3,12.1,12.8,17.3s1.7,20.8,2.1,21.5C138.3,361.6,135.2,365.4,131.7,368.6z"/>
				</defs>
				<clipPath id="SVGID_18_">
					<use xlink:href="#SVGID_17_"  style="overflow:visible;"/>
				</clipPath>
				<g class="st20">
					<path class="st5" d="M131.7,368.6c-3.1,2.8-6.6,5.1-8.6,4.3c-2.8-1.2-4.2-10.9-4.8-17.1c3.3-6.1,8.1-10.2,11.3-5.8
						c0,0,1.6,7.6,0.7,9.5s-3.3,5.6-2.9,6.3s3.9-3.6,4.9-2.6C132.6,363.6,132.5,365.9,131.7,368.6z"/>
				</g>
			</g>
		</g>
		<path class="st1" d="M131.7,368.6c-3.1,2.8-6.6,5.1-8.6,4.3c-2.8-1.2-4.2-10.9-4.8-17.1c-0.3-2.9-0.4-5-0.4-5l5.2-28.3
			c10.5,7.8,12.3,12.1,12.8,17.3s1.7,20.8,2.1,21.5C138.3,361.6,135.2,365.4,131.7,368.6z"/>
		<path class="st6" d="M138.9,384.2c5.5-3.9,10.2-8.9,13.6-14.6l-5.2-14.9c0,0-4.6,8.2-8,9s-12.5,5.6-11.9,12.4"/>
		<path class="st7" d="M127.2,353.8c-0.6,2.8-1.3,6-1.9,9.4c-3.6,18.7-7.3,45.3-7.3,55H48.5c0,0-0.5-23.8,0-47.9
			c0.4-17.1,1.3-34.4,3.2-43.4c0,0,15.4-18.8,44.9-15.3c14.8,1.8,23.5,7.6,28.6,13"/>
		<g>
			<g>
				<defs>
					<path id="SVGID_19_" d="M127.2,353.8c-0.6,2.8-1.3,6-1.9,9.4c-3.6,18.7-7.3,45.3-7.3,55H48.5c0,0-0.5-23.8,0-47.9
						c0.4-17.1,1.3-34.4,3.2-43.4c0,0,15.4-18.8,44.9-15.3c14.8,1.8,23.5,7.6,28.6,13"/>
				</defs>
				<clipPath id="SVGID_20_">
					<use xlink:href="#SVGID_19_"  style="overflow:visible;"/>
				</clipPath>
				<g class="st21">
					<path class="st5" d="M125.2,363.2c-3.6,18.7-7.3,45.3-7.3,55H48.5c0,0-0.5-23.8,0-47.9c6.2,0.2,13.2-5.2,17.9-6.7
						c21.3-6.9,13.4,1.1,15.5,2.1s25.7-9.4,28.1-6.3c2.1,2.8-2.1,7.2,0.5,8.3S125.2,363.2,125.2,363.2z"/>
				</g>
			</g>
		</g>
		<path class="st1" d="M127.2,353.8c-0.6,2.8-1.3,6-1.9,9.4c-3.6,18.7-7.3,45.3-7.3,55H48.5c0,0-0.5-23.8,0-47.9
			c0.4-17.1,1.3-34.4,3.2-43.4c0,0,15.4-18.8,44.9-15.3c14.8,1.8,23.5,7.6,28.6,13"/>
		<path class="st7" d="M65.2,330.2c0.3,1.9,0.5,3.9,0.4,5.9c0,6.1-1.8,12-5,17.1c-1.5,4.4-4.1,12-9.5,18.8c-0.1,0.2-0.3,0.3-0.4,0.5
			c-5.7,6.9-5.8-5.7-12.3-9.3s-6-6.2-6-6.2c5.4-7.9,5.2-11.7,8.3-16.6c7.5-11.9,6.3-15.4,25.5-23.9"/>
		<g>
			<g>
				<defs>
					<path id="SVGID_21_" d="M65.2,330.2c0.3,1.9,0.5,3.9,0.4,5.9c0,6.1-1.8,12-5,17.1c-1.5,4.4-4.1,12-9.5,18.8
						c-0.1,0.2-0.3,0.3-0.4,0.5c-5.7,6.9-5.8-5.7-12.3-9.3s-6-6.2-6-6.2c5.4-7.9,5.2-11.7,8.3-16.6c7.5-11.9,6.3-15.4,25.5-23.9"/>
				</defs>
				<clipPath id="SVGID_22_">
					<use xlink:href="#SVGID_21_"  style="overflow:visible;"/>
				</clipPath>
				<g class="st22">
					<path class="st5" d="M65.6,336c0,6.1-1.8,12-5,17.1c-1.5,4.4-4.1,12-9.5,18.8c-1.2-0.7-2.1-1.7-2.7-3
						c-3.3-7.1,4.5-11.1,5.3-13.1s-0.1-15,1.7-15.4s4.7,8.4,5.4,7.4S63,334.3,65.6,336z"/>
				</g>
			</g>
		</g>
		<path class="st1" d="M65.2,330.2c0.3,1.9,0.5,3.9,0.4,5.9c0,6.1-1.8,12-5,17.1c-1.5,4.4-4.1,12-9.5,18.8c-0.1,0.2-0.3,0.3-0.4,0.5
			c-5.7,6.9-5.8-5.7-12.3-9.3s-6-6.2-6-6.2c5.4-7.9,5.2-11.7,8.3-16.6c7.5-11.9,6.3-15.4,25.5-23.9"/>
		<path class="st6" d="M110.8,306.5c-1,0.6-1.9,2.4-2.6,4.3c-0.7,1.7-1.2,3.5-1.6,5.4l3,2.6c0,0-2.6,8.2-13.9,8.2S82,315.9,82,315.9
			c5.3-3.4,5.8-12.5,5.5-15.9c0,0,13.2-12.3,16.4-12.1c2.4,0.1,6.8,10.6,7.4,15.8C111.5,305.1,111.4,306.1,110.8,306.5z"/>
		<path class="st2" d="M67.3,348.3c0,0,0.4-3.9,0.5-14.4s-2.2-14.7-2.2-14.7L63,342l0,0l-2.9,25.3l3.1,0.4l2.2-18.7L67.3,348.3z"/>
		<path class="st2" d="M153.7,335.4L153.7,335.4c-0.3-1.4-0.6-2.8-1-4.1s-0.8-2.7-1.3-4.1c-0.1,1.4,0,2.9,0.1,4.3s0.2,2.8,0.4,4.2
			v-0.1c0,0.4-0.2,0.8-0.6,1.1c-0.2,0.1-0.4,0.2-0.6,0.2h-0.1l-1.5-9.5l-0.3,9.7h-0.2c-0.2,0-0.4,0-0.6-0.1c-0.4-0.2-0.7-0.6-0.7-1
			v0.1c0-1.4-0.1-2.8-0.2-4.2s-0.2-2.8-0.5-4.3c-0.3,1.4-0.6,2.8-0.8,4.2c-0.2,1.4-0.4,2.8-0.4,4.2l0,0v0.1c0,1.6,1.2,2.9,2.8,3
			l1.5,24.1l3.1-0.2l-1.5-24.1c0.4-0.1,0.8-0.3,1.1-0.5C153.4,337.7,153.9,336.6,153.7,335.4L153.7,335.4z"/>
		<path class="st6" d="M146.9,350.8c0,0,8.4-2.2,10.2-1.8c1.7,0.5,2.8,2.2,2.6,3.9c-0.3,1.4-1,2.4,0,3.4s-0.1,2.7,0,3.7
			s0.2,1.9,0.4,2.9c0.3,1.4-0.9,1.5-1,2.9s0.8,1.4,0.1,2.5c-1.3,2.2-10.6,2.5-12.5,1.4c-4.1-2.4-2.3-8.5-2.3-8.5s-3.2,1.4-3.4-2.5
			s-2.4-5.9-0.4-8S146.9,350.8,146.9,350.8z"/>
		<path class="st1" d="M146.9,350.8c0,0-2.2,0.8-1.9,2.8c0.1,1,0.4,1.9,0.9,2.8c0,0-0.6,0.8-0.3,2.9s0,3.1,0.3,3.9s0.1,2.6,0.3,3.8
			s2.7,4,6.3,3.5"/>
		<path class="st1" d="M146,356.4c0,0,5,1.2,8.6,0"/>
		<path class="st1" d="M146.4,361.6c2.8,0.4,5.7,0.4,8.5,0"/>
		<path class="st1" d="M146.4,365.6c2.6,0.8,5.4,1.1,8.2,0.9"/>
		<path class="st6" d="M144.6,361.3c0.7-1,1.1-2.3,1-3.6"/>
		<path class="st6" d="M48.5,363.1c-4.1-2.8-8.9-4.3-13.9-4.5c0,0-9.3,15.6-2.7,21.6S48.5,363.1,48.5,363.1z"/>
		<path class="st6" d="M30.4,375.8c0.4,10.9,17.5,9.9,29.3-4.4l-2.5-16.7c0,4.8-17.2,8.4-17.2,8.4c-5,1.6-8,3.9-7.5,6.7"/>
		<path class="st6" d="M65.2,351.7c0,0-8.4-2.2-10.2-1.8c-1.7,0.5-2.8,2.2-2.6,3.9c0.3,1.4,1,2.4,0,3.4s0.1,2.7,0,3.7
			s-0.2,1.9-0.4,2.9c-0.3,1.4,0.9,1.5,1,2.9s-0.8,1.4-0.1,2.5c1.3,2.2,10.6,2.5,12.5,1.4c4.1-2.4,2.3-8.5,2.3-8.5s3.2,1.4,3.4-2.5
			s2.4-5.9,0.3-8S65.2,351.7,65.2,351.7z"/>
		<path class="st1" d="M65.2,351.7c0,0,2.2,0.8,1.9,2.8c-0.1,1-0.4,1.9-0.9,2.8c0,0,0.6,0.8,0.3,3s0,3.1-0.3,3.9s-0.1,2.6-0.3,3.8
			s-2.7,4-6.3,3.5"/>
		<path class="st1" d="M66.1,357.3c0,0-5,1.2-8.6,0"/>
		<path class="st1" d="M65.8,362.5c-2.8,0.4-5.7,0.4-8.6,0"/>
		<path class="st1" d="M65.8,366.5c-2.6,0.8-5.4,1.1-8.2,0.9"/>
		<path class="st6" d="M67.5,362.2c-0.8-1-1.1-2.3-1-3.6"/>
		<path class="st2" d="M110.8,306.5c-1,0.6-1.9,2.4-2.6,4.3c-3.8-3.8-4.3-9.5-4.3-9.5l7.3,2.4C111.5,305.1,111.4,306.1,110.8,306.5z
			"/>
		<path class="st6" d="M103,303.9c6.1,7.5,17.7,6.1,19.1,4.4c1.2-1.5,0.9-5.2,0.9-5.2c2.4-0.7,1.2-2.3,1.2-2.3
			c-9.1,0.7-8.6-7.9-8.6-7.9c8.3,0.7,9.7-2,9.7-2l-1.1-4.3c0,0,3.7-3.1,2.4-4.6c-0.8-0.8-3.8-2.2-4.7-2.9
			c-4.8-3.6-1.3-10.8-7.8-16.1c-6.1-5-19.4-8.8-27.7-1.7c-7.7,6.6-10.1,27.8-4.4,34s8.7,5.9,8.7,5.9"/>
		<path class="st2" d="M116.4,277.4c0.3,1.2,0,2.2-0.6,2.4s-1.3-0.7-1.5-1.9s0-2.2,0.6-2.4S116.2,276.2,116.4,277.4z"/>
		<path class="st1" d="M116.5,269.9c-2,0.1-3.8,1.4-4.6,3.2"/>
		<path class="st2" d="M106.6,250.2c-18.8-1.1-28.3,11.6-28.3,11.6l0.6-3.4c-11.6,7.7-5,18.3-5,18.3c-7.8,4.7-3.6,13.9-3.6,13.9
			l2.8-2.2c4.2,16.6,15.1,15,15.1,15l8.4-8.3c-2.8-0.3-9.7-2.2-7.8-11c1.5-6.6,5.9-2.5,8.1-0.5l1.9-0.7c-2.6-8.7,5.9-14.4,5.9-14.4
			l-1.7,3.1l13.5-5.9l-1.1,2.5C125.7,264.8,125.4,251.3,106.6,250.2z"/>
		<path class="st6" d="M98,285c0,0-4.1-6.6-7.2-5.4s-2.9,10.7-1.7,12.5s5.7,2.5,7.6,4.3s3.5,0.1,3.1-1.1"/>
		<path class="st23" d="M107.7,252.6c0,0,12.6,1.2,10.2,10.6"/>
		<path class="st23" d="M104.6,252.1c0,0,10.4,5.6,2.4,14.6"/>
		<path class="st23" d="M100.9,252.1c0,0,7.5,12.6-11.3,20.2"/>
		<path class="st1" d="M115.3,354.2c0,0-17.1,22-46.1,30"/>
		<path class="st1" d="M80.2,320.3c0,0,6.2,9.6,16.4,9.6s13.9-6,13.9-6"/>
		<path class="st1" d="M132.3,330.8c0,0,0.2,9.8-2.7,13.5"/>
		<path class="st1" d="M51.7,324.4c0,0,6.8,6.4,7.1,11.4"/>
	</g>
	<g id="freepik--Table--inject-2">
		<path class="st24" d="M227.1,339.1c0,0,3.2-9.2-10-17.5C217.1,321.6,214.2,339.3,227.1,339.1z"/>
		<path class="st2" d="M261.1,354.2c0.4-1.3,12.5-16.3,14.3-13.6s-5.2,6.2-3.6,6.6s9.5-3.2,10.3-0.9s-10.5,4.5-10.5,4.5
			s7.1-0.4,5.9,2.4S261.1,354.2,261.1,354.2z"/>
		<path class="st13" d="M211.5,356.4c0,0-6.1-11.2,0-17.2s13.1-0.8,13.1-0.8s12.9-6.7,17.4-2.1s6.7,24.4-7.4,27.9
			S211.5,366,211.5,356.4z"/>
		<path class="st24" d="M200.2,349.6c0-1.7-3.8-16.1-6.1-18.1s-1,6.5-1.2,5.7s-7.5-10.1-9.5-8.9s2,8.1,2,8.1s-6.9-4.5-7.3-1.9
			s5.1,6,5.1,6s-9.6-1.2-8.1,2.4s7,3.8,7,3.8s-6.2,1.3-5.6,4.1s18.6,6.9,18.6,6.9L200.2,349.6z"/>
		<path class="st2" d="M177.8,363.1c-3.2-4.5-0.6-7,2.8-6.7c-0.3-3.7,2.3-6.9,6-7.4c6.6-1.1,6.6,1.8,6.6,1.8s3.9-9.1,9.6-8.6
			s7.5,3.5,5.7,7.7c0,0,7.1-1.1,7.7,2.1c0.4,1.6,0.4,3.3,0,4.9c0,0,3.2-3,4.5,2.8s-4.5,6.4-4.5,6.4L177.8,363.1z"/>
		<path class="st12" d="M230.2,363.1c0.8-0.5,17.1-10.6,23.7-14.1s14.5,5.8,11.5,10.5S230.2,363.1,230.2,363.1z"/>
		<polygon class="st12" points="167.8,362.6 283.6,362.6 283.6,366.1 269.1,368.1 266.3,370.8 186.6,370.8 182.7,367.6 167.8,366.1 
					"/>
		<path class="st6" d="M437.9,420.2v-39.9c0-5.2-4.2-9.5-9.5-9.5H16.6c-5.2,0-9.5,4.2-9.5,9.5v39.9"/>
	</g>
	<g id="freepik--character-3--inject-2">
		<path class="st6" d="M300,259c0,0,0.6,14.3,2.1,15.4s6,18.1,6,18.1l-12.3,3.8l-6.2-16.9L300,259z"/>
		<path class="st6" d="M263.7,295.9c0,0,9.2-13.5,8.4-15.9s-1.2-18.9-1.2-18.9s4.8-10.1,6.3-9.7c0,0,4.5-4.5,6.5-5.2s8.6,0,8.6,0
			s-4.6,5.6-4.5,7.3s2.2,13.6,2.2,13.6c-0.1,3.4,0.3,6.7,1.1,10c1.4,4.2-17,33.5-17,33.5L263.7,295.9z"/>
		<path class="st6" d="M285.6,250.3c0,0,5-5.9,7.7-5.4s3,3.7,3.5,4.1s2.6,1.8,3.3,5.8c0.7,4,0.2,5.6,0.8,7.5s-0.3,5-0.7,5.7
			s-11.5,4.6-12.3,2.9c-0.5-1.4-0.6-3-0.3-4.5c0,0-5.2-1.5-1-6.6c0,0-2.8-2.2-0.3-5.7C286.4,254.2,285.2,253,285.6,250.3z"/>
		<path class="st1" d="M287.7,266.4c0,0,8.4-4.6,11.3-4"/>
		<path class="st1" d="M286.7,259.8c0,0,7.6-3.6,9.1-3.8"/>
		<path class="st1" d="M286.4,254.2c0.8-0.7,6.2-4.6,7.5-4.2"/>
		<path class="st6" d="M289,272.6c0,0,3.8-2.6,5-4.5s2.1-10.9,4.5-12.1c2.4-1.2,2.8-0.5,3.4,0c0.6,0.5-0.3,5.8-0.8,8.4
			s1.6,5.4-2.2,10.7s-13.3,11.2-13.3,11.2"/>
		<path class="st6" d="M315.8,218.1c-0.2,2.9-2,5.1-4.1,5s-3.6-2.6-3.4-5.5s2-5.1,4.1-5S316,215.2,315.8,218.1z"/>
		<path class="st6" d="M313,200.3c1-2.1,7-4.6,8.4-6.2c12-14.9,37.3-11.7,42.9,6c6.3,19.8-18.6,51.9-24.3,53.6
			c-8.1,2.4-28.6,3.8-28.8-5.1c-0.3-14.7-2.9-20.8,0.8-27.4C315.1,215.6,309.5,208,313,200.3z"/>
		<path class="st6" d="M320.5,250.9c1.7,1.5,6.3,15.7,3.3,26.7l34.6,2.5c0,0-6.9-27.8-5.2-31.3s-14.5-9.6-19.3-4.4"/>
		<path class="st2" d="M355.1,181.6c-9.2-6-20.5-7.9-31.1-5.1c0,0,5.3-0.1,7.1,1.4c0,0-8.8-0.8-16.7,9.8s-4,23.2-4,23.2l1.1-3.9
			c0,0,2,10.4,8.5,13.8s5,19.5,6.5,24.3s20.2,7.8,26.5,5.8c5-1.6,16.3-13.4,18.9-26.4l0.7,4.8c0,0,5.3-21.2-1.3-29.6l4.2,2.8
			c0,0-4.3-9.8-10.3-12.1c0,0-0.4-6.8-15.9-13.5C351.6,177.9,353.6,179.5,355.1,181.6z"/>
		<path class="st1" d="M322.4,242.1c0,0,0.7,3.5-7.3,8.5"/>
		<line class="st1" x1="308.3" y1="217.6" x2="321.1" y2="218.5"/>
		<path class="st6" d="M319.9,222.3c0,0,2.2-9.8,4.3-9.4c1.2,0.2,1.8,2.4,2,5.4c1.3,1.9,1.8,4.2,1.4,6.5c-1,6.5-2.6,7.4-2.6,7.4
			c-0.8,3.5-1.8,5.9-3,5.3c-1.6-1-2.1-2.9-0.9-5.8"/>
		<path class="st1" d="M322.9,217c0.4,0.1,0.8,9.4-0.3,13.8"/>
		<path class="st1" d="M326.2,218.2c0,0,0,5.3-0.4,6.2"/>
		<path class="st7" d="M396.7,419.2c0,0-2.4-68.6,1.5-92.8c2.7-16.5-1-33.4-10.5-47.1c-3.9-5.6-25.7-11.1-25.7-11.1s-3.5-4.6-17-4.2
			s-31.8,8.4-31.8,8.4c-7.4,1.8-12.9,4.5-17,7.8c-5.3,1.1-11.6,6.4-18,13.5c-2.9-3-8.8-6.1-10.8-6c-1.5,0.1-3.1,2.5-4.1,4.5
			c-7.5-2-7.1,6-7.1,6s-37,55.6-11.9,70.9v0.3l1,0.4c4.3,2.3,8.1,2.3,11.3,0.7c10.2-2.5,19.1-13.7,34.1-29.8
			c1.3,17,2.5,78.6,2.5,78.6"/>
		<g>
			<g>
				<defs>
					<path id="SVGID_23_" d="M396.7,419.2c0,0-2.4-68.6,1.5-92.8c2.7-16.5-1-33.4-10.5-47.1c-3.9-5.6-25.7-11.1-25.7-11.1
						s-3.5-4.6-17-4.2s-31.8,8.4-31.8,8.4c-7.4,1.8-12.9,4.5-17,7.8c-5.3,1.1-11.6,6.4-18,13.5c-2.9-3-8.8-6.1-10.8-6
						c-1.5,0.1-3.1,2.5-4.1,4.5c-7.5-2-7.1,6-7.1,6s-37,55.6-11.9,70.9v0.3l1,0.4c4.3,2.3,8.1,2.3,11.3,0.7
						c10.2-2.5,19.1-13.7,34.1-29.8c1.3,17,2.5,78.6,2.5,78.6"/>
				</defs>
				<clipPath id="SVGID_24_">
					<use xlink:href="#SVGID_23_"  style="overflow:visible;"/>
				</clipPath>
				<g class="st25">
					<path class="st5" d="M398.2,326.4c-3.9,24.1-1.5,92.8-1.5,92.8h-88.1c0.5-8.1,1.5-16.3,3.4-19.3c4.3-6.6-2-12,0-20.5
						s11.5-23.2,8.5-25.2s-2.5-45.4,8.7-53.5c8.3-6,46.1-8.3,65.1-9.1C398.8,302.7,400.1,314.7,398.2,326.4z"/>
					<path class="st5" d="M291.1,344.2c-0.1-1.4-0.2-2.6-0.3-3.7c-15,16.1-23.9,27.3-34.1,29.8c-1.5,0.8-3.2,1.1-5,1.1
						c11.4-3,20.6-16.8,22.6-20.5c2.7-4.9,10.5-24.4,13.3-25.2s1.9,10.3,4.6,4.6s5.1-20.4,6.7-8.8
						C300.1,329.7,294.8,338.8,291.1,344.2z"/>
					<path class="st5" d="M276.2,296c-2.6-1-5.4-1.7-8.2-2c-5.2-0.7,2,4.5,1.6,5.9s-7.1,0.8-6,2.9s-3.9,17-9.3,22.8
						s-8.5,8.2-8.7,10.3c0,0,5.1-1.9,6.4-3.3s8.9-8.5,12-16.5S276.2,296,276.2,296z"/>
				</g>
			</g>
		</g>
		<path class="st1" d="M396.7,419.2c0,0-2.4-68.6,1.5-92.8c2.7-16.5-1-33.4-10.5-47.1c-3.9-5.6-25.7-11.1-25.7-11.1s-3.5-4.6-17-4.2
			s-31.8,8.4-31.8,8.4c-7.4,1.8-12.9,4.5-17,7.8c-5.3,1.1-11.6,6.4-18,13.5c-2.9-3-8.8-6.1-10.8-6c-1.5,0.1-3.1,2.5-4.1,4.5
			c-7.5-2-7.1,6-7.1,6s-37,55.6-11.9,70.9v0.3l1,0.4c4.3,2.3,8.1,2.3,11.3,0.7c10.2-2.5,19.1-13.7,34.1-29.8
			c1.3,17,2.5,78.6,2.5,78.6"/>
		<path class="st1" d="M293.9,291.3c9.2,23-3.1,49.3-3.1,49.3c2.1-0.3,8.6-4.4,11.3-11.7"/>
		<path class="st1" d="M334.9,267.2c0,0,18.2-3.5,27.2,0.9"/>
		<path class="st1" d="M385.7,330c0,0-44.5,17-59.5,39.3"/>
		<path class="st1" d="M250.3,334.6c0,0-5,0.5-8.2,3.7"/>
		<path class="st1" d="M256.3,298.1c0,0,5.2-1.6,8.6,1.8"/>
		<path class="st1" d="M278.3,293.6c-10.1,14.4-18.2,30.4-23.8,36.3s-9.2,9.9-8.9,15.2"/>
		<g class="st16">
			<path class="st17" d="M356.5,190.6c0,0,12.9,13.7,7.6,30.7"/>
			<path class="st17" d="M352.8,191.8c0.8,7-3.8,14.8-9.7,20"/>
			<path class="st17" d="M352.8,188.7c0.6-0.4-7.3-12.3-21.9-7.9"/>
			<path class="st17" d="M350,188.7c0,0-12.5-9.5-24-2.6s-9.8,16.4-9.8,16.4"/>
			<path class="st17" d="M348.9,190.6c0,0-21.8,1.6-21.2,14.5"/>
			<path class="st17" d="M356.5,187.5c0,0,3.8-0.5,0.7-4.5"/>
			<path class="st17" d="M359.5,190.6c0,0,6.7,1,8.9,9.1"/>
		</g>
		<path class="st1" d="M263.4,292.1c0.7,0.2,6.6,2,10.4,5.8"/>
		<polyline class="st0" points="315.2,419.2 328.7,342.3 338.6,342.3 325.1,419.2 		"/>
		<g>
			<g>
				<defs>
					<polyline id="SVGID_25_" points="315.2,419.2 328.7,342.3 338.6,342.3 325.1,419.2 					"/>
				</defs>
				<clipPath id="SVGID_26_">
					<use xlink:href="#SVGID_25_"  style="overflow:visible;"/>
				</clipPath>
				<g class="st26">
					<path class="st5" d="M331.9,342.3h6.7l-13.5,76.9h-6.2C322.7,397,329.4,357.1,331.9,342.3z"/>
				</g>
			</g>
		</g>
		<polyline class="st1" points="315.2,419.2 328.7,342.3 338.6,342.3 325.1,419.2 		"/>
		<polyline class="st0" points="413.4,419.2 426.5,344.9 426.9,342.3 436.9,342.3 436.2,345.8 423.3,419.2 		"/>
		<g>
			<g>
				<defs>
					<polyline id="SVGID_27_" points="413.4,419.2 426.5,344.9 426.9,342.3 436.9,342.3 436.2,345.8 423.3,419.2 					"/>
				</defs>
				<clipPath id="SVGID_28_">
					<use xlink:href="#SVGID_27_"  style="overflow:visible;"/>
				</clipPath>
				<g class="st27">
					<polygon class="st5" points="436.2,345.8 423.3,419.2 413.4,419.2 426.5,344.9 					"/>
				</g>
			</g>
		</g>
		<polyline class="st1" points="413.4,419.2 426.5,344.9 426.9,342.3 436.9,342.3 436.2,345.8 423.3,419.2 		"/>
		<polygon class="st0" points="452.9,283.2 451.8,289.4 441.3,349 323,349 334.6,283.2 		"/>
		<g>
			<g>
				<defs>
					<polygon id="SVGID_29_" points="452.9,283.2 451.8,289.4 441.3,349 323,349 334.6,283.2 					"/>
				</defs>
				<clipPath id="SVGID_30_">
					<use xlink:href="#SVGID_29_"  style="overflow:visible;"/>
				</clipPath>
				<g class="st28">
					<polygon class="st5" points="451.8,289.4 441.3,349 331.3,349 343.1,289.4 					"/>
				</g>
			</g>
		</g>
		<polygon class="st1" points="452.9,283.2 451.8,289.4 441.3,349 323,349 334.6,283.2 		"/>
		<line class="st1" x1="341.5" y1="287.5" x2="331.5" y2="344.2"/>
	</g>
</g>
</svg>
