<?xml version="1.0" encoding="utf-8"?>
<!-- Generator: Adobe Illustrator 24.0.1, SVG Export Plug-In . SVG Version: 6.00 Build 0)  -->
<svg version="1.1" id="Layer_1" xmlns="http://www.w3.org/2000/svg" xmlns:xlink="http://www.w3.org/1999/xlink" x="0px" y="0px"
	 viewBox="0 0 485 410" style="enable-background:new 0 0 485 410;" xml:space="preserve">
<style type="text/css">
	.st0{fill:#8D99AE;}
	.st1{fill:none;stroke:#2B2D42;stroke-linecap:round;stroke-linejoin:round;}
	.st2{fill:#FFFFFF;stroke:#2B2D42;stroke-linecap:round;stroke-linejoin:round;}
	.st3{fill:#EF233C;}
	.st4{fill:#FFFFFF;}
	.st5{opacity:0.4;fill:#EF233C;enable-background:new    ;}
	.st6{clip-path:url(#SVGID_2_);}
	.st7{opacity:0.2;fill:#2B2D42;fill-opacity:0.7;enable-background:new    ;}
	.st8{fill:#2B2D42;}
	.st9{clip-path:url(#SVGID_4_);}
	.st10{opacity:0.2;}
	.st11{fill:none;stroke:#2B2D42;stroke-miterlimit:10;}
	.st12{fill:#EDF2F4;}
	.st13{clip-path:url(#SVGID_6_);}
	.st14{opacity:0.5;fill:#FFFFFF;enable-background:new    ;}
	.st15{clip-path:url(#SVGID_8_);}
	.st16{opacity:0.2;fill:#2B2D42;enable-background:new    ;}
	.st17{clip-path:url(#SVGID_10_);}
	.st18{clip-path:url(#SVGID_12_);}
	.st19{clip-path:url(#SVGID_14_);}
	.st20{clip-path:url(#SVGID_16_);}
	.st21{opacity:0.6;fill:#FFFFFF;enable-background:new    ;}
	.st22{opacity:0.1;}
</style>
<g>
	<g id="freepik--background-simple--inject-11">
		<path class="st0" d="M222.7,8.9c124-10.7,124.2,57,180.1,120s67.8,91.6,46.8,164.3s-92.1,129.6-179.9,97.4s-138.1-1.3-193.5-29.9
			s-76-84-35.4-149.3S69.7,22,222.7,8.9z"/>
	</g>
	<g id="freepik--french-fries--inject-11">
		<path class="st1" d="M197.4,327.3c-17.6-0.5-35.9,0.1-47.1,3.8l-4.6,17c0,0,24.8,11.4,99.5,2.9"/>
		<path class="st1" d="M251.6,348.1l-5-17c0,0-18.8-2.5-40.6-3.5"/>
		<line class="st1" x1="248" y1="350.3" x2="246.2" y2="387.3"/>
		<line class="st1" x1="149.2" y1="349.3" x2="150.5" y2="379.1"/>
		<path class="st1" d="M246.6,331.1c0,0-14.4,7.7-47.9,6.8s-43.4-5.3-43.4-5.3"/>
		<path class="st1" d="M198.7,331.1l7-34l24.6-12.7c0,0,3.1-0.2,3.1,4.5l-23,11.3l-6.9,30.9c0,0,12,1.8-2.6,2.1s-12.4-2.3-5.8-2.1"
			/>
		<path class="st1" d="M262,391.6l-2.9-19.8l9.3-2.3c0,0,14.5,11.5,40.3,12.9s33.8-9.8,33.8-9.8l12.8,3.3
			c-0.7,9.3-2.1,18.4-4.2,27.5"/>
		<polyline class="st1" points="262.9,370.8 260.1,346.3 269.5,341.6 271,346.8 277.5,347 278.3,328.1 285.5,326.9 286.8,335.5 
			291.9,335.7 291.6,344.5 297,344.8 297.9,323.7 306.5,322.1 307.2,329.3 313,329.6 313.5,318.4 321.2,321.2 320.9,326.7 
			327.6,330.2 327.3,337.6 333.7,339.2 332,346.3 339.2,346.6 342.4,333.8 351.1,337.6 345.3,354 350.3,357.3 352,350.2 
			359.2,355.6 353,374.7 		"/>
		<line class="st1" x1="320.9" y1="326.7" x2="317" y2="360.1"/>
		<polyline class="st1" points="323.6,375.6 327.6,346.3 332,346.3 		"/>
		<line class="st1" x1="307.2" y1="329.3" x2="305.5" y2="378.9"/>
		<polyline class="st1" points="288.6,378.9 289.9,351.9 281,351.9 281,373.6 		"/>
		<polyline class="st1" points="268.4,369.5 267,351.9 275.5,351.9 274.4,369.5 		"/>
		<polyline class="st1" points="286.8,335.5 283.6,335.5 283.9,348.4 		"/>
		<polyline class="st1" points="301.3,377.2 302.3,344.8 294,344.8 292.8,380.1 		"/>
		<polyline class="st1" points="331.3,377 335.9,350.6 344.8,351.9 339.3,373.2 		"/>
		<line class="st1" x1="347.1" y1="371.5" x2="350.3" y2="357.3"/>
		<polyline class="st1" points="313,329.6 317,329.4 314.2,360.7 		"/>
		<polyline class="st1" points="309.7,378.9 311.4,360.7 320.9,360.7 318.3,377.2 		"/>
		<polyline class="st1" points="374.2,389.3 374.2,355.4 395.2,351.9 		"/>
		<polyline class="st1" points="132,378.9 132,348.1 96.9,341.9 		"/>
		<polyline class="st1" points="132,348.1 106.1,355.4 102.6,377 		"/>
		<line class="st1" x1="106.1" y1="355.4" x2="90.6" y2="351.9"/>
	</g>
	<g id="freepik--Speech-bubble--inject-11">
		<path class="st2" d="M211,33.4c-3-18-22.9-29.7-44.4-26.2S130,28.3,133,46.4c2.8,16.6,19.8,27.8,39.4,26.7
			c5.9,8.3,18.1,12.4,18.1,12.4c-3.6-3.9-5.9-10.1-7.1-14.4C201.7,65.6,213.7,49.7,211,33.4z"/>
		<path class="st3" d="M179.5,28.8c-5.5-1.2-8.5,2.5-9.8,4.7c-1.7-2-5.3-5-10.5-2.8c-5.7,2.3-7,10-1.5,16.3c4,4.6,10,7.4,13.1,8.6
			c0.4,0.2,0.7,0.3,1,0.4c0.2-0.1,0.6-0.3,0.9-0.5c2.8-1.8,8.1-5.6,11.2-10.8C188.2,37.3,185.5,30.1,179.5,28.8z"/>
	</g>
	<g id="freepik--Right-hand--inject-11">
		<path class="st4" d="M285.6,218.3c1,5.6,7.3,10,14.1,13.3c7,3.5,14.5,5.8,17.1,7.2c9,4.8,16.8,7.5,20,15.8s25.1,22.8,30.3,30
			c2.5,3.4,9.5,5.6,16.6,8.5c3.5,1.3,6.9,2.9,10.1,4.7l0,0c3.9,2.3,7.1,5.2,8.5,9.1c2.4,6.6,10,37.4,16.9,66.2
			c6.7,28,37.3,26.2,45.1,9.8c7.9-16.5,12.7-34.4,14.1-52.6c0,0-9.4-23.9-10.6-33.1s-4.2-7.1-12.4-18.8s-9.7-22.9-16.3-36.4
			S421.7,185.2,420,176c-1.3-7.2-6-7.4-12.1-10l-0.2-0.1c-1.7-0.7-3.4-1.6-5-2.7c-2.5-1.6-6-5.2-9.9-9.5l0,0
			c-9.4-10.5-20.8-25.2-23.4-27.6c-3.6-3.3-8.3-4.2-23.4-5.9c-12-1.3-18.4-2.5-21.2-1.3c-11.3,5.1-21,4.9-24.2,7
			c-0.8,0.5-1.2,1.4-1,2.4c1.5,7.4,23.9,9,23.9,9s23.8,35,29.8,44.1c4.5,6.7,17.6,13.6,17.6,13.6c1.1,4.7,1.9,9.3,1.9,9.3
			c-1,6.1-10.9,21.2-16.1,20.8s-29.7-7.8-41.1-9.2S285,214.4,285.6,218.3z M363.4,162.5c-5.5-5-14.1-17.3-20.2-23.7l0,0
			c4.9,2.2,10,4.2,15.1,5.7c0,0,12.9,20.4,22.5,30.1c-2-1.3-4-2.6-6-3.9h-0.1C370.8,168.3,367,165.5,363.4,162.5z"/>
		<path class="st5" d="M285.6,218.3c1,5.6,7.3,10,14.1,13.3c8.7-0.3,17.7-1,21.2-1.9c7.5-1.9-1.1,4.4-1.1,4.4s5.4,1.4,10.1-3.7
			c0,0,13.3-0.6,14.9,1.2s-1.3,5.6,0.7,11.2c0,0,8.6-9.4,11.9-10.2s0.4,4.3,8.2,11.8s13.1,15.4,22.2,14.4c-0.1-3.4,0.1-6.8,0.6-10.2
			c0.9-5,2.3-10.3,1.7-18.1s-3.7-10.1-3.7-10.1s-5.9-10.2-7.9-15.6s-1-6.5-1-6.5s-15.1-10.2-19.9-16.6s-12.9-17.5-12.9-22.3
			s-20.6-31.1-22.9-30.9l-0.3,3.9c-2.5,0.2-5-0.5-7.1-1.8c-1.8-1.2-3.9-1.8-6.1-1.5l9.7-2.6c-1.7,0.4-8,1.8-10.1,1
			c-1.9-0.8-4.8-2.2-7.1-1.5c-0.8,0.5-1.2,1.4-1,2.4c1.5,7.4,23.9,9,23.9,9s23.8,35,29.8,44.1c4.5,6.7,17.6,13.6,17.6,13.6
			c1.1,4.7,1.9,9.3,1.9,9.3c-1,6.1-10.9,21.2-16.1,20.8s-29.7-7.8-41.1-9.2S285,214.4,285.6,218.3z"/>
		<path class="st5" d="M335.8,132.4c2.4,2.3,4.8,4.4,7.4,6.4l0,0c4.9,2.2,10,4.2,15.1,5.7c0,0,12.9,20.4,22.5,30.1
			c-2-1.3-4-2.6-6-3.9c1.3,1.1,2.8,2.1,4.2,3c4.1,2.4,8.1,5.1,8.1,5.1s3.3-1.6-4.3-9.5s-20.1-25.6-21.5-29.2
			S341.1,134.1,335.8,132.4z"/>
		<path class="st5" d="M332,122.4c0,0,28.7,5.2,33.4,7c4.8,1.8,21.8,28.9,42.3,36.6c-1.7-0.7-3.4-1.6-5-2.7c-2.5-1.6-6-5.2-9.9-9.5
			l0,0c-4.1-2.6-7.7-5.8-10.8-9.5c-6.4-7.5-14.5-16.4-17.6-17.9s-22.8-4.3-27-4.7S332,122.4,332,122.4z"/>
		<path class="st5" d="M399.4,180.6c0,0,12.6-0.2,14.1,5.6s8.7,25.2,8.7,25.2s-10.1-16.2-13.4-21.2S399.4,180.6,399.4,180.6z"/>
		<path class="st5" d="M393.8,297.8c3.9,2.3,7.1,5.2,8.5,9.1c2.4,6.6,10,37.4,16.9,66.2c-3.3-24.1-11.8-58.7-9-56.8
			c3.8,2.4,9.8,29.6,10.8,23.9s0.3-30.1,4.7-31.9s6.8-9.7,6.8-9.7c-7.2,2.9-16.9,1.5-16.9,1.5C409,302.4,400.4,300.3,393.8,297.8z"
			/>
		<path class="st1" d="M363.5,162.5c-5.5-5-14.1-17.3-20.2-23.7c4.9,2.2,10,4.2,15.2,5.8c0,0,12.9,20.4,22.5,30.1
			C374.6,170.5,367.4,166,363.5,162.5z"/>
		<path class="st1" d="M478.5,330.2c-5.1-12.1-10.1-25.6-12-38.8c-4.6-5.4-9.2-9.8-12.8-15.1c-16.4-32.4-25.9-64.3-33-100
			c-1.1-1.6-2-3.4-2.6-5.2c-6.6-5.5-15.5-6.3-21-12.7c-10.1-11.9-19.2-23.6-30.3-34.6c-12.7-4-26.8-4.2-39.7-5.2
			c-8.3,3.3-17.4,4.6-25.6,7c-3.2,1.8-0.5,6,1.4,7.1c6.8,2.6,13.6,5.1,20.7,4.7c15.5,19.3,24.5,44.1,47.4,59
			c1.9,1.2,2.6,5.2,2.4,8.2c-2.7,8.8-8.6,19.4-18.7,20.6c-21.5-6.8-43.1-12.5-66.5-9.4c-2.1,0.8-3.1,1.8-2.4,4.8
			c2.6,5.2,8.3,8.7,13.1,11.1c10.7,3.9,21.5,7.8,31,13.5c4.7,3.4,6.3,9.5,9.8,14.8c8.2,9.7,18.8,15.6,27.1,24.3
			c6.5,6.5,16.4,8.3,25.1,12.1c5.8,2.5,10.5,6.9,12,13c5.3,21.5,10.6,43,16.3,64.9"/>
		<path class="st1" d="M323.7,137.4c0,0-7.2-15,1.4-16.7c0,0,9,11.1,14.7,14.9s17.1,20.8,23.8,26.9s22.8,14.9,28,19.7"/>
		<path class="st1" d="M343.2,138.8c4.9,2.2,10,4.2,15.2,5.8c0,0,12.9,20.4,22.5,30.1"/>
		<path class="st1" d="M371.1,195.1c0,0,5.2,4.5,10.6,3.2"/>
		<path class="st1" d="M373,204.3c2.1,6.4,15.1,17.9,15.1,17.9s2.8,10,2.5,14.3s-4.3,15-2.3,28.2"/>
		<path class="st1" d="M388.2,222.2c0,0,6.7,3,11.8,2.6"/>
		<path class="st1" d="M390,295.8c0.6,0.8,18,7.7,23.7,5.3c0,0,14.8,1.2,24-5.5"/>
		<path class="st1" d="M321,137c0,0-12.6-1.3-12.8-7.8c0,0,9.8-2.1,12.7-3.8"/>
		<path class="st1" d="M327.9,124c0,0,3.3-1.9,5.2-1.8s26.1,5.7,31.3,6.6s26.6,31.3,39.8,35.2"/>
		<path class="st1" d="M356.9,225.2c-3.1,1.9-11.3,13.1-11.8,19.9"/>
		<path class="st1" d="M329.4,221.1c0,0,2.8,6.3-6.3,11.4"/>
	</g>
	<g id="freepik--Left-hand--inject-11">
		<path class="st4" d="M169.2,216c-11.4,1.4-35.8,8.8-41.1,9.2c-5.2,0.4-15.1-14.7-16.1-20.8c0,0,0.8-4.6,1.9-9.2
			c0,0,13.1-6.9,17.6-13.6c6.1-9.1,29.9-44.1,29.9-44.1s22.5-1.6,23.9-9c0.2-0.9-0.2-1.9-1.1-2.4c-3.2-2-12.9-1.8-24.2-7
			c-2.7-1.2-9.2,0-21.2,1.3c-15.1,1.6-19.8,2.6-23.4,5.9c-2.5,2.3-13.9,17.1-23.4,27.5l0,0c-3.9,4.3-7.4,7.8-9.9,9.5
			c-1.6,1-3.3,1.9-5,2.7l-0.2,0.1c-6.1,2.6-10.8,2.8-12.1,10c-1.7,9.2-12.6,52.3-19.2,65.8s-8.1,24.9-16.2,36.5s-11.2,9.6-12.4,18.8
			c-1.2,9.2-10.6,33.1-10.6,33.1c1.5,18.3,6.3,36.1,14.1,52.6c7.8,16.4,38.4,18.3,45.1-9.8c6.9-28.8,14.5-59.5,16.9-66.2
			c1.4-3.9,4.6-6.7,8.5-9.1l0,0c3.2-1.8,6.6-3.4,10.1-4.7c7.2-2.8,14.2-5,16.6-8.4c5.2-7.2,27.1-21.8,30.3-30s11-11,20-15.8
			c2.6-1.4,10.1-3.8,17.1-7.2c6.8-3.4,13.1-7.8,14.1-13.3C200,214.4,180.6,214.6,169.2,216z M110.2,170.7L110.2,170.7
			c-2.1,1.3-4.1,2.6-6.1,3.9c9.6-9.7,22.5-30.1,22.5-30.1c5.2-1.6,10.2-3.5,15.1-5.7l0,0c-6.1,6.4-14.7,18.7-20.2,23.7
			C117.9,165.5,114.1,168.2,110.2,170.7L110.2,170.7z"/>
		<path class="st5" d="M199.4,218.3c-1,5.6-7.3,10-14.1,13.3c-8.7-0.3-17.7-1-21.2-1.9c-7.5-1.9,1.1,4.4,1.1,4.4s-5.4,1.4-10.1-3.7
			c0,0-13.3-0.6-14.9,1.2s1.3,5.6-0.8,11.2c0,0-8.6-9.4-11.9-10.2c-3.2-0.8-0.4,4.3-8.2,11.8s-13.1,15.4-22.2,14.4
			c0.1-3.4-0.1-6.8-0.6-10.2c-0.9-5-2.3-10.3-1.7-18.1s3.7-10.1,3.7-10.1s5.8-10.2,7.9-15.6s1-6.5,1-6.5s15-10.2,19.9-16.6
			c4.9-6.4,12.9-17.5,12.9-22.3s20.6-31.1,22.9-30.9l0.3,3.9c2.5,0.2,5-0.5,7.1-1.8c1.8-1.2,3.9-1.8,6.1-1.5l-9.7-2.6
			c1.7,0.4,8,1.8,10.1,1c1.9-0.8,4.8-2.2,7.1-1.5c0.9,0.4,1.3,1.4,1.1,2.4c-1.4,7.4-23.9,9-23.9,9s-23.8,35-29.9,44.1
			c-4.5,6.7-17.6,13.6-17.6,13.6c-1.1,4.6-1.9,9.2-1.9,9.2c1,6.1,10.8,21.2,16.1,20.8c5.3-0.4,29.7-7.8,41.1-9.2
			S200,214.4,199.4,218.3z"/>
		<path class="st5" d="M149.2,132.4c-2.4,2.3-4.8,4.4-7.4,6.4l0,0c-4.9,2.2-10,4.2-15.1,5.7c0,0-12.9,20.4-22.5,30.1
			c2-1.3,4-2.6,6-3.9c-1.3,1.1-2.8,2.1-4.2,3c-4.1,2.4-8.1,5.1-8.1,5.1s-3.3-1.6,4.3-9.5s20.2-25.6,21.5-29.2
			S143.9,134.1,149.2,132.4z"/>
		<path class="st5" d="M153,122.4c0,0-28.6,5.2-33.4,7c-4.8,1.8-21.8,28.9-42.3,36.6c1.7-0.7,3.4-1.6,5-2.7c2.4-1.6,6-5.2,9.9-9.5
			l0,0c4.1-2.6,7.7-5.8,10.8-9.5c6.4-7.5,14.5-16.4,17.6-17.9s22.8-4.3,27-4.7S153,122.4,153,122.4z"/>
		<path class="st5" d="M85.7,180.6c0,0-12.6-0.2-14.1,5.6s-8.7,25.2-8.7,25.2s10.1-16.2,13.4-21.2S85.7,180.6,85.7,180.6z"/>
		<path class="st5" d="M91.2,297.8c-3.9,2.3-7.1,5.2-8.5,9.1c-2.4,6.6-10,37.4-16.9,66.2c3.3-24.1,11.8-58.7,9-56.8
			C71,318.6,65,345.8,64,340.1s-0.3-30.1-4.7-31.9s-6.8-9.7-6.8-9.7c7.2,2.9,17,1.5,17,1.5C76,302.4,84.6,300.3,91.2,297.8z"/>
		<path class="st1" d="M104.1,174.6c9.6-9.7,22.5-30.1,22.5-30.1c5.2-1.6,10.2-3.5,15.2-5.8c-6.1,6.4-14.7,18.7-20.2,23.7
			C117.6,166,110.4,170.5,104.1,174.6z"/>
		<path class="st1" d="M65.9,370.5c5.5-22.1,8.6-45.4,18.9-67.3c2.7-4.2,6.6-5.5,10.4-7.9c5.8-2.5,11.7-4,16.5-6.4
			c11.8-8.5,22.8-18.1,32.8-28.7c4.5-6.4,8-12.7,13.8-16.2c13.3-9.1,33.4-8.7,41.2-24.4c0.8-3.1-3.3-3.7-5.4-4.6
			c-23.3-2.1-43.8,4.5-65.4,10.3c-9.2-2.3-13-12-16.6-19.7c-2.6-6.8,3-12.3,9.8-14.8c2.1-1.2,4-2.7,5.7-4.5
			c12.7-16.1,22.4-32.9,34.2-48.9c8-0.6,14.9-2.2,21.6-5.8c1.9-1.2,2.7-4.2,1.6-5.2c-9.4-5.3-18.5-5.5-28.6-6.7
			c-9.1-1.3-19.1-0.5-28,1.3c-5.9,1.5-11.8,3-16.4,8.4c-8.2,10.7-15.4,20.3-24.7,30.1c-5.6,5.5-12.5,7-19.2,10.6
			c-0.9,1.1-1.9,1.2-1.8,2.1c-7.3,33.7-16.8,65.6-32.2,97.9c-4.3,8.4-9.9,13.8-15.3,21.3c-4.4,7.4-2.7,11.1-12.1,38.8"/>
		<path class="st1" d="M161.4,137.4c0,0,7.2-15-1.4-16.7c0,0-9,11.1-14.6,14.9s-17.1,20.9-23.8,26.9c-6.7,6.1-22.8,14.8-28,19.7"/>
		<path class="st1" d="M141.8,138.8c-4.9,2.2-10,4.2-15.2,5.8c0,0-12.9,20.4-22.5,30.1"/>
		<path class="st1" d="M113.9,195.1c0,0-5.2,4.5-10.6,3.2"/>
		<path class="st1" d="M112,204.3c-2.1,6.4-15.1,17.9-15.1,17.9s-2.8,10-2.4,14.3s4.3,15,2.3,28.2"/>
		<path class="st1" d="M96.8,222.2c0,0-6.7,3-11.8,2.6"/>
		<path class="st1" d="M95,295.8c-0.6,0.8-18,7.7-23.7,5.3c0,0-14.8,1.2-24-5.5"/>
		<path class="st1" d="M164,137c0,0,12.6-1.3,12.8-7.8c0,0-9.8-2.1-12.7-3.8"/>
		<path class="st1" d="M157.2,124c0,0-3.3-1.9-5.2-1.8s-26.1,5.7-31.3,6.6s-26.6,31.3-39.8,35.2"/>
		<path class="st1" d="M128.1,225.2c3.2,1.9,11.3,13.1,11.8,19.9"/>
		<path class="st1" d="M155.6,221.1c0,0-2.8,6.3,6.3,11.4"/>
	</g>
	<g id="freepik--Burger--inject-11">
		<path class="st3" d="M328.1,213.6c-3-3.8-46.8-6.2-87-7.7c-35.2-1.3-78-0.9-82,1.8c-3.1,2.1-2.6,11.8-0.6,15s7.8,5.5,11.2,6
			c12.7,1.9,56.4,10.3,69.7,10.9s30.8,0.6,45.8,0c12.2-0.5,37.5-1.6,42.9-10.5C330.1,225.8,329.2,215,328.1,213.6z"/>
		<g>
			<defs>
				<path id="SVGID_1_" d="M328.1,213.6c-3-3.8-46.8-6.2-87-7.7c-35.2-1.3-78-0.9-82,1.8c-3.1,2.1-2.6,11.8-0.6,15s7.8,5.5,11.2,6
					c12.7,1.9,56.4,10.3,69.7,10.9s30.8,0.6,45.8,0c12.2-0.5,37.5-1.6,42.9-10.5C330.1,225.8,329.2,215,328.1,213.6z"/>
			</defs>
			<clipPath id="SVGID_2_">
				<use xlink:href="#SVGID_1_"  style="overflow:visible;"/>
			</clipPath>
			<g class="st6">
				<path class="st7" d="M157.6,210c0.3-0.9,0.8-1.7,1.6-2.3c4-2.7,46.8-3,82-1.8c40.2,1.5,84,3.9,87,7.7
					c-2.7,4.8-13.1,10.2-19,11.1c-9.3,1.3-18.7,1.9-28.1,2c-9.2,0-35-1.5-47.2-2s-30.4-1.6-36-3.8s-28.3-4.5-35.6-7.4
					C160.3,213,158.7,211.7,157.6,210z"/>
				<path class="st7" d="M328.9,226.6c-0.1,0.9-0.4,1.7-0.8,2.5c-5.4,8.9-30.7,9.9-42.9,10.5c-15,0.6-32.5,0.6-45.8,0
					s-57-9-69.7-10.9c-3.4-0.5-9.2-2.8-11.2-6c-1-2.1-1.6-4.3-1.6-6.6c4.5,5.7,6.3,8.6,24,11.9c17.9,3.3,93.2,10.4,122.1,7.5
					C319.1,233.8,326,229.9,328.9,226.6z"/>
				<path class="st1" d="M241.5,224.9c1.5,0.1,3,0.2,4.5,0.3"/>
				<path class="st1" d="M194.7,220.5c14.4,2.3,29,4.1,43.6,4.2"/>
				<path class="st1" d="M157.6,210c2.4,4.4,8.3,4.7,12.6,6c6.6,2,13.8,2.8,20.6,3.9"/>
				<path class="st1" d="M276,227.1c-1,0-2-0.1-3.1-0.1"/>
				<path class="st1" d="M287.4,227c-1.4,0.1-2.7,0.1-4.1,0.1"/>
				<path class="st1" d="M328.1,213.6c-5.2,10.6-18.8,12.1-29.2,12.7"/>
			</g>
		</g>
		<path class="st1" d="M328.1,213.6c-3-3.8-46.8-6.2-87-7.7c-35.2-1.3-78-0.9-82,1.8c-3.1,2.1-2.6,11.8-0.6,15s7.8,5.5,11.2,6
			c12.7,1.9,56.4,10.3,69.7,10.9s30.8,0.6,45.8,0c12.2-0.5,37.5-1.6,42.9-10.5C330.1,225.8,329.2,215,328.1,213.6z"/>
		<path class="st8" d="M162.4,190.4c0,0-3.4,5.9-2.3,7.7s0.4,8.6,0,10.4s5,5.1,9.2,4.1s13.9,3.3,17.2,2.8s8.3,1,11.1,1.6
			s7.8,4.2,11.1,3.4s7.2,0,9.4,0s3.6,0,8,0.1s9.4,2.7,11.4,1.6s10,0.3,12.2,0s13,0.6,15.7,0.3s6.2,0.3,7.4-0.3s4.2,0.5,5.8,0.3
			c2.7-0.4,5.5-0.5,8.3-0.3c3.4,0.4,2.8,1.2,8.4,0.3s7.8-0.3,7.8-0.3s4.4-1,7-1.8s3.6,1.8,5.9,0s3.1-2.7,4.2-3.4s2.4-2.5,3-2.4
			c0.9,0,1.6-0.7,1.7-1.5c0-0.8,1.6-3.1,1.1-6.8s0.1-15-2.8-18.8S194.6,173.5,162.4,190.4z"/>
		<g>
			<defs>
				<path id="SVGID_3_" d="M162.4,190.4c0,0-3.4,5.9-2.3,7.7s0.4,8.6,0,10.4s5,5.1,9.2,4.1s13.9,3.3,17.2,2.8s8.3,1,11.1,1.6
					s7.8,4.2,11.1,3.4s7.2,0,9.4,0s3.6,0,8,0.1s9.4,2.7,11.4,1.6s10,0.3,12.2,0s13,0.6,15.7,0.3s6.2,0.3,7.4-0.3s4.2,0.5,5.8,0.3
					c2.7-0.4,5.5-0.5,8.3-0.3c3.4,0.4,2.8,1.2,8.4,0.3s7.8-0.3,7.8-0.3s4.4-1,7-1.8s3.6,1.8,5.9,0s3.1-2.7,4.2-3.4s2.4-2.5,3-2.4
					c0.9,0,1.6-0.7,1.7-1.5c0-0.8,1.6-3.1,1.1-6.8s0.1-15-2.8-18.8S194.6,173.5,162.4,190.4z"/>
			</defs>
			<clipPath id="SVGID_4_">
				<use xlink:href="#SVGID_3_"  style="overflow:visible;"/>
			</clipPath>
			<g class="st9">
				<g class="st10">
					<path class="st4" d="M233.4,214.2c-1.4,0-3.5,1.9-3.5,1.9l6.9,1.6c0,0,9.4,2.1,10,1.5s0.6-5,0-6.6s-0.6-2.9-2-5.6
						s-5.5-4.3-5.7-6.3s-0.2-1-3.3-2.5s-8.5,0-11.6-1.3s-7.7-2.9-7.7-2.9l12.1-2.5c0,0-15.6,0.1-17.9,0s-6.9,1.8-9.2,2.5
						s-6.2,1.4-6.2,1.4s11.7,2.8,12.2,2.8h-13.7c-4.2,0-5-0.8-7.1,0s-1.9,1.9-4.1,1.9c-1.4,0.1-2.8,0.1-4.2,0
						c-2.9-0.2-7.2-0.8-7.2-0.8s-3.2,2.3-3.8,2.7s-4.4,0.4-6.7-2.6c0,0,0-0.1,0-0.1c0.3,2.6,0.3,5.2-0.1,7.8c0-0.1,0-0.2,0-0.3
						c0.5,0.4,1,0.7,1.6,0.9c2.9,0.8,0.8,3.1,3.9,2.7s6.3-3.1,8.5-1.5s9.6,3.1,11.4,3.3s2.9-2.5,7.3,0c4.4,2.5,3.3,1.9,6.3,2.5
						s5.9-1.9,7.8,0s5.5,2.1,8.2,1.7s4.6,3.3,5.4,0.2s-4.8-5-6.4-5s-5-0.6-5.8-1.7s-4.8-0.6-2.9-1.5s14.4,0.6,16.7,1.5
						s3.9,0.2,7.5,1c2.2,0.6,4.4,0.9,6.7,0.8c1.9,0,1.9-0.4,3.7,0S234.9,214.2,233.4,214.2z"/>
					<path class="st4" d="M325.8,210.7c0,0-0.5-0.5-2.5-4.2s-8.1-4.1-10.5-4.6c-2.2-0.4-4.5-0.4-6.7,0c-2.9,0.4-5.2,0.4-6.5,0
						s3.3-2.1,5.6-2.3s3.4-0.8,5-1c0.9-0.2,1.7-0.8,1.9-1.7c0,0-5.4,0.3-12.7,0s-9.1-0.5-12.5,0s-7.5,3-9.8,3.2s-6.5,0-5,0.8
						c3.4,1.4,7,2.2,10.6,2.6c2.9,0.1,5.6,0,5.6,0s-14.4,3.3-17.3,3.7s-3.1,2.1-4.3,2.3s-2.5,1.4-4.6,1.4s-3.7,0.4-3.7,1.3
						s-3.2,3.3,0.9,3.1c2.6-0.1,5.1-0.1,7.6,0.2l-9.4,2.1c0,0,3.7,2.2,10.6,1.6s7.1-2,11.9-2.3s8.1,0.8,11,0.6s3.7-1.2,7-1.9
						s4.5,0.4,7.8,0.4s5.8,2.1,8.5,0.2s3.8-2.3,2.8-2.7s-11.5,0.8-7.1-0.8s8-2.7,9.4-2.5c1.4,0,2.7,0.6,3.7,1.5
						c0.6,0.5,1.3,0.3,2.2,0C325.5,211.5,325.6,211.1,325.8,210.7z"/>
				</g>
				<path class="st1" d="M175.6,203.5c3.3-0.1,6.9,1.4,10,1.8s6-0.8,8.7-0.1s5.4,2.9,8.9,1.5"/>
				<path class="st1" d="M214.7,202.6h3.4l2.7,1.4h3.3"/>
				<path class="st1" d="M228.1,204.1c2.3,0.8,4.8,0.4,7.2,0"/>
				<path class="st1" d="M271.7,213.9c1.4-0.4,3.1-0.6,4.1,0.4c0.2,0.2,0.4,0.4,0.6,0.5c0.2,0.1,0.3,0.1,0.5,0.1
					c2.3,0.3,4.6-0.2,6.6-1.4c0.3-0.2,0.6-0.4,1-0.5c0.7,0,1.4,0.1,2,0.4c0.6,0.2,1.5,0.1,1.8-0.5"/>
				<path class="st1" d="M293.6,213.1c1.5,0.4,3.1,0,4.1-1.2"/>
				<path class="st1" d="M305.4,211.9c1.5-0.5,3.2,0.1,4.8,0.4c0.6,0.2,1.2,0.2,1.8,0c0.4-0.2,0.9-0.4,1.2-0.7
					c1.3-0.7,2.9-1,4.4-0.8c1.5,0.2,3,0.6,4.4,1.1"/>
				<path class="st1" d="M280,206c1.8-0.2,3.6-0.1,5.3,0.2c0.6,0.1,1.4,0.2,1.8-0.3"/>
				<path class="st1" d="M295.8,205.3c2-0.6,4.1-0.8,6.2-0.7c1,0.1,1.9,0.1,2.9,0c0.5-0.1,1-0.2,1.6-0.2c0.5,0.1,0.9,0.2,1.4,0.4
					c1.5,0.4,3-0.4,4.5-0.7c1.3-0.2,2.6-0.2,3.9,0.1"/>
				<path class="st1" d="M162.6,205.1c0.6-0.3,1.2,0.5,1.7,0.8c0.9,0.6,2.1,0.1,3.1-0.3s2.3-0.6,3,0.2"/>
				<path class="st1" d="M182.9,198.7c2.1-0.7,4.2,1.1,6.4,1.4c1.6,0.2,3.3-0.4,4.7,0.3c0.4,0.2,0.7,0.5,1.1,0.6
					c1.6,0.6,3.3-0.9,5-1.1"/>
				<path class="st1" d="M204.3,200.5c0.9,0.2,1.7,0.5,2.3,1.1c0.7,0.5,1.7,0.6,2.4,0.3"/>
			</g>
		</g>
		<path class="st11" d="M162.4,190.4c0,0-3.4,5.9-2.3,7.7s0.4,8.6,0,10.4s5,5.1,9.2,4.1s13.9,3.3,17.2,2.8s8.3,1,11.1,1.6
			s7.8,4.2,11.1,3.4s7.2,0,9.4,0s3.6,0,8,0.1s9.4,2.7,11.4,1.6s10,0.3,12.2,0s13,0.6,15.7,0.3s6.2,0.3,7.4-0.3s4.2,0.5,5.8,0.3
			c2.7-0.4,5.5-0.5,8.3-0.3c3.4,0.4,2.8,1.2,8.4,0.3s7.8-0.3,7.8-0.3s4.4-1,7-1.8s3.6,1.8,5.9,0s3.1-2.7,4.2-3.4s2.4-2.5,3-2.4
			c0.9,0,1.6-0.7,1.7-1.5c0-0.8,1.6-3.1,1.1-6.8s0.1-15-2.8-18.8S194.6,173.5,162.4,190.4z"/>
		<path class="st12" d="M165.1,182.2c0,0-6.7,8.2-4.6,11.7s3.1,5.3,3.1,9.5s1.8,5.7,3.2,0s1.7-7.7,4.2-8.1s6.3,1.3,6,2.9
			s3.9,2.3,4.8-1.5s7.2-3,11.9-4.1s6.1-5.9,9.4-5.9s13.6,3.1,19.4,1.7s13,3.2,15.3,5.3s3.9,6.6,6.9,7.4s2.2,16.9,5.8,17.8
			c3.6,0.8,2.5-10.8,6.4-11.9c3.9-1.1,2.8,4.2,5.5,1.9s1.7-6.6,5-8.4s3-3.5,5.5-5.3s2.8-4.8,7-4.8s10.5-0.6,12.5-1.4
			s4.7-0.8,9.2,2.5s4.8,3.5,8.5,2.3s2.6-5.1,7.1-1.7s4,7.5,6,7.2s2.6,8,2.8,9.7s2.4,1.1,2.2-3.6c-0.4-5.3-0.4-10.6,0-15.8
			c0.6-8.5-10.8-23.8-45.8-25.5S183.4,163.9,165.1,182.2z"/>
		<g>
			<defs>
				<path id="SVGID_5_" d="M165.1,182.2c0,0-6.7,8.2-4.6,11.7s3.1,5.3,3.1,9.5s1.8,5.7,3.2,0s1.7-7.7,4.2-8.1s6.3,1.3,6,2.9
					s3.9,2.3,4.8-1.5s7.2-3,11.9-4.1s6.1-5.9,9.4-5.9s13.6,3.1,19.4,1.7s13,3.2,15.3,5.3s3.9,6.6,6.9,7.4s2.2,16.9,5.8,17.8
					c3.6,0.8,2.5-10.8,6.4-11.9c3.9-1.1,2.8,4.2,5.5,1.9s1.7-6.6,5-8.4s3-3.5,5.5-5.3s2.8-4.8,7-4.8s10.5-0.6,12.5-1.4
					s4.7-0.8,9.2,2.5s4.8,3.5,8.5,2.3s2.6-5.1,7.1-1.7s4,7.5,6,7.2s2.6,8,2.8,9.7s2.4,1.1,2.2-3.6c-0.4-5.3-0.4-10.6,0-15.8
					c0.6-8.5-10.8-23.8-45.8-25.5S183.4,163.9,165.1,182.2z"/>
			</defs>
			<clipPath id="SVGID_6_">
				<use xlink:href="#SVGID_5_"  style="overflow:visible;"/>
			</clipPath>
			<g class="st13">
				<path class="st14" d="M165.1,182.2c0,0-6.7,8.2-4.6,11.7s3.1,5.3,3.1,9.5s1.8,5.7,3.2,0s1.7-7.7,4.2-8.1s6.3,1.3,6,2.9
					s3.9,2.3,4.8-1.5s7.2-3,11.9-4.1s6.1-5.9,9.4-5.9s13.6,3.1,19.4,1.7s13,3.2,15.3,5.3s3.9,6.6,6.9,7.4s2.2,16.9,5.8,17.8
					c3.6,0.8,2.5-10.8,6.4-11.9c3.9-1.1,2.8,4.2,5.5,1.9s1.7-6.6,5-8.4s3-3.5,5.5-5.3s2.8-4.8,7-4.8s10.5-0.6,12.5-1.4
					s4.7-0.8,9.2,2.5s4.8,3.5,8.5,2.3s2.6-5.1,7.1-1.7s4,7.5,6,7.2s2.6,8,2.8,9.7s2.4,1.1,2.2-3.6c-0.4-5.3-0.4-10.6,0-15.8
					c0.6-8.5-10.8-23.8-45.8-25.5S183.4,163.9,165.1,182.2z"/>
				<g class="st10">
					<path class="st8" d="M326.1,209.2c-0.3-1.7-0.8-10-2.8-9.7s-1.6-3.9-6-7.2s-3.3,0.6-7.1,1.7s-4,1-8.5-2.3s-7.2-3.3-9.1-2.5
						s-8.4,1.4-12.5,1.4s-4.5,3-7,4.8s-2.2,3.5-5.5,5.3s-2.2,6.2-5,8.4s-1.7-3.1-5.5-1.9c-3.9,1.1-2.8,12.8-6.4,11.9
						s-2.8-16.9-5.8-17.8s-4.7-5.3-6.9-7.4s-9.4-6.7-15.3-5.3s-16.1-1.7-19.4-1.7s-4.7,4.8-9.4,5.9s-11.1,0.3-11.9,4.1
						s-5,3.1-4.8,1.5s-3.6-3.3-6-2.9s-2.8,2.4-4.2,8.1s-3.1,4.3-3.2,0s-1-6-3.2-9.5c-0.3-0.5-0.4-1-0.4-1.6c0.5,0.8,1.3,1.3,2.1,1.6
						c2.3,0.3,1.8,6.3,2.9,5.1s0.9-5.5,3.6-6c3.3-0.3,6.7,0.5,9.5,2.4c2.3,1.7,3.4-3.6,6.4-4s7.8,1.1,10.5-1.8s5.2-4.6,7.7-4.8
						s8.7,3,12.7,0.6s7.5-1.9,9.8-0.6s5.6,4.6,8.5,3.5s8.1,0.6,9.2,3.1s2.9,6.5,4.8,5.3s3.5,1.5,4.6,3.6s1,0.8,3.1-0.8
						c2.1-1.7,6,2.7,7.7,0s2.7-5.5,5.4-5.7s3.1-0.5,5.6-2.5s5.2-3.3,10.6-3c1.4,0,2.8-0.1,4.2-0.4l0,0c3.7-0.7,6.9-2.1,9-1.3
						c0.3,0.1,0.5,0.2,0.8,0.4l0,0c2.8,1.6,6.3,5.9,9.1,4.3c3.1-1.8,3.1-6,6.9-3.4s5.2,5.3,7.1,4.7s1.6-2.2,3-1.3
						c1,0.5,2.2,0.5,3.3,0.2c-0.3,4.6-0.3,9.3,0.1,13.9C328.5,210.3,326.4,210.8,326.1,209.2z"/>
					<path class="st8" d="M327.9,186.3c-3.5,0.9-1.1-1.2-4.7-0.8c-4.3,0.5-5.8,0.8-7.4-0.6s-5.9-0.9-15.4,1.8
						c-0.5,0.1-1.1,0.3-1.6,0.4c-3.2,0.6-6.5,0.9-9.8,0.9c-7.3,0.1-14.9-0.5-20.4,0.8c-8.5,1.9-9.8,1.4-14.8-1.1
						c-5-2.5-14.6-3.7-18.5-3.9s-9.8-2.9-15.2-4.2s-10,2.9-12.8,2.2s-13.3,3.7-20.7,6.8s-16.6,1.7-22.9,0c-0.8-0.2-1.5-0.5-2.2-0.9
						c1-1.9,2.2-3.8,3.6-5.5c18.3-18.3,82.5-19.7,117.4-18C313.2,165.8,325.7,177.7,327.9,186.3z"/>
				</g>
			</g>
		</g>
		<path class="st1" d="M165.1,182.2c0,0-6.7,8.2-4.6,11.7s3.1,5.3,3.1,9.5s1.8,5.7,3.2,0s1.7-7.7,4.2-8.1s6.3,1.3,6,2.9
			s3.9,2.3,4.8-1.5s7.2-3,11.9-4.1s6.1-5.9,9.4-5.9s13.6,3.1,19.4,1.7s13,3.2,15.3,5.3s3.9,6.6,6.9,7.4s2.2,16.9,5.8,17.8
			c3.6,0.8,2.5-10.8,6.4-11.9c3.9-1.1,2.8,4.2,5.5,1.9s1.7-6.6,5-8.4s3-3.5,5.5-5.3s2.8-4.8,7-4.8s10.5-0.6,12.5-1.4
			s4.7-0.8,9.2,2.5s4.8,3.5,8.5,2.3s2.6-5.1,7.1-1.7s4,7.5,6,7.2s2.6,8,2.8,9.7s2.4,1.1,2.2-3.6c-0.4-5.3-0.4-10.6,0-15.8
			c0.6-8.5-10.8-23.8-45.8-25.5S183.4,163.9,165.1,182.2z"/>
		<path class="st0" d="M333.7,171.7l-0.2,0.5l-3,9c-9,0.7-17.9-1.3-25.9-5.5c-10.1-5.5-6.4-10.8-4.2-12.9c0.4-0.4,0.7-0.7,1.1-1
			L333.7,171.7z"/>
		<g>
			<defs>
				<path id="SVGID_7_" d="M333.7,171.7l-0.2,0.5l-3,9c-9,0.7-17.9-1.3-25.9-5.5c-10.1-5.5-6.4-10.8-4.2-12.9c0.4-0.4,0.7-0.7,1.1-1
					L333.7,171.7z"/>
			</defs>
			<clipPath id="SVGID_8_">
				<use xlink:href="#SVGID_7_"  style="overflow:visible;"/>
			</clipPath>
			<g class="st15">
				<path class="st16" d="M333.7,171.7l-0.2,0.5c-2.3,2.7-5.9,4.1-9.4,3.5c-7-1-17.2-7.9-23.6-12.9c0.4-0.4,0.7-0.7,1.1-1
					L333.7,171.7z"/>
				<path class="st16" d="M314.5,178.7c0,0,2.8-0.1,3.9-4.9s4.2-0.9,7.8,0s3.5-1.9,7.4-1.7l-31.9-10.4
					C301.7,161.7,293.6,174,314.5,178.7z"/>
			</g>
		</g>
		<path class="st1" d="M333.7,171.7l-0.2,0.5l-3,9c-9,0.7-17.9-1.3-25.9-5.5c-10.1-5.5-6.4-10.8-4.2-12.9c0.4-0.4,0.7-0.7,1.1-1
			L333.7,171.7z"/>
		<path class="st0" d="M226.2,169.5c0,0-23.3,13-38.6,16c-9.2,1.8-18.7,1.6-27.9-0.6l-2.3-7l-0.3-0.9l5.3-7.5
			c19.2-5.1,40.6-3.5,53.1-1.8C222,168.5,226.2,169.5,226.2,169.5z"/>
		<g>
			<defs>
				<path id="SVGID_9_" d="M226.2,169.5c0,0-23.3,13-38.6,16c-9.2,1.8-18.7,1.6-27.9-0.6l-2.3-7l-0.3-0.9l5.3-7.5
					c19.2-5.1,40.6-3.5,53.1-1.8C222,168.5,226.2,169.5,226.2,169.5z"/>
			</defs>
			<clipPath id="SVGID_10_">
				<use xlink:href="#SVGID_9_"  style="overflow:visible;"/>
			</clipPath>
			<g class="st17">
				<path class="st16" d="M215.4,167.6c-9.8,3.9-35.2,13.2-48.6,12c-3.2-0.2-6.4-0.8-9.4-1.8l-0.3-0.9l5.3-7.5
					C181.6,164.4,203,166,215.4,167.6z"/>
				<path class="st16" d="M215.9,174.8c0,0-0.4-4-8.6-1.6s-16.9,6.7-19.6,5.5s-3.3-4.3-9-3.1s-9.7,5.9-15.1,5.4s-6.6-4-6.6-4
					l5.3-7.5c0,0,23.1-7.1,63.8,0L215.9,174.8z"/>
			</g>
		</g>
		<path class="st1" d="M226.2,169.5c0,0-23.3,13-38.6,16c-9.2,1.8-18.7,1.6-27.9-0.6l-2.3-7l-0.3-0.9l5.3-7.5
			c19.2-5.1,40.6-3.5,53.1-1.8C222,168.5,226.2,169.5,226.2,169.5z"/>
		<path class="st0" d="M312.8,166v13.6c0,0-7.2,8.7-40.2,7.1s-54.4-15-54.4-15c3.3-1.3,6.7-2.3,10.1-3.1
			C260.9,160.7,312.8,166,312.8,166z"/>
		<g>
			<defs>
				<path id="SVGID_11_" d="M312.8,166v13.6c0,0-7.2,8.7-40.2,7.1s-54.4-15-54.4-15c3.3-1.3,6.7-2.3,10.1-3.1
					C260.9,160.7,312.8,166,312.8,166z"/>
			</defs>
			<clipPath id="SVGID_12_">
				<use xlink:href="#SVGID_11_"  style="overflow:visible;"/>
			</clipPath>
			<g class="st18">
				<path class="st16" d="M312.8,166v3.9c-2.9,5.3-12.6,10.3-33.6,11.4c-26.1,1.4-43.8-8.1-50.9-12.8
					C260.9,160.7,312.8,166,312.8,166z"/>
				<path class="st16" d="M228.3,168.5c0,0,2.9,3,6.3,2.4s5.6,1,9.6,3.9s7.4,1.2,15.1-1.7c7.6-2.8,6.6,4.9,14.7,4.4
					s5.1-9.9,11.3-7.7s7.5,7.1,13,3.8s12.5-4.9,14.5-2.2V166C312.8,166,261.9,161.5,228.3,168.5z"/>
			</g>
		</g>
		<path class="st1" d="M312.8,166v13.6c0,0-7.2,8.7-40.2,7.1s-54.4-15-54.4-15c3.3-1.3,6.7-2.3,10.1-3.1
			C260.9,160.7,312.8,166,312.8,166z"/>
		<path class="st1" d="M157.1,177c0,0,4.3,2.3,15.7,2.7s39.3-9.8,39.3-9.8"/>
		<path class="st1" d="M231.9,171.7c0,0,30.8,10.6,48.7,9.6s29.5-8,29.5-8"/>
		<path class="st1" d="M312.8,169.9c0,0,6.6,5.7,11.4,5.7s6.9-1.5,9.6-3.9"/>
		<path class="st1" d="M250.7,169.9c-2.3,0.6,7.3,4.4,12.5,4.9s2.3-6.7,2.3-6.7"/>
		<path class="st1" d="M271.9,168.9c0,0-3.8,5.6,0,6.7s14.6,0,15.4-1.8s-6.7-5.7-6.7-5.7"/>
		<path class="st1" d="M289.8,168.1c0,1.2,4.7,5.9,7.3,5.7s9.9-1.8,10.1-3.9s-12.9-1.8-12.9-1.8"/>
		<path class="st1" d="M248.8,167.6c0,0-4.8,2.1-7.3,2.4s-8.4-0.6-6.6-1.9"/>
		<path class="st1" d="M184.6,169.9c0,0-5.1,6.9-8.7,6.4s-9.4,0-9.2-1.6s13.9-4.9,13.9-4.9"/>
		<path class="st1" d="M188,169.9c0,0-1,3.9,1.1,3.9s13.9-2.9,14.6-3.9s-7.9-1.9-7.9-1.9"/>
		<path class="st1" d="M315.9,168.1c2.2,1.5,4.5,2.8,6.9,4c1.9,0.7,5.5,0.7,5.5,0s-5-2.2-5-2.2"/>
		<path class="st3" d="M154.1,152.5c4.1-10.6,6.4-21.1,15.9-26.6c24.5-14.4,60.3-21.8,89.3-19.7c29,2.1,46.9,10.4,65.4,30
			c1.1,1.2,6.5,14.8,7.6,16c1.8,2,3.6,4.2,4.3,6.8s-0.3,5.9-2.7,6.9c-1.6,0.7-3.5,0.3-5.3,0c-40.2-8.2-81.7-5.8-122.5-1.5
			c-13.3,1.4-26.6,3-39.9,2.2c-5.5-0.3-12.3-2.2-13.2-7.6c-0.2-1.9,0.1-3.9,0.9-5.6C153.9,153.1,154,152.8,154.1,152.5z"/>
		<g>
			<defs>
				<path id="SVGID_13_" d="M154.1,152.5c4.1-10.6,6.4-21.1,15.9-26.6c24.5-14.4,60.3-21.8,89.3-19.7c29,2.1,46.9,10.4,65.4,30
					c1.1,1.2,6.5,14.8,7.6,16c1.8,2,3.6,4.2,4.3,6.8s-0.3,5.9-2.7,6.9c-1.6,0.7-3.5,0.3-5.3,0c-40.2-8.2-81.7-5.8-122.5-1.5
					c-13.3,1.4-26.6,3-39.9,2.2c-5.5-0.3-12.3-2.2-13.2-7.6c-0.2-1.9,0.1-3.9,0.9-5.6C153.9,153.1,154,152.8,154.1,152.5z"/>
			</defs>
			<clipPath id="SVGID_14_">
				<use xlink:href="#SVGID_13_"  style="overflow:visible;"/>
			</clipPath>
			<g class="st19">
				<path class="st7" d="M336.7,160.6c0.1,2.2-1.1,4.3-3,5.3c-1.6,0.7-3.5,0.3-5.3,0c-40.2-8.2-81.7-5.8-122.5-1.5
					c-13.3,1.4-26.6,3-39.9,2.2c-5.5-0.3-12.3-2.2-13.2-7.6c-0.2-1-0.1-2.1,0.1-3.1c1.9,1.5,4.1,2.9,5.7,2.8
					c3.8-0.2,15.8-7.7,26.9-7.1s29.1,1,37.5-1.4s27-4.4,36.3-4.2c9.3,0.2,31.6,6.3,37.4,6.4s10.6,4.4,17.7,2.1
					C321,152.3,331.1,154.7,336.7,160.6z"/>
				<path class="st4" d="M271.8,114.9c0,0,0.5,4.4,1.8,4.1S271.8,114.9,271.8,114.9z"/>
				<path class="st4" d="M247.7,122.3c0,0,0.5,4.4,1.9,4.2S247.7,122.3,247.7,122.3z"/>
				<path class="st4" d="M236.5,126.2c0,0-2,1.4-0.9,1.9C236.8,128.6,236.5,126.2,236.5,126.2z"/>
				<path class="st4" d="M195.5,116c0,0-2,1.4-0.9,1.9S195.5,116,195.5,116z"/>
				<path class="st4" d="M268.7,109.6c0,0-2,1.4-0.9,1.9S268.7,109.6,268.7,109.6z"/>
				<path class="st4" d="M298,116.3c0,0-2,1.4-0.9,1.9S298,116.3,298,116.3z"/>
				<path class="st4" d="M201.5,123.4c0,0-2,1.4-0.9,1.9S201.5,123.4,201.5,123.4z"/>
				<path class="st4" d="M245,114.9c0,0-3.8,1-2.6,2.1S245,114.9,245,114.9z"/>
				<path class="st4" d="M244.1,107.4c0,0,3.4,2.1,3.3,0.4S244.1,107.4,244.1,107.4z"/>
				<path class="st4" d="M262.3,113.7c0,0-3.9,1-2.6,2.1S262.3,113.7,262.3,113.7z"/>
				<path class="st4" d="M256,119c0,0,2,0.4,0.6,1.4C255.3,121.4,256,119,256,119z"/>
				<path class="st4" d="M258.8,107.6c0,0,2,0.4,0.6,1.4S258.8,107.6,258.8,107.6z"/>
				<path class="st4" d="M254.2,133.3c0,0,2,0.4,0.6,1.4C253.4,135.7,254.2,133.3,254.2,133.3z"/>
				<path class="st4" d="M199.8,133.6c0,0,2,0.4,0.6,1.4S199.8,133.6,199.8,133.6z"/>
				<path class="st4" d="M174,132.2c0,0,2,0.4,0.6,1.4S174,132.2,174,132.2z"/>
				<path class="st4" d="M266.9,123.2c0,0-1.8-1-0.1-1.5S266.9,123.2,266.9,123.2z"/>
				<path class="st4" d="M319.4,135.7c0,0-1.8-1-0.1-1.5S319.4,135.7,319.4,135.7z"/>
				<path class="st4" d="M309.5,135.2c0,0-1.8-1-0.1-1.5S309.5,135.2,309.5,135.2z"/>
				<path class="st4" d="M227.9,110c0,0-1.8-1-0.1-1.5S227.9,110,227.9,110z"/>
				<path class="st4" d="M280.4,130c0,0-1.8-1-0.1-1.5C281.9,128,280.4,130,280.4,130z"/>
				<path class="st4" d="M312.9,128c0,0-1.8-1-0.1-1.5S312.9,128,312.9,128z"/>
				<path class="st4" d="M220.7,123.6c0,0,2,0.4,0.6,1.4S220.7,123.6,220.7,123.6z"/>
				<path class="st4" d="M180.1,121.6c0,0,2,0.4,0.6,1.4S180.1,121.6,180.1,121.6z"/>
				<path class="st4" d="M220.7,112.9c0,0,2,0.4,0.6,1.4S220.7,112.9,220.7,112.9z"/>
				<path class="st4" d="M236.7,111.5c0,0,2,0.2,0.6,0.7S236.7,111.5,236.7,111.5z"/>
				<path class="st4" d="M168,128.4c0,0,2,0.2,0.6,0.7S168,128.4,168,128.4z"/>
				<path class="st4" d="M253,110.6c0,0-3.4,1.6-0.5,1.4S253,110.6,253,110.6z"/>
				<path class="st4" d="M281.9,114.2c0,0,4.2-1.2,0.8-1.6S281.9,114.2,281.9,114.2z"/>
				<path class="st4" d="M205.9,117.8c0,0,4.2-1.2,0.8-1.6S205.9,117.8,205.9,117.8z"/>
				<path class="st4" d="M216,119c0,0-6.9,0-5.2,1.6S216,119,216,119z"/>
				<path class="st4" d="M267.5,128.8c0,0,0.8,6.9,2.3,5S267.5,128.8,267.5,128.8z"/>
				<path class="st4" d="M228.8,114c0,0-1.9,3.2-0.6,2.9S228.8,114,228.8,114z"/>
				<path class="st4" d="M230.8,136.4c0,0,2.1-3.1,0.9-2.9S230.8,136.4,230.8,136.4z"/>
				<path class="st4" d="M276.3,109.8c0,0-1.9,1.6-0.6,1.5S276.3,109.8,276.3,109.8z"/>
				<path class="st4" d="M292.7,131.6c0,0,1,3.6,1.6,2.5S292.7,131.6,292.7,131.6z"/>
				<path class="st4" d="M289,120c0,0-1.9,3.2-0.6,2.9S289,120,289,120z"/>
				<path class="st4" d="M216.5,131.8c0,0-3.1,2-1.9,2.3S216.5,131.8,216.5,131.8z"/>
				<path class="st4" d="M302.8,123.4c0,0,2.1,3.1,2.4,1.9S302.8,123.4,302.8,123.4z"/>
				<path class="st4" d="M187,127.8c0,0-3.7,0-2.9,0.9C185.1,129.6,187,127.8,187,127.8z"/>
				<path class="st4" d="M212.9,111.4c0,0,3.7,0.1,2.9-0.8S212.9,111.4,212.9,111.4z"/>
				<path class="st1" d="M208.3,152.3c2.4-0.2,4.8-0.4,7.2-0.8"/>
				<path class="st1" d="M153,155.9c4.5,6.3,11.9-0.1,16.8-2.2c10.5-4.3,21.9-1.3,32.9-1.3"/>
				<path class="st1" d="M256.3,145.7c-1.6,0.1-3.2,0.2-4.8,0.5"/>
				<path class="st1" d="M281.4,149.2c-8.4-1.4-12.6-3.8-20-3.4"/>
				<path class="st1" d="M310.1,155.4c-2.9,0.1-6.3-1.9-10.3-2.7c-4.3-0.8-9.3-0.4-13-1.6"/>
				<path class="st1" d="M336.7,160.6c-4.7-4-12.2-8.2-18.9-6.9"/>
			</g>
		</g>
		<path class="st1" d="M154.1,152.5c4.1-10.6,6.4-21.1,15.9-26.6c24.5-14.4,60.3-21.8,89.3-19.7c29,2.1,46.9,10.4,65.4,30
			c1.1,1.2,6.5,14.8,7.6,16c1.8,2,3.6,4.2,4.3,6.8s-0.3,5.9-2.7,6.9c-1.6,0.7-3.5,0.3-5.3,0c-40.2-8.2-81.7-5.8-122.5-1.5
			c-13.3,1.4-26.6,3-39.9,2.2c-5.5-0.3-12.3-2.2-13.2-7.6c-0.2-1.9,0.1-3.9,0.9-5.6C153.9,153.1,154,152.8,154.1,152.5z"/>
		<path class="st3" d="M161.8,163.6c0,0-6.7,1.7-6,4.7s-3,3.3-3,3.3s0.3,1.1,4.5,1.4s5.8-2.8,7.8,0s3.4,9,9.5,5.6s6.1-10.1,11.4-7
			s10,8.1,14.7,5.6s9.2-9.2,12.8-7.5s9.7,7.2,14.1,5.3s6.4-8,12.2-6.9s8.1,4.9,12.8,3.6c4.7-1.4,6.1-4.4,10-4.8s5.8,7.4,11.9,7.9
			s6.6-7.5,12.5-7.9s9.2,8.2,12.8,8.2s6.4-6.7,10.4-6.1s4.8,6.7,8.4,6.9s6.7-4.5,10.5-4.2s3.9,5.5,10,0c0,0-6-0.8-8.6-8
			S192.9,149.5,161.8,163.6z"/>
		<g>
			<defs>
				<path id="SVGID_15_" d="M161.8,163.6c0,0-6.7,1.7-6,4.7s-3,3.3-3,3.3s0.3,1.1,4.5,1.4s5.8-2.8,7.8,0s3.4,9,9.5,5.6
					s6.1-10.1,11.4-7s10,8.1,14.7,5.6s9.2-9.2,12.8-7.5s9.7,7.2,14.1,5.3s6.4-8,12.2-6.9s8.1,4.9,12.8,3.6c4.7-1.4,6.1-4.4,10-4.8
					s5.8,7.4,11.9,7.9s6.6-7.5,12.5-7.9s9.2,8.2,12.8,8.2s6.4-6.7,10.4-6.1s4.8,6.7,8.4,6.9s6.7-4.5,10.5-4.2s3.9,5.5,10,0
					c0,0-6-0.8-8.6-8S192.9,149.5,161.8,163.6z"/>
			</defs>
			<clipPath id="SVGID_16_">
				<use xlink:href="#SVGID_15_"  style="overflow:visible;"/>
			</clipPath>
			<g class="st20">
				<path class="st21" d="M339.1,171.6c-2.7,2.5-4.2,2.8-5.4,2.4c-1.5-0.5-2.4-2.2-4.6-2.4c-1.5,0-3,0.5-4.3,1.4
					c-2.1,1.3-4.1,3-6.3,2.8c-2.6-0.2-3.8-3.4-5.7-5.4c-0.7-0.8-1.7-1.3-2.7-1.5c-2.1-0.3-3.9,1.5-5.7,3.2c-1.5,1.5-3,2.9-4.7,2.9
					c-2.1,0-4.2-3.1-6.8-5.5c-1.7-1.6-3.7-2.9-6-2.7c-3,0.2-4.6,2.4-6.2,4.4s-3.3,3.8-6.3,3.5c-3.6-0.3-5.8-3.2-7.7-5.4
					c-1.4-1.5-2.6-2.7-4.2-2.6c-3.2,0.3-4.7,2.4-7.7,4c-0.7,0.4-1.5,0.7-2.3,0.9c-3.7,1.1-5.8-1-9.4-2.5c-1.1-0.5-2.2-0.8-3.4-1.1
					c-4.8-0.9-6.9,3-10,5.5c-0.7,0.6-1.4,1.1-2.2,1.4c-3.4,1.5-7.8-1.4-11.3-3.6c-0.9-0.6-1.9-1.1-2.8-1.6c-3.6-1.7-8,5-12.8,7.5
					c-0.5,0.3-1.1,0.5-1.7,0.6c-3.6,0.6-7.2-2.4-11-5c-0.6-0.4-1.3-0.8-1.9-1.2c-5.3-3.1-5.3,3.6-11.4,7c-0.5,0.3-1.1,0.5-1.7,0.7
					c-4.7,1.4-6-3.8-7.8-6.3c-0.3-0.5-0.8-0.9-1.4-1.1c-1.5-0.4-3.2,1.3-6.4,1.1c-4.2-0.3-4.5-1.4-4.5-1.4c0.4,0,0.8-0.1,1.1-0.2
					c1.3-0.3,2.2-1.5,2-2.9c0-0.1,0-0.1,0-0.2c-0.7-3.1,6-4.7,6-4.7c31.1-14.1,166.2-7.2,168.7,0S339.1,171.6,339.1,171.6z"/>
				<g class="st22">
					<path class="st8" d="M173.9,166c1.9,2.2-0.8,9.7-1,13.4c-4.7,1.4-6-3.8-7.8-6.3c-0.3-0.5-0.8-0.9-1.4-1.1
						C167.9,166.4,171.9,163.7,173.9,166z"/>
					<path class="st8" d="M196.2,167.6c2.3,3.6,1.2,7.8,2.7,10.3c-3.6,0.6-7.2-2.4-11-5C189.5,166.1,193.5,163.1,196.2,167.6z"/>
					<path class="st8" d="M229.8,173.6c-0.7,0.6-1.4,1.1-2.2,1.4c-3.4,1.5-7.8-1.4-11.3-3.6c0.7-1.4,1.6-2.6,2.6-3.8
						C222.3,163.5,224.5,167.9,229.8,173.6z"/>
					<path class="st8" d="M254.8,170.8c-0.7,0.4-1.5,0.7-2.3,0.9c-3.7,1.1-5.8-1-9.4-2.5c1.2-2.3,2.3-4.3,3.7-4.9
						C250,162.7,252.2,167.1,254.8,170.8z"/>
					<path class="st8" d="M280.7,171.3c-1.6,2-3.3,3.8-6.3,3.5c-3.6-0.3-5.8-3.2-7.7-5.4c1.2-1.2,2.7-2.1,4.4-2.6
						C276.3,165.7,278,167.9,280.7,171.3z"/>
					<path class="st8" d="M304.4,172.1c-1.5,1.5-3,2.9-4.7,2.9c-2.1,0-4.2-3.1-6.8-5.5c1.2-1.3,2.4-2.4,3.7-3.5
						C299.5,163.9,301.6,168,304.4,172.1z"/>
					<path class="st8" d="M324.9,173c-2.1,1.3-4.1,3-6.3,2.8c-2.6-0.2-3.8-3.4-5.7-5.4c0.6-3.2,1.5-6,3.8-5.4
						C320.8,166.2,322.3,169.4,324.9,173z"/>
					<path class="st8" d="M339.1,171.6c-2.7,2.5-4.2,2.8-5.4,2.4c-2.3-0.8-2.5-3.3-3.3-5c-1.1-2.3-3.1-2.1-5.3-2.9
						c-1.6-0.7-3.1-1.6-4.5-2.5c-1.5-0.8-3.4-1.2-5-0.4c-0.9,0.5-1.7,1.5-2.8,1.5c-1.3,0.1-2.2-1.3-3.5-1.6
						c-2.1-0.6-4.1,1.8-6.2,1.3c-1.7-0.3-2.7-2.3-4.4-2.6c-2-0.4-3.6,1.7-5.6,2.3c-2.1,0.6-4.3-0.7-6.4-1.3
						c-2.1-0.7-4.3-0.7-6.5-0.2c-1.3,0.4-2.6,0.8-4,1c-2.2,0.2-4.5-0.7-6.7-0.4c-1.1,0.1-2.1,0.5-3.1,0.6c-2.7,0.2-5.6-1.8-8.1-0.6
						c-1,0.5-1.9,1.6-3.1,1.5c-1.5-0.1-2.1-1.6-3.2-2.3c-1.3-0.8-2.6-0.6-4.1-0.8c-3.1-0.4-5.9-1.6-8.5,0.9c-1.4,1.3-2.7,3-4.5,3.8
						c-2.4,1-5.1,0.3-7.4-1s-4.2-3-6.4-4.3c-2.3-1.4-5.1-2-7.8-1.7c-2.7,0.3-5.2,1.7-6.7,4c-0.6,1-1.1,2.1-1.8,3
						c-0.7,1-1.8,1.5-3,1.3c-1.4-0.4-2-2-2.8-3.2c-5.7-8.2-13.8,3.3-20.1-0.8c-2.9-1.9-7.1-1.9-11.6,1.2c-4.1,2.7-6.6,8.1-13.3,6.6
						c1.3-0.3,2.2-1.5,2-2.9c0-0.1,0-0.1,0-0.2c-0.7-3.1,6-4.7,6-4.7c31.1-14.1,166.2-7.2,168.7,0S339.1,171.6,339.1,171.6z"/>
				</g>
				<path class="st1" d="M184.1,158.4c-3,0.2-6.6,12-10.1,14s-5.7-1.9-5.7-1.9"/>
				<path class="st1" d="M155.5,170.4c2.6-0.9,5.5-1.9,6.6-4.1"/>
				<path class="st1" d="M193.9,171.7c0,0,3,5.7,7.8,0.6s8.9-8.7,13.3-6.2s8,6.9,11.2,4.7"/>
				<path class="st1" d="M303.1,166c0,0,3.8-4.7,8.8-0.7s3.9,6.8,7.9,5.6"/>
				<path class="st1" d="M321.5,160.3c0,0,6.4,3.8,7.9,6.5s3.5,6.4,5.4,5.8"/>
				<path class="st1" d="M254.2,166c0,0,4.3-5.1,9.7-2.9s7.8,7.8,11,7.5s5.1-4.9,8.5-5.1"/>
			</g>
		</g>
		<path class="st1" d="M161.8,163.6c0,0-6.7,1.7-6,4.7s-3,3.3-3,3.3s0.3,1.1,4.5,1.4s5.8-2.8,7.8,0s3.4,9,9.5,5.6s6.1-10.1,11.4-7
			s10,8.1,14.7,5.6s9.2-9.2,12.8-7.5s9.7,7.2,14.1,5.3s6.4-8,12.2-6.9s8.1,4.9,12.8,3.6c4.7-1.4,6.1-4.4,10-4.8s5.8,7.4,11.9,7.9
			s6.6-7.5,12.5-7.9s9.2,8.2,12.8,8.2s6.4-6.7,10.4-6.1s4.8,6.7,8.4,6.9s6.7-4.5,10.5-4.2s3.9,5.5,10,0c0,0-6-0.8-8.6-8
			S192.9,149.5,161.8,163.6z"/>
	</g>
</g>
</svg>
