<?xml version="1.0" encoding="utf-8"?>
<!-- Generator: Adobe Illustrator 24.0.1, SVG Export Plug-In . SVG Version: 6.00 Build 0)  -->
<svg version="1.1" xmlns="http://www.w3.org/2000/svg" xmlns:xlink="http://www.w3.org/1999/xlink" x="0px" y="0px"
	 viewBox="0 0 100 100" style="enable-background:new 0 0 100 100;" xml:space="preserve">
<style type="text/css">
	.st0{fill:#EF233C;}
	.st1{fill:#FFFFFF;}
	.st2{fill:#2B2D42;}
	.st3{fill:none;stroke:#2B2D42;stroke-width:3;stroke-linecap:round;stroke-miterlimit:10;}
</style>
<g id="Layer_2">
	<rect class="st0" width="100" height="100"/>
</g>
<g id="OBJECTS">
	<path class="st1" d="M85,35.3c-0.6-6.4-12.7-13.7-33.2-13.7c-20.5,0-34,6.4-36.5,13.2c-2.5,6.8,8.3,12.9,8.3,12.9
		c1.2,5.6,1.7,12.7,1.9,18.7l0,0c-2,3.9,0.9,11.8,0.9,11.8c19.5-8.9,45.3,0.1,45.3,0.1c2.7-7.9,1.3-10.9,1.3-10.9
		c1.2-10.4,3.6-21.1,3.6-21.1S85.6,41.6,85,35.3z"/>
	<g>
		<path class="st2" d="M24.9,65.1c1.7-0.8,3.3-1.4,5-1.9c0.8-0.2,1.7-0.5,2.5-0.6c0.8-0.2,1.7-0.4,2.6-0.5c3.4-0.6,6.9-0.8,10.4-0.7
			c1.7,0.1,3.5,0.1,5.2,0.4c0.9,0.1,1.7,0.2,2.6,0.3l2.5,0.4c0.9,0.1,1.7,0.3,2.5,0.5l2.5,0.6c1.7,0.4,3.3,1,4.9,1.5
			c0.5,0.1,0.7,0.6,0.6,1.1c-0.1,0.5-0.6,0.7-1.1,0.6l-0.1,0c-1.6-0.4-3.2-0.9-4.9-1.3L57.8,65c-0.8-0.2-1.6-0.3-2.5-0.4l-2.5-0.4
			c-0.8-0.1-1.7-0.1-2.5-0.2c-1.7-0.2-3.3-0.2-5-0.2c-3.3,0.1-6.6,0.3-9.9,1c-0.8,0.2-1.6,0.3-2.4,0.5c-0.8,0.2-1.6,0.4-2.4,0.7
			c-1.5,0.5-3.1,1.1-4.4,1.8l-0.1,0c-0.7,0.4-1.6,0.1-2-0.6S24.1,65.5,24.9,65.1C24.9,65.2,24.9,65.1,24.9,65.1z"/>
	</g>
	<g>
		<path class="st2" d="M22.2,48c-0.1-0.6,0-0.8,0-1.2c0.1-0.3,0.1-0.7,0.2-1c0.2-0.6,0.5-1.2,0.8-1.8c0.6-1.1,1.5-1.9,2.4-2.7
			c1.8-1.4,3.9-2.3,5.9-3.1c2-0.7,4.1-1.2,6.2-1.6c2.1-0.4,4.2-0.6,6.3-0.8c0.4,0,0.8,0.3,0.8,0.7c0,0.4-0.2,0.8-0.6,0.8l0,0
			c-2,0.3-4.1,0.7-6,1.2c-2,0.5-3.9,1.1-5.8,1.8c-1.8,0.8-3.6,1.7-5,2.9c-0.7,0.6-1.3,1.3-1.7,2c-0.2,0.4-0.3,0.7-0.4,1.1
			c-0.1,0.2-0.1,0.4-0.1,0.5c0,0.1,0,0.4,0,0.3c0.2,0.8-0.4,1.6-1.2,1.8C23.2,49.4,22.4,48.8,22.2,48z"/>
	</g>
	<g>
		<path class="st2" d="M75.2,46.7c0-0.2-0.2-0.6-0.3-0.9c-0.2-0.3-0.3-0.7-0.5-1c-0.4-0.7-0.9-1.3-1.5-1.8c-0.6-0.5-1.2-1.1-1.9-1.5
			c-0.7-0.4-1.4-0.8-2.2-1.1l0,0c-0.5-0.2-0.8-0.9-0.5-1.4c0.2-0.5,0.8-0.8,1.3-0.6c0.9,0.3,1.8,0.7,2.7,1.1c0.9,0.4,1.7,1,2.5,1.6
			c0.8,0.6,1.5,1.4,2.1,2.2c0.3,0.4,0.6,0.8,0.8,1.3c0.2,0.5,0.5,0.9,0.6,1.6c0.2,0.8-0.2,1.6-1,1.9c-0.8,0.2-1.6-0.2-1.9-1
			C75.3,46.8,75.3,46.8,75.2,46.7L75.2,46.7z"/>
	</g>
	<path class="st3" d="M85.1,35.3c-0.6-6.4-12.7-13.7-33.2-13.7c-20.5,0-34,6.4-36.5,13.2c-2.5,6.8,8.3,12.9,8.3,12.9
		c1.2,5.6,1.7,12.7,1.9,18.7l0,0c-2,3.9,0.9,11.8,0.9,11.8c19.5-8.9,45.3,0.1,45.3,0.1c2.7-7.9,1.3-10.9,1.3-10.9
		c1.2-10.4,3.6-21.1,3.6-21.1S85.7,41.6,85.1,35.3z"/>
</g>
</svg>
